{
.appVersion = "3343";
DisplayStrings = (
"Alan/space Play\012Mashallah\012Rosa/space Marina\012HElmanKJGFZ\012QUARTZ\012KALIEFRIEND",
"Anna/space Keroulle\012Laure/space Boutmy\012Tiphaine/space Gillet\012Raphael/space Ronot",
"/_circle ©BRP",
"H/Hcircumflex né",
"/.notdef",
"$Épg",
"/brevecomb/gbreve/gcircumflex",
"sOOGCS§fG£caUaGCH",
"ßa",
"æð/oe þ",
hmn,
"EE/E.ss04/space L/L.ss04/space MW/M.ss02 asWM/space G/G.ss02/space RKa\012a/a.ss01/space g/g.ss01/space y/space l/space KK/space/space k",
"G/Gbreve/Gcircumflex/Gcommaaccent/Gdotaccent/Gmacron/G.ss02",
"KRaQuasar/space/space",

glyphs = (
{
color = 1;
glyphname = A;
lastChange = "2025-07-30 13:37:09 +0000";
layers = (
{
anchors = (
{
name = bottom;
position = "{346, 0}";
},
{
name = ogonek;
position = "{604, 0}";
},
{
name = top;
position = "{346, 680}";
}
);
layerId = "D8D2F0D2-8948-448B-99CD-378CDFD0E0AE";
paths = (
{
closed = 1;
nodes = (
"94 0 LINE",
"364 660 LINE",
"329 660 LINE",
"598 0 LINE",
"666 0 LINE",
"398 649 LINE SMOOTH",
"386 678 OFFCURVE",
"369 692 OFFCURVE",
"347 692 CURVE SMOOTH",
"324 692 OFFCURVE",
"307 678 OFFCURVE",
"295 649 CURVE SMOOTH",
"25 0 LINE"
);
},
{
closed = 1;
nodes = (
"524 204 LINE",
"524 260 LINE",
"168 260 LINE",
"168 204 LINE"
);
}
);
userData = {
RMXScaler = {
height = 97.2;
monoWidth = 692;
};
};
width = 692;
},
{
anchors = (
{
name = bottom;
position = "{327, 0}";
},
{
name = ogonek;
position = "{589, 10}";
},
{
name = top;
position = "{327, 740}";
}
);
associatedMasterId = "D8D2F0D2-8948-448B-99CD-378CDFD0E0AE";
layerId = "EBC9EF9B-1593-4D84-9CC0-46CE86775B45";
name = "18 juin 25 à 19:21";
paths = (
{
closed = 1;
nodes = (
"295 700 LINE",
"28 0 LINE",
"95 0 LINE",
"356 700 LINE"
);
},
{
closed = 1;
nodes = (
"560 0 LINE",
"626 0 LINE",
"361 700 LINE",
"300 700 LINE"
);
},
{
closed = 1;
nodes = (
"156 231 LINE",
"499 231 LINE",
"499 287 LINE",
"156 287 LINE"
);
}
);
width = 654;
},
{
anchors = (
{
name = bottom;
position = "{352, 0}";
},
{
name = ogonek;
position = "{637, 0}";
},
{
name = top;
position = "{352, 680}";
}
);
layerId = "569359BB-C357-4838-A4FF-29094E5B79C2";
paths = (
{
closed = 1;
nodes = (
"177 0 LINE",
"367 552 LINE",
"333 552 LINE",
"524 0 LINE",
"695 0 LINE",
"475 587 LINE SMOOTH",
"448 659 OFFCURVE",
"409 692 OFFCURVE",
"351 692 CURVE SMOOTH",
"294 692 OFFCURVE",
"254 656 OFFCURVE",
"228 587 CURVE SMOOTH",
"7 0 LINE"
);
},
{
closed = 1;
nodes = (
"537 127 LINE",
"537 263 LINE",
"172 263 LINE",
"172 127 LINE"
);
}
);
userData = {
RMXScaler = {
height = 97.2;
keepStroke = 100;
monoWidth = 702;
};
};
width = 702;
}
);
leftMetricsKey = "=";
rightMetricsKey = "=";
unicode = 0041;
userData = {
RMXScaler = {
source = A;
};
};
},
{
color = 4;
glyphname = AE;
lastChange = "2025-07-30 13:33:28 +0000";
layers = (
{
components = (
{
name = E;
transform = "{1, 0, 0, 1, 390, 0}";
}
);
layerId = "D8D2F0D2-8948-448B-99CD-378CDFD0E0AE";
paths = (
{
closed = 1;
nodes = (
"92 0 LINE",
"521 647 LINE",
"504 680 LINE",
"483 680 OFFCURVE",
"469 671 OFFCURVE",
"450 643 CURVE SMOOTH",
"18 0 LINE"
);
},
{
closed = 1;
nodes = (
"535 211 LINE",
"535 267 LINE",
"212 267 LINE",
"212 211 LINE"
);
}
);
width = 1050;
},
{
components = (
{
alignment = -1;
name = E;
transform = "{1, 0, 0, 1, 408, 0}";
}
);
layerId = "569359BB-C357-4838-A4FF-29094E5B79C2";
paths = (
{
closed = 1;
nodes = (
"191 0 LINE",
"501 579 LINE",
"479 680 LINE",
"422 680 OFFCURVE",
"375 656 OFFCURVE",
"343 592 CURVE SMOOTH",
"13 0 LINE"
);
},
{
closed = 1;
nodes = (
"537 145 LINE",
"537 288 LINE",
"192 288 LINE",
"192 145 LINE"
);
}
);
width = 1033;
}
);
leftMetricsKey = "=A";
rightMetricsKey = "=E";
unicode = 00C6;
},
{
color = 1;
glyphname = B;
lastChange = "2025-07-30 13:37:09 +0000";
layers = (
{
layerId = "D8D2F0D2-8948-448B-99CD-378CDFD0E0AE";
paths = (
{
closed = 1;
nodes = (
"379 0 LINE SMOOTH",
"548 0 OFFCURVE",
"632 71 OFFCURVE",
"632 191 CURVE SMOOTH",
"632 311 OFFCURVE",
"551 357 OFFCURVE",
"406 357 CURVE SMOOTH",
"158 357 LINE",
"158 315 LINE",
"379 315 LINE SMOOTH",
"508 315 OFFCURVE",
"566 279 OFFCURVE",
"566 191 CURVE SMOOTH",
"566 102 OFFCURVE",
"508 56 OFFCURVE",
"379 56 CURVE SMOOTH",
"158 56 LINE",
"158 0 LINE"
);
},
{
closed = 1;
nodes = (
"162 0 LINE",
"162 680 LINE",
"101 680 LINE",
"101 0 LINE"
);
},
{
closed = 1;
nodes = (
"379 331 LINE SMOOTH",
"516 331 OFFCURVE",
"603 384 OFFCURVE",
"603 504 CURVE SMOOTH",
"603 623 OFFCURVE",
"519 680 OFFCURVE",
"351 680 CURVE SMOOTH",
"130 680 LINE",
"130 624 LINE",
"351 624 LINE SMOOTH",
"480 624 OFFCURVE",
"539 591 OFFCURVE",
"539 503 CURVE SMOOTH",
"539 415 OFFCURVE",
"480 371 OFFCURVE",
"351 371 CURVE SMOOTH",
"130 371 LINE",
"130 331 LINE"
);
}
);
userData = {
RMXScaler = {
height = 97.2;
monoWidth = 692;
};
};
width = 692;
},
{
layerId = "569359BB-C357-4838-A4FF-29094E5B79C2";
paths = (
{
closed = 1;
nodes = (
"382 0 LINE SMOOTH",
"561 0 OFFCURVE",
"668 59 OFFCURVE",
"668 193 CURVE SMOOTH",
"668 334 OFFCURVE",
"539 362 OFFCURVE",
"401 362 CURVE SMOOTH",
"205 362 LINE",
"205 277 LINE",
"388 277 LINE SMOOTH",
"465 277 OFFCURVE",
"500 257 OFFCURVE",
"500 207 CURVE SMOOTH",
"500 156 OFFCURVE",
"466 131 OFFCURVE",
"388 131 CURVE SMOOTH",
"205 131 LINE",
"205 0 LINE"
);
},
{
closed = 1;
nodes = (
"228 0 LINE",
"228 680 LINE",
"68 680 LINE",
"68 0 LINE"
);
},
{
closed = 1;
nodes = (
"375 322 LINE SMOOTH",
"504 322 OFFCURVE",
"641 344 OFFCURVE",
"641 494 CURVE SMOOTH",
"641 626 OFFCURVE",
"538 680 OFFCURVE",
"355 680 CURVE SMOOTH",
"158 680 LINE",
"158 549 LINE",
"365 549 LINE SMOOTH",
"443 549 OFFCURVE",
"477 530 OFFCURVE",
"477 480 CURVE SMOOTH",
"477 430 OFFCURVE",
"443 405 OFFCURVE",
"365 405 CURVE SMOOTH",
"158 405 LINE",
"158 322 LINE"
);
}
);
userData = {
RMXScaler = {
height = 97.2;
keepStroke = 100;
monoWidth = 702;
};
};
width = 702;
}
);
leftMetricsKey = "=";
rightMetricsKey = "=";
unicode = 0042;
userData = {
RMXScaler = {
source = B;
};
};
},
{
color = 1;
glyphname = C;
lastChange = "2025-07-30 13:37:09 +0000";
layers = (
{
anchors = (
{
name = bottom;
position = "{373, 0}";
},
{
name = top;
position = "{393, 680}";
}
);
associatedMasterId = "D8D2F0D2-8948-448B-99CD-378CDFD0E0AE";
layerId = "A136EE5B-A569-46F9-B3BD-91D6E81A22EA";
name = "15 juil. 25 à 17:03";
paths = (
{
closed = 1;
nodes = (
"493 -12 OFFCURVE",
"568 13 OFFCURVE",
"616 44 CURVE",
"616 100 LINE",
"552 64 OFFCURVE",
"483 42 OFFCURVE",
"405 42 CURVE SMOOTH",
"221 42 OFFCURVE",
"124 166 OFFCURVE",
"124 336 CURVE SMOOTH",
"124 510 OFFCURVE",
"222 638 OFFCURVE",
"398 638 CURVE SMOOTH",
"552 638 OFFCURVE",
"567 541 OFFCURVE",
"611 541 CURVE SMOOTH",
"626 541 OFFCURVE",
"635 552 OFFCURVE",
"635 571 CURVE SMOOTH",
"635 632 OFFCURVE",
"527 692 OFFCURVE",
"399 692 CURVE SMOOTH",
"186 692 OFFCURVE",
"56 541 OFFCURVE",
"56 330 CURVE SMOOTH",
"56 124 OFFCURVE",
"181 -12 OFFCURVE",
"398 -12 CURVE SMOOTH"
);
}
);
userData = {
RMXScaler = {
height = 97.2;
};
};
width = 668;
},
{
anchors = (
{
name = bottom;
position = "{373, 0}";
},
{
name = top;
position = "{383, 680}";
}
);
associatedMasterId = "D8D2F0D2-8948-448B-99CD-378CDFD0E0AE";
layerId = "07378463-699B-4526-980E-0743AB08DA99";
name = "16 juil. 25 à 18:49";
paths = (
{
closed = 1;
nodes = (
"493 -12 OFFCURVE",
"568 13 OFFCURVE",
"616 44 CURVE",
"616 102 LINE",
"552 64 OFFCURVE",
"479 42 OFFCURVE",
"401 42 CURVE SMOOTH",
"217 42 OFFCURVE",
"124 166 OFFCURVE",
"124 336 CURVE SMOOTH",
"124 510 OFFCURVE",
"218 638 OFFCURVE",
"401 638 CURVE SMOOTH",
"558 638 OFFCURVE",
"558 548 OFFCURVE",
"601 548 CURVE SMOOTH",
"615 548 OFFCURVE",
"627 557 OFFCURVE",
"627 578 CURVE SMOOTH",
"627 633 OFFCURVE",
"545 692 OFFCURVE",
"405 692 CURVE SMOOTH",
"182 692 OFFCURVE",
"56 541 OFFCURVE",
"56 332 CURVE SMOOTH",
"56 124 OFFCURVE",
"181 -12 OFFCURVE",
"398 -12 CURVE SMOOTH"
);
}
);
userData = {
RMXScaler = {
height = 97.2;
};
};
width = 668;
},
{
anchors = (
{
name = bottom;
position = "{386, 0}";
},
{
name = top;
position = "{402, 680}";
}
);
layerId = "D8D2F0D2-8948-448B-99CD-378CDFD0E0AE";
name = Thin;
paths = (
{
closed = 1;
nodes = (
"508 -12 OFFCURVE",
"586 13 OFFCURVE",
"635 44 CURVE",
"635 102 LINE",
"569 64 OFFCURVE",
"495 42 OFFCURVE",
"414 42 CURVE SMOOTH",
"226 42 OFFCURVE",
"131 166 OFFCURVE",
"131 336 CURVE SMOOTH",
"131 510 OFFCURVE",
"227 638 OFFCURVE",
"407 638 CURVE SMOOTH",
"562 638 OFFCURVE",
"575 543 OFFCURVE",
"620 543 CURVE SMOOTH",
"635 543 OFFCURVE",
"647 554 OFFCURVE",
"647 571 CURVE SMOOTH",
"647 588 OFFCURVE",
"636 604 OFFCURVE",
"617 621 CURVE SMOOTH",
"580 655 OFFCURVE",
"516 692 OFFCURVE",
"407 692 CURVE SMOOTH",
"190 692 OFFCURVE",
"61 541 OFFCURVE",
"61 332 CURVE SMOOTH",
"61 124 OFFCURVE",
"189 -12 OFFCURVE",
"411 -12 CURVE SMOOTH"
);
}
);
userData = {
RMXScaler = {
height = 97.2;
monoWidth = 692;
};
};
width = 692;
},
{
anchors = (
{
name = bottom;
position = "{396, 0}";
},
{
name = top;
position = "{403, 680}";
}
);
layerId = "569359BB-C357-4838-A4FF-29094E5B79C2";
paths = (
{
closed = 1;
nodes = (
"517 -12 OFFCURVE",
"593 13 OFFCURVE",
"652 44 CURVE",
"652 178 LINE",
"580 148 OFFCURVE",
"512 131 OFFCURVE",
"441 131 CURVE SMOOTH",
"290 131 OFFCURVE",
"211 212 OFFCURVE",
"211 342 CURVE SMOOTH",
"211 460 OFFCURVE",
"276 549 OFFCURVE",
"400 549 CURVE SMOOTH",
"515 549 OFFCURVE",
"532 469 OFFCURVE",
"601 469 CURVE SMOOTH",
"643 469 OFFCURVE",
"673 496 OFFCURVE",
"673 541 CURVE SMOOTH",
"673 568 OFFCURVE",
"660 594 OFFCURVE",
"641 614 CURVE SMOOTH",
"594 663 OFFCURVE",
"510 692 OFFCURVE",
"406 692 CURVE SMOOTH",
"169 692 OFFCURVE",
"40 534 OFFCURVE",
"40 331 CURVE SMOOTH",
"40 126 OFFCURVE",
"171 -12 OFFCURVE",
"414 -12 CURVE SMOOTH"
);
}
);
userData = {
RMXScaler = {
height = 97.2;
keepStroke = 100;
monoWidth = 702;
};
};
width = 702;
}
);
leftMetricsKey = "=";
rightMetricsKey = "=";
unicode = 0043;
userData = {
RMXScaler = {
source = C;
};
};
},
{
color = 1;
glyphname = D;
lastChange = "2025-07-30 13:37:09 +0000";
layers = (
{
anchors = (
{
name = bottom;
position = "{343, 0}";
},
{
name = center;
position = "{165, 340}";
},
{
name = top;
position = "{324, 680}";
}
);
layerId = "D8D2F0D2-8948-448B-99CD-378CDFD0E0AE";
paths = (
{
closed = 1;
nodes = (
"94 680 LINE",
"94 0 LINE",
"154 0 LINE",
"154 680 LINE"
);
},
{
closed = 1;
nodes = (
"291 0 LINE SMOOTH",
"532 0 OFFCURVE",
"646 139 OFFCURVE",
"646 349 CURVE SMOOTH",
"646 556 OFFCURVE",
"531 680 OFFCURVE",
"291 680 CURVE SMOOTH",
"131 680 LINE",
"131 624 LINE",
"286 624 LINE SMOOTH",
"485 624 OFFCURVE",
"582 533 OFFCURVE",
"582 349 CURVE SMOOTH",
"582 171 OFFCURVE",
"489 56 OFFCURVE",
"286 56 CURVE SMOOTH",
"131 56 LINE",
"131 0 LINE"
);
}
);
userData = {
RMXScaler = {
height = 97.2;
monoWidth = 692;
};
};
width = 692;
},
{
anchors = (
{
name = bottom;
position = "{351, 0}";
},
{
name = center;
position = "{174, 340}";
},
{
name = top;
position = "{338, 680}";
}
);
layerId = "569359BB-C357-4838-A4FF-29094E5B79C2";
paths = (
{
closed = 1;
nodes = (
"62 680 LINE",
"62 0 LINE",
"220 0 LINE",
"220 680 LINE"
);
},
{
closed = 1;
nodes = (
"309 0 LINE SMOOTH",
"563 0 OFFCURVE",
"677 145 OFFCURVE",
"677 346 CURVE SMOOTH",
"677 554 OFFCURVE",
"551 680 OFFCURVE",
"304 680 CURVE SMOOTH",
"141 680 LINE",
"141 538 LINE",
"297 538 LINE SMOOTH",
"439 538 OFFCURVE",
"511 482 OFFCURVE",
"511 346 CURVE SMOOTH",
"511 215 OFFCURVE",
"443 142 OFFCURVE",
"297 142 CURVE SMOOTH",
"141 142 LINE",
"141 0 LINE"
);
}
);
userData = {
RMXScaler = {
height = 97.2;
keepStroke = 100;
monoWidth = 702;
};
};
width = 702;
}
);
leftMetricsKey = "=";
rightMetricsKey = "=";
unicode = 0044;
userData = {
RMXScaler = {
source = D;
};
};
},
{
color = 4;
glyphname = Eth;
lastChange = "2025-07-30 13:33:28 +0000";
layers = (
{
components = (
{
name = D;
}
);
layerId = "D8D2F0D2-8948-448B-99CD-378CDFD0E0AE";
paths = (
{
closed = 1;
nodes = (
"4 326 LINE",
"416 326 LINE",
"416 378 LINE",
"4 378 LINE"
);
}
);
width = 752;
},
{
components = (
{
alignment = -1;
name = D;
transform = "{1, 0, 0, 1, 17, 0}";
}
);
layerId = "569359BB-C357-4838-A4FF-29094E5B79C2";
paths = (
{
closed = 1;
nodes = (
"2 301 LINE",
"399 301 LINE",
"399 391 LINE",
"2 391 LINE"
);
}
);
width = 752;
}
);
rightMetricsKey = "=D";
unicode = 00D0;
},
{
color = 1;
glyphname = E;
lastChange = "2025-07-30 13:37:09 +0000";
layers = (
{
anchors = (
{
name = bottom;
position = "{332, 0}";
},
{
name = ogonek;
position = "{532, 0}";
},
{
name = top;
position = "{380, 680}";
},
{
name = topleft;
position = "{17, 680}";
}
);
layerId = "D8D2F0D2-8948-448B-99CD-378CDFD0E0AE";
paths = (
{
closed = 1;
nodes = (
"183 0 LINE",
"183 680 LINE",
"116 680 LINE",
"116 0 LINE"
);
},
{
closed = 1;
nodes = (
"617 0 LINE",
"617 56 LINE",
"147 56 LINE",
"147 0 LINE"
);
},
{
closed = 1;
nodes = (
"539 343 LINE SMOOTH",
"560 343 OFFCURVE",
"575 353 OFFCURVE",
"575 371 CURVE SMOOTH",
"575 389 OFFCURVE",
"560 399 OFFCURVE",
"539 399 CURVE SMOOTH",
"147 399 LINE",
"147 343 LINE"
);
},
{
closed = 1;
nodes = (
"617 624 LINE",
"617 680 LINE",
"147 680 LINE",
"147 624 LINE"
);
}
);
userData = {
RMXScaler = {
height = 97.2;
monoWidth = 692;
};
};
width = 692;
},
{
anchors = (
{
name = bottom;
position = "{320, 0}";
},
{
name = ogonek;
position = "{576, 10}";
},
{
name = top;
position = "{370, 700}";
},
{
name = topleft;
position = "{20, 700}";
}
);
associatedMasterId = "D8D2F0D2-8948-448B-99CD-378CDFD0E0AE";
layerId = "D04DD2A2-CEF7-45CA-8D12-D99EE57770D4";
name = "19 juin 25 à 11:16";
paths = (
{
closed = 1;
nodes = (
"178 0 LINE",
"178 700 LINE",
"114 700 LINE",
"114 0 LINE"
);
},
{
closed = 1;
nodes = (
"592 0 LINE",
"592 56 LINE",
"144 56 LINE",
"144 0 LINE"
);
},
{
closed = 1;
nodes = (
"552 354 LINE",
"552 410 LINE",
"144 410 LINE",
"144 354 LINE"
);
},
{
closed = 1;
nodes = (
"592 644 LINE",
"592 700 LINE",
"144 700 LINE",
"144 644 LINE"
);
}
);
width = 640;
},
{
anchors = (
{
name = bottom;
position = "{346, 0}";
},
{
name = ogonek;
position = "{574, 0}";
},
{
name = top;
position = "{377, 680}";
},
{
name = topleft;
position = "{36, 680}";
}
);
layerId = "569359BB-C357-4838-A4FF-29094E5B79C2";
paths = (
{
closed = 1;
nodes = (
"253 0 LINE",
"253 680 LINE",
"87 680 LINE",
"87 0 LINE"
);
},
{
closed = 1;
nodes = (
"643 0 LINE",
"643 137 LINE",
"216 137 LINE",
"216 0 LINE"
);
},
{
closed = 1;
nodes = (
"521 287 LINE SMOOTH",
"568 287 OFFCURVE",
"599 312 OFFCURVE",
"599 356 CURVE SMOOTH",
"599 400 OFFCURVE",
"568 424 OFFCURVE",
"521 424 CURVE SMOOTH",
"160 424 LINE",
"160 287 LINE"
);
},
{
closed = 1;
nodes = (
"643 543 LINE",
"643 680 LINE",
"216 680 LINE",
"216 543 LINE"
);
}
);
userData = {
RMXScaler = {
height = 97.2;
keepStroke = 100;
monoWidth = 702;
};
};
width = 702;
}
);
leftMetricsKey = "=";
rightMetricsKey = "=";
unicode = 0045;
userData = {
RMXScaler = {
source = E;
};
};
},
{
color = 1;
glyphname = F;
lastChange = "2025-07-30 13:37:09 +0000";
layers = (
{
layerId = "D8D2F0D2-8948-448B-99CD-378CDFD0E0AE";
paths = (
{
closed = 1;
nodes = (
"187 0 LINE",
"187 680 LINE",
"119 680 LINE",
"119 0 LINE"
);
},
{
closed = 1;
nodes = (
"548 333 LINE SMOOTH",
"569 333 OFFCURVE",
"584 343 OFFCURVE",
"584 361 CURVE SMOOTH",
"584 379 OFFCURVE",
"569 389 OFFCURVE",
"548 389 CURVE SMOOTH",
"151 389 LINE",
"151 333 LINE"
);
},
{
closed = 1;
nodes = (
"626 624 LINE",
"626 680 LINE",
"151 680 LINE",
"151 624 LINE"
);
}
);
userData = {
RMXScaler = {
height = 97.2;
monoWidth = 692;
};
};
width = 692;
},
{
associatedMasterId = "D8D2F0D2-8948-448B-99CD-378CDFD0E0AE";
layerId = "809553D7-DBEA-40BC-A688-6722828DEE31";
name = "19 juin 25 à 11:17";
paths = (
{
closed = 1;
nodes = (
"178 0 LINE",
"178 700 LINE",
"114 700 LINE",
"114 0 LINE"
);
},
{
closed = 1;
nodes = (
"562 344 LINE",
"562 400 LINE",
"144 400 LINE",
"144 344 LINE"
);
},
{
closed = 1;
nodes = (
"602 644 LINE",
"602 700 LINE",
"144 700 LINE",
"144 644 LINE"
);
}
);
width = 640;
},
{
layerId = "569359BB-C357-4838-A4FF-29094E5B79C2";
paths = (
{
closed = 1;
nodes = (
"259 0 LINE",
"259 680 LINE",
"91 680 LINE",
"91 0 LINE"
);
},
{
closed = 1;
nodes = (
"533 277 LINE SMOOTH",
"581 277 OFFCURVE",
"612 302 OFFCURVE",
"612 346 CURVE SMOOTH",
"612 390 OFFCURVE",
"581 414 OFFCURVE",
"533 414 CURVE SMOOTH",
"171 414 LINE",
"171 277 LINE"
);
},
{
closed = 1;
nodes = (
"652 543 LINE",
"652 680 LINE",
"148 680 LINE",
"148 543 LINE"
);
}
);
userData = {
RMXScaler = {
height = 97.2;
keepStroke = 100;
monoWidth = 702;
};
};
width = 702;
}
);
leftMetricsKey = "=";
rightMetricsKey = "=";
unicode = 0046;
userData = {
RMXScaler = {
source = F;
};
};
},
{
color = 1;
glyphname = G;
lastChange = "2025-07-30 13:37:09 +0000";
layers = (
{
anchors = (
{
name = bottom;
position = "{403, 0}";
},
{
name = top;
position = "{379, 680}";
}
);
layerId = "D8D2F0D2-8948-448B-99CD-378CDFD0E0AE";
paths = (
{
closed = 1;
nodes = (
"479 -12 OFFCURVE",
"570 13 OFFCURVE",
"615 44 CURVE",
"615 96 LINE",
"545 64 OFFCURVE",
"468 42 OFFCURVE",
"385 42 CURVE SMOOTH",
"195 42 OFFCURVE",
"109 163 OFFCURVE",
"109 336 CURVE SMOOTH",
"109 510 OFFCURVE",
"196 638 OFFCURVE",
"376 638 CURVE SMOOTH",
"529 638 OFFCURVE",
"540 543 OFFCURVE",
"581 543 CURVE SMOOTH",
"595 543 OFFCURVE",
"606 554 OFFCURVE",
"606 571 CURVE SMOOTH",
"606 588 OFFCURVE",
"597 602 OFFCURVE",
"579 620 CURVE SMOOTH",
"542 657 OFFCURVE",
"478 692 OFFCURVE",
"377 692 CURVE SMOOTH",
"162 692 OFFCURVE",
"45 541 OFFCURVE",
"45 332 CURVE SMOOTH",
"45 124 OFFCURVE",
"161 -12 OFFCURVE",
"384 -12 CURVE SMOOTH"
);
},
{
closed = 1;
nodes = (
"615 44 LINE",
"615 351 LINE",
"357 351 LINE",
"357 295 LINE",
"555 295 LINE",
"555 44 LINE"
);
}
);
userData = {
RMXScaler = {
height = 97.2;
monoWidth = 692;
};
};
width = 692;
},
{
anchors = (
{
name = bottom;
position = "{437, 0}";
},
{
name = top;
position = "{411, 680}";
}
);
associatedMasterId = "D8D2F0D2-8948-448B-99CD-378CDFD0E0AE";
layerId = "903F3886-9249-4126-B870-BB36AA91803E";
name = "15 juil. 25 à 17:05";
paths = (
{
closed = 1;
nodes = (
"518 -12 OFFCURVE",
"614 13 OFFCURVE",
"662 44 CURVE",
"662 96 LINE",
"588 64 OFFCURVE",
"509 42 OFFCURVE",
"422 42 CURVE SMOOTH",
"219 42 OFFCURVE",
"124 163 OFFCURVE",
"124 336 CURVE SMOOTH",
"124 510 OFFCURVE",
"220 638 OFFCURVE",
"403 638 CURVE SMOOTH",
"561 638 OFFCURVE",
"590 541 OFFCURVE",
"633 541 CURVE SMOOTH",
"648 541 OFFCURVE",
"658 553 OFFCURVE",
"658 572 CURVE SMOOTH",
"658 636 OFFCURVE",
"537 692 OFFCURVE",
"404 692 CURVE SMOOTH",
"184 692 OFFCURVE",
"56 541 OFFCURVE",
"56 330 CURVE SMOOTH",
"56 124 OFFCURVE",
"179 -12 OFFCURVE",
"416 -12 CURVE SMOOTH"
);
},
{
closed = 1;
nodes = (
"662 44 LINE",
"662 351 LINE",
"388 351 LINE",
"388 295 LINE",
"598 295 LINE",
"598 44 LINE"
);
}
);
userData = {
RMXScaler = {
height = 97.2;
};
};
width = 752;
},
{
anchors = (
{
name = bottom;
position = "{437, 0}";
},
{
name = top;
position = "{411, 680}";
}
);
associatedMasterId = "D8D2F0D2-8948-448B-99CD-378CDFD0E0AE";
layerId = "7572117D-57B1-45A2-A3DE-D26A19E97E85";
name = "16 juil. 25 à 14:21";
paths = (
{
closed = 1;
nodes = (
"518 -12 OFFCURVE",
"614 13 OFFCURVE",
"662 44 CURVE",
"662 96 LINE",
"588 64 OFFCURVE",
"509 42 OFFCURVE",
"422 42 CURVE SMOOTH",
"219 42 OFFCURVE",
"124 163 OFFCURVE",
"124 338 CURVE SMOOTH",
"124 510 OFFCURVE",
"216 638 OFFCURVE",
"416 638 CURVE SMOOTH",
"581 638 OFFCURVE",
"583 548 OFFCURVE",
"626 548 CURVE SMOOTH",
"640 548 OFFCURVE",
"652 557 OFFCURVE",
"652 578 CURVE SMOOTH",
"652 633 OFFCURVE",
"568 692 OFFCURVE",
"420 692 CURVE SMOOTH",
"180 692 OFFCURVE",
"56 541 OFFCURVE",
"56 332 CURVE SMOOTH",
"56 124 OFFCURVE",
"179 -12 OFFCURVE",
"416 -12 CURVE SMOOTH"
);
},
{
closed = 1;
nodes = (
"662 44 LINE",
"662 351 LINE",
"388 351 LINE",
"388 295 LINE",
"598 295 LINE",
"598 44 LINE"
);
}
);
userData = {
RMXScaler = {
height = 97.2;
};
};
width = 752;
},
{
anchors = (
{
name = bottom;
position = "{405, 0}";
},
{
name = top;
position = "{382, 680}";
}
);
layerId = "569359BB-C357-4838-A4FF-29094E5B79C2";
name = Black;
paths = (
{
closed = 1;
nodes = (
"492 -12 OFFCURVE",
"593 13 OFFCURVE",
"651 44 CURVE",
"651 174 LINE",
"575 147 OFFCURVE",
"488 125 OFFCURVE",
"405 125 CURVE SMOOTH",
"255 125 OFFCURVE",
"191 202 OFFCURVE",
"191 336 CURVE SMOOTH",
"191 469 OFFCURVE",
"254 552 OFFCURVE",
"375 552 CURVE SMOOTH",
"492 552 OFFCURVE",
"512 474 OFFCURVE",
"579 474 CURVE SMOOTH",
"621 474 OFFCURVE",
"648 498 OFFCURVE",
"648 541 CURVE SMOOTH",
"648 569 OFFCURVE",
"637 592 OFFCURVE",
"616 615 CURVE SMOOTH",
"570 664 OFFCURVE",
"483 692 OFFCURVE",
"385 692 CURVE SMOOTH",
"150 692 OFFCURVE",
"25 535 OFFCURVE",
"25 331 CURVE SMOOTH",
"25 126 OFFCURVE",
"147 -12 OFFCURVE",
"389 -12 CURVE SMOOTH"
);
},
{
closed = 1;
nodes = (
"651 44 LINE",
"651 377 LINE",
"361 377 LINE",
"361 253 LINE",
"497 253 LINE",
"497 44 LINE"
);
}
);
userData = {
RMXScaler = {
height = 97.2;
keepStroke = 100;
monoWidth = 702;
};
};
width = 702;
}
);
leftMetricsKey = "=";
rightMetricsKey = "=";
unicode = 0047;
userData = {
RMXScaler = {
source = G;
};
};
},
{
color = 1;
glyphname = H;
lastChange = "2025-07-30 13:37:09 +0000";
layers = (
{
anchors = (
{
name = bottom;
position = "{347, 0}";
},
{
name = center;
position = "{347, 510}";
},
{
name = top;
position = "{347, 680}";
}
);
layerId = "D8D2F0D2-8948-448B-99CD-378CDFD0E0AE";
paths = (
{
closed = 1;
nodes = (
"596 0 LINE",
"596 680 LINE",
"536 680 LINE",
"536 0 LINE"
);
},
{
closed = 1;
nodes = (
"157 0 LINE",
"157 680 LINE",
"97 680 LINE",
"97 0 LINE"
);
},
{
closed = 1;
nodes = (
"562 342 LINE",
"562 398 LINE",
"125 398 LINE",
"125 342 LINE"
);
}
);
userData = {
RMXScaler = {
height = 97.2;
monoWidth = 692;
};
};
width = 692;
},
{
anchors = (
{
name = bottom;
position = "{351, 0}";
},
{
name = center;
position = "{351, 510}";
},
{
name = top;
position = "{351, 680}";
}
);
layerId = "569359BB-C357-4838-A4FF-29094E5B79C2";
paths = (
{
closed = 1;
nodes = (
"642 0 LINE",
"642 680 LINE",
"484 680 LINE",
"484 0 LINE"
);
},
{
closed = 1;
nodes = (
"217 0 LINE",
"217 680 LINE",
"60 680 LINE",
"60 0 LINE"
);
},
{
closed = 1;
nodes = (
"564 291 LINE",
"564 433 LINE",
"111 433 LINE",
"111 291 LINE"
);
}
);
userData = {
RMXScaler = {
height = 97.2;
keepStroke = 100;
monoWidth = 702;
};
};
width = 702;
}
);
leftMetricsKey = "=";
rightMetricsKey = "=";
unicode = 0048;
userData = {
RMXScaler = {
source = H;
};
};
},
{
glyphname = Hbar;
lastChange = "2025-07-30 13:33:28 +0000";
layers = (
{
components = (
{
name = H;
}
);
layerId = "D8D2F0D2-8948-448B-99CD-378CDFD0E0AE";
paths = (
{
closed = 1;
nodes = (
"4 528 LINE",
"758 528 LINE",
"758 580 LINE",
"4 580 LINE"
);
}
);
width = 762;
},
{
components = (
{
alignment = -1;
name = H;
transform = "{1, 0, 0, 1, 17, 0}";
}
);
layerId = "569359BB-C357-4838-A4FF-29094E5B79C2";
paths = (
{
closed = 1;
nodes = (
"2 518 LINE",
"775 518 LINE",
"775 608 LINE",
"2 608 LINE"
);
}
);
width = 777;
}
);
unicode = 0126;
},
{
color = 1;
glyphname = I;
lastChange = "2025-07-30 13:37:31 +0000";
layers = (
{
anchors = (
{
name = bottom;
position = "{349, 0}";
},
{
name = ogonek;
position = "{275, 0}";
},
{
name = top;
position = "{349, 680}";
},
{
name = topleft;
position = "{-273, 680}";
}
);
layerId = "D8D2F0D2-8948-448B-99CD-378CDFD0E0AE";
paths = (
{
closed = 1;
nodes = (
"502 0 LINE",
"502 680 LINE",
"191 680 LINE",
"191 0 LINE"
);
}
);
userData = {
RMXScaler = {
height = 97.2;
monoWidth = 692;
};
};
width = 692;
},
{
anchors = (
{
name = bottom;
position = "{353, 0}";
},
{
name = ogonek;
position = "{330, 0}";
},
{
name = top;
position = "{353, 680}";
},
{
name = topleft;
position = "{-260, 680}";
}
);
layerId = "569359BB-C357-4838-A4FF-29094E5B79C2";
paths = (
{
closed = 1;
nodes = (
"442 0 LINE",
"442 680 LINE",
"260 680 LINE",
"260 0 LINE"
);
},
{
closed = 1;
nodes = (
"630 538 LINE",
"630 680 LINE",
"72 680 LINE",
"72 538 LINE"
);
},
{
closed = 1;
nodes = (
"630 0 LINE",
"630 142 LINE",
"72 142 LINE",
"72 0 LINE"
);
}
);
userData = {
RMXScaler = {
height = 97.2;
keepStroke = 100;
monoWidth = 702;
};
};
width = 702;
}
);
leftMetricsKey = "=";
rightMetricsKey = "=";
unicode = 0049;
userData = {
RMXScaler = {
source = I;
};
};
},
{
color = 1;
glyphname = J;
lastChange = "2025-07-30 13:38:39 +0000";
layers = (
{
anchors = (
{
name = bottom;
position = "{412, 0}";
},
{
name = top;
position = "{412, 680}";
}
);
layerId = "D8D2F0D2-8948-448B-99CD-378CDFD0E0AE";
paths = (
{
closed = 1;
nodes = (
"429 -12 OFFCURVE",
"542 39 OFFCURVE",
"542 180 CURVE SMOOTH",
"542 680 LINE",
"456 680 LINE",
"456 180 LINE SMOOTH",
"456 82 OFFCURVE",
"377 44 OFFCURVE",
"287 44 CURVE SMOOTH",
"201 44 OFFCURVE",
"158 78 OFFCURVE",
"117 78 CURVE SMOOTH",
"96 78 OFFCURVE",
"81 69 OFFCURVE",
"81 54 CURVE SMOOTH",
"81 17 OFFCURVE",
"172 -12 OFFCURVE",
"281 -12 CURVE SMOOTH"
);
},
{
closed = 1;
nodes = (
"542 624 LINE",
"542 680 LINE",
"104 680 LINE",
"104 624 LINE"
);
}
);
userData = {
RMXScaler = {
height = 97.2;
monoWidth = 692;
};
};
width = 692;
},
{
associatedMasterId = "D8D2F0D2-8948-448B-99CD-378CDFD0E0AE";
layerId = "7F9D26FB-564C-4C0E-BC72-198310F9C550";
name = "Sep 11 21, 16:01";
paths = (
{
closed = 1;
nodes = (
"243 22 OFFCURVE",
"308 85 OFFCURVE",
"308 240 CURVE SMOOTH",
"308 780 LINE",
"242 780 LINE",
"242 238 LINE SMOOTH",
"242 118 OFFCURVE",
"197 76 OFFCURVE",
"46 51 CURVE",
"51 -10 LINE"
);
}
);
width = 418;
},
{
anchors = (
{
name = bottom;
position = "{406, 0}";
},
{
name = top;
position = "{406, 680}";
}
);
layerId = "569359BB-C357-4838-A4FF-29094E5B79C2";
paths = (
{
closed = 1;
nodes = (
"464 -12 OFFCURVE",
"592 59 OFFCURVE",
"592 216 CURVE SMOOTH",
"592 680 LINE",
"410 680 LINE",
"410 229 LINE SMOOTH",
"410 156 OFFCURVE",
"354 130 OFFCURVE",
"279 130 CURVE SMOOTH",
"200 130 OFFCURVE",
"176 160 OFFCURVE",
"131 160 CURVE SMOOTH",
"87 160 OFFCURVE",
"63 131 OFFCURVE",
"63 96 CURVE SMOOTH",
"63 26 OFFCURVE",
"156 -12 OFFCURVE",
"279 -12 CURVE SMOOTH"
);
},
{
closed = 1;
nodes = (
"592 538 LINE",
"592 680 LINE",
"92 680 LINE",
"92 538 LINE"
);
}
);
userData = {
RMXScaler = {
height = 97.2;
keepStroke = 100;
monoWidth = 702;
};
};
width = 702;
}
);
leftMetricsKey = "=";
rightMetricsKey = "=";
unicode = 004A;
userData = {
RMXScaler = {
source = J;
};
};
},
{
color = 1;
glyphname = K;
lastChange = "2025-07-30 13:37:09 +0000";
layers = (
{
anchors = (
{
name = bottom;
position = "{397, 0}";
},
{
name = top;
position = "{365, 680}";
}
);
layerId = "D8D2F0D2-8948-448B-99CD-378CDFD0E0AE";
paths = (
{
closed = 1;
nodes = (
"126 680 LINE",
"126 0 LINE",
"196 0 LINE",
"196 680 LINE"
);
},
{
closed = 1;
nodes = (
"552 0 LINE",
"649 0 LINE",
"243 372 LINE",
"243 335 LINE",
"595 625 LINE SMOOTH",
"608 636 OFFCURVE",
"616 646 OFFCURVE",
"616 660 CURVE SMOOTH",
"616 675 OFFCURVE",
"606 686 OFFCURVE",
"587 686 CURVE SMOOTH",
"571 686 OFFCURVE",
"559 678 OFFCURVE",
"543 665 CURVE SMOOTH",
"170 351 LINE"
);
}
);
userData = {
RMXScaler = {
height = 97.2;
monoWidth = 692;
};
};
width = 692;
},
{
associatedMasterId = "D8D2F0D2-8948-448B-99CD-378CDFD0E0AE";
layerId = "5BF3BBCE-0A7F-4DFF-BDCA-5EDE044CF258";
name = "13 juin 25 à 12:20";
paths = (
{
closed = 1;
nodes = (
"114 700 LINE",
"114 0 LINE",
"178 0 LINE",
"178 700 LINE"
);
},
{
closed = 1;
nodes = (
"587 700 LINE",
"507 700 LINE",
"127 297 LINE",
"160 249 LINE"
);
},
{
closed = 1;
nodes = (
"598 -4 OFFCURVE",
"604 30 OFFCURVE",
"583 58 CURVE SMOOTH",
"296 430 LINE",
"249 386 LINE",
"527 26 LINE SMOOTH",
"540 9 OFFCURVE",
"554 -4 OFFCURVE",
"571 -4 CURVE SMOOTH"
);
}
);
width = 636;
},
{
anchors = (
{
name = bottom;
position = "{357, 0}";
},
{
name = top;
position = "{327, 680}";
}
);
associatedMasterId = "D8D2F0D2-8948-448B-99CD-378CDFD0E0AE";
layerId = "24D714A5-190B-4824-9BEE-2760CA0E0B09";
name = "30 juil. 25 à 09:50";
paths = (
{
closed = 1;
nodes = (
"108 680 LINE",
"108 0 LINE",
"172 0 LINE",
"172 680 LINE"
);
},
{
closed = 1;
nodes = (
"578 625 LINE SMOOTH",
"590 636 OFFCURVE",
"598 647 OFFCURVE",
"598 660 CURVE SMOOTH",
"598 675 OFFCURVE",
"588 686 OFFCURVE",
"570 686 CURVE SMOOTH",
"557 686 OFFCURVE",
"546 680 OFFCURVE",
"531 665 CURVE SMOOTH",
"132 289 LINE",
"164 240 LINE"
);
},
{
closed = 1;
nodes = (
"638 0 LINE",
"296 418 LINE",
"249 375 LINE",
"556 0 LINE"
);
}
);
userData = {
RMXScaler = {
height = 97.2;
};
};
width = 660;
},
{
anchors = (
{
name = bottom;
position = "{375, 0}";
},
{
name = top;
position = "{366, 680}";
}
);
layerId = "569359BB-C357-4838-A4FF-29094E5B79C2";
name = Black;
paths = (
{
closed = 1;
nodes = (
"74 680 LINE",
"74 0 LINE",
"235 0 LINE",
"235 680 LINE"
);
},
{
closed = 1;
nodes = (
"479 0 LINE",
"685 0 LINE",
"353 389 LINE",
"324 282 LINE",
"597 539 LINE SMOOTH",
"626 566 OFFCURVE",
"637 591 OFFCURVE",
"637 618 CURVE SMOOTH",
"637 660 OFFCURVE",
"607 689 OFFCURVE",
"564 689 CURVE SMOOTH",
"531 689 OFFCURVE",
"505 671 OFFCURVE",
"477 643 CURVE SMOOTH",
"185 346 LINE"
);
}
);
userData = {
RMXScaler = {
height = 97.2;
keepStroke = 100;
monoWidth = 702;
};
};
width = 702;
}
);
leftMetricsKey = "=";
rightMetricsKey = "=";
unicode = 004B;
userData = {
RMXScaler = {
source = K;
};
};
},
{
color = 1;
glyphname = L;
lastChange = "2025-07-30 13:37:09 +0000";
layers = (
{
anchors = (
{
name = bottom;
position = "{410, 0}";
},
{
name = caron;
position = "{205, 486}";
},
{
name = center;
position = "{205, 340}";
},
{
name = top;
position = "{170, 680}";
}
);
layerId = "D8D2F0D2-8948-448B-99CD-378CDFD0E0AE";
paths = (
{
closed = 1;
nodes = (
"205 0 LINE",
"205 680 LINE",
"133 680 LINE",
"133 0 LINE"
);
},
{
closed = 1;
nodes = (
"669 0 LINE",
"669 56 LINE",
"167 56 LINE",
"167 0 LINE"
);
}
);
userData = {
RMXScaler = {
height = 97.2;
monoWidth = 692;
};
};
width = 692;
},
{
anchors = (
{
name = bottom;
position = "{397, 0}";
},
{
name = caron;
position = "{268, 486}";
},
{
name = center;
position = "{210, 340}";
},
{
name = top;
position = "{186, 680}";
}
);
layerId = "569359BB-C357-4838-A4FF-29094E5B79C2";
name = Black;
paths = (
{
closed = 1;
nodes = (
"268 0 LINE",
"268 680 LINE",
"99 680 LINE",
"99 0 LINE"
);
},
{
closed = 1;
nodes = (
"676 0 LINE",
"676 142 LINE",
"162 142 LINE",
"162 0 LINE"
);
}
);
userData = {
RMXScaler = {
height = 97.2;
keepStroke = 100;
monoWidth = 702;
};
};
width = 702;
}
);
leftMetricsKey = "=";
rightMetricsKey = "=";
unicode = 004C;
userData = {
RMXScaler = {
source = L;
};
};
},
{
color = 1;
glyphname = M;
lastChange = "2025-07-30 13:37:09 +0000";
layers = (
{
layerId = "D8D2F0D2-8948-448B-99CD-378CDFD0E0AE";
paths = (
{
closed = 1;
nodes = (
"329 256 LINE",
"367 256 LINE",
"146 658 LINE SMOOTH",
"135 678 OFFCURVE",
"124 692 OFFCURVE",
"105 692 CURVE SMOOTH",
"82 692 OFFCURVE",
"67 673 OFFCURVE",
"67 632 CURVE SMOOTH",
"67 0 LINE",
"116 0 LINE",
"116 644 LINE",
"97 641 LINE",
"347 186 LINE",
"596 641 LINE",
"577 644 LINE",
"577 0 LINE",
"626 0 LINE",
"626 632 LINE SMOOTH",
"626 672 OFFCURVE",
"611 692 OFFCURVE",
"590 692 CURVE SMOOTH",
"573 692 OFFCURVE",
"561 680 OFFCURVE",
"549 658 CURVE SMOOTH"
);
}
);
userData = {
RMXScaler = {
height = 97.2;
monoWidth = 692;
};
};
width = 692;
},
{
layerId = "569359BB-C357-4838-A4FF-29094E5B79C2";
paths = (
{
closed = 1;
nodes = (
"331 357 LINE",
"372 357 LINE",
"224 618 LINE SMOOTH",
"193 673 OFFCURVE",
"166 692 OFFCURVE",
"123 692 CURVE SMOOTH",
"65 692 OFFCURVE",
"32 650 OFFCURVE",
"32 569 CURVE SMOOTH",
"32 0 LINE",
"175 0 LINE",
"175 497 LINE",
"140 498 LINE",
"352 130 LINE",
"563 498 LINE",
"528 497 LINE",
"528 0 LINE",
"671 0 LINE",
"671 569 LINE SMOOTH",
"671 649 OFFCURVE",
"638 692 OFFCURVE",
"580 692 CURVE SMOOTH",
"540 692 OFFCURVE",
"512 675 OFFCURVE",
"479 617 CURVE SMOOTH"
);
}
);
userData = {
RMXScaler = {
height = 97.2;
keepStroke = 100;
monoWidth = 702;
};
};
width = 702;
}
);
leftMetricsKey = "=";
rightMetricsKey = "=";
unicode = 004D;
userData = {
RMXScaler = {
source = M;
};
};
},
{
color = 1;
glyphname = N;
lastChange = "2025-07-30 13:37:09 +0000";
layers = (
{
anchors = (
{
name = bottom;
position = "{346, 0}";
},
{
name = top;
position = "{355, 680}";
}
);
layerId = "D8D2F0D2-8948-448B-99CD-378CDFD0E0AE";
paths = (
{
closed = 1;
nodes = (
"149 0 LINE",
"149 629 LINE",
"129 623 LINE",
"538 0 LINE",
"597 0 LINE",
"597 680 LINE",
"543 680 LINE",
"543 52 LINE",
"571 57 LINE",
"183 647 LINE SMOOTH",
"166 673 OFFCURVE",
"153 686 OFFCURVE",
"132 686 CURVE SMOOTH",
"108 686 OFFCURVE",
"95 669 OFFCURVE",
"95 636 CURVE SMOOTH",
"95 0 LINE"
);
}
);
userData = {
RMXScaler = {
height = 97.2;
monoWidth = 692;
};
};
width = 692;
},
{
anchors = (
{
name = bottom;
position = "{349, 0}";
},
{
name = top;
position = "{369, 680}";
}
);
layerId = "569359BB-C357-4838-A4FF-29094E5B79C2";
paths = (
{
closed = 1;
nodes = (
"206 0 LINE",
"206 521 LINE",
"149 515 LINE",
"487 0 LINE",
"646 0 LINE",
"646 680 LINE",
"498 680 LINE",
"498 161 LINE",
"564 166 LINE",
"274 611 LINE SMOOTH",
"242 660 OFFCURVE",
"215 689 OFFCURVE",
"162 689 CURVE SMOOTH",
"100 689 OFFCURVE",
"58 646 OFFCURVE",
"58 568 CURVE SMOOTH",
"58 0 LINE"
);
}
);
userData = {
RMXScaler = {
height = 97.2;
keepStroke = 100;
monoWidth = 702;
};
};
width = 702;
}
);
leftMetricsKey = "=";
rightMetricsKey = "=";
unicode = 004E;
userData = {
RMXScaler = {
source = N;
};
};
},
{
color = 1;
glyphname = O;
lastChange = "2025-07-30 13:37:09 +0000";
layers = (
{
anchors = (
{
name = bottom;
position = "{340, 0}";
},
{
name = center;
position = "{340, 360}";
},
{
name = ogonek;
position = "{615, 10}";
},
{
name = top;
position = "{348, 680}";
},
{
name = topleft;
position = "{16, 680}";
},
{
name = topright;
position = "{665, 680}";
}
);
layerId = "D8D2F0D2-8948-448B-99CD-378CDFD0E0AE";
paths = (
{
closed = 1;
nodes = (
"39 124 OFFCURVE",
"156 -12 OFFCURVE",
"343 -12 CURVE SMOOTH",
"536 -12 OFFCURVE",
"653 138 OFFCURVE",
"653 349 CURVE SMOOTH",
"653 555 OFFCURVE",
"536 692 OFFCURVE",
"349 692 CURVE SMOOTH",
"156 692 OFFCURVE",
"39 541 OFFCURVE",
"39 330 CURVE SMOOTH"
);
},
{
closed = 1;
nodes = (
"102 511 OFFCURVE",
"193 638 OFFCURVE",
"348 638 CURVE SMOOTH",
"495 638 OFFCURVE",
"590 521 OFFCURVE",
"590 347 CURVE SMOOTH",
"590 169 OFFCURVE",
"499 42 OFFCURVE",
"344 42 CURVE SMOOTH",
"197 42 OFFCURVE",
"102 157 OFFCURVE",
"102 332 CURVE SMOOTH"
);
}
);
userData = {
RMXScaler = {
height = 97.2;
monoWidth = 692;
};
};
width = 692;
},
{
anchors = (
{
name = bottom;
position = "{349, 0}";
},
{
name = center;
position = "{349, 360}";
},
{
name = ogonek;
position = "{629, 10}";
},
{
name = top;
position = "{352, 680}";
},
{
name = topleft;
position = "{17, 680}";
},
{
name = topright;
position = "{680, 680}";
}
);
layerId = "569359BB-C357-4838-A4FF-29094E5B79C2";
paths = (
{
closed = 1;
nodes = (
"18 130 OFFCURVE",
"138 -12 OFFCURVE",
"347 -12 CURVE SMOOTH",
"560 -12 OFFCURVE",
"684 139 OFFCURVE",
"684 348 CURVE SMOOTH",
"684 550 OFFCURVE",
"564 692 OFFCURVE",
"356 692 CURVE SMOOTH",
"143 692 OFFCURVE",
"18 540 OFFCURVE",
"18 332 CURVE SMOOTH"
);
},
{
closed = 1;
nodes = (
"182 463 OFFCURVE",
"246 549 OFFCURVE",
"353 549 CURVE SMOOTH",
"456 549 OFFCURVE",
"521 470 OFFCURVE",
"521 344 CURVE SMOOTH",
"521 218 OFFCURVE",
"456 131 OFFCURVE",
"350 131 CURVE SMOOTH",
"247 131 OFFCURVE",
"182 210 OFFCURVE",
"182 336 CURVE SMOOTH"
);
}
);
userData = {
RMXScaler = {
height = 97.2;
keepStroke = 100;
monoWidth = 702;
};
};
width = 702;
}
);
leftMetricsKey = "=";
rightMetricsKey = "=";
unicode = 004F;
userData = {
RMXScaler = {
source = O;
};
};
},
{
glyphname = Oslash;
lastChange = "2025-07-30 13:33:28 +0000";
layers = (
{
components = (
{
name = O;
}
);
layerId = "D8D2F0D2-8948-448B-99CD-378CDFD0E0AE";
paths = (
{
closed = 1;
nodes = (
"129 0 LINE",
"722 700 LINE",
"649 700 LINE",
"56 0 LINE"
);
}
);
width = 778;
},
{
components = (
{
alignment = -1;
name = O;
transform = "{1, 0, 0, 1, 3, 0}";
}
);
layerId = "569359BB-C357-4838-A4FF-29094E5B79C2";
paths = (
{
closed = 1;
nodes = (
"151 0 LINE",
"733 700 LINE",
"614 700 LINE",
"31 0 LINE"
);
}
);
width = 768;
}
);
leftMetricsKey = "=O";
rightMetricsKey = "=O";
unicode = 00D8;
},
{
color = 1;
glyphname = P;
lastChange = "2025-07-30 13:37:09 +0000";
layers = (
{
layerId = "D8D2F0D2-8948-448B-99CD-378CDFD0E0AE";
paths = (
{
closed = 1;
nodes = (
"382 298 LINE SMOOTH",
"559 298 OFFCURVE",
"647 374 OFFCURVE",
"647 495 CURVE SMOOTH",
"647 613 OFFCURVE",
"562 680 OFFCURVE",
"378 680 CURVE SMOOTH",
"144 680 LINE",
"144 624 LINE",
"378 624 LINE SMOOTH",
"515 624 OFFCURVE",
"577 581 OFFCURVE",
"577 494 CURVE SMOOTH",
"577 406 OFFCURVE",
"515 354 OFFCURVE",
"378 354 CURVE SMOOTH",
"144 354 LINE",
"144 298 LINE"
);
},
{
closed = 1;
nodes = (
"177 0 LINE",
"177 680 LINE",
"113 680 LINE",
"113 0 LINE"
);
}
);
userData = {
RMXScaler = {
height = 97.2;
monoWidth = 692;
};
};
width = 692;
},
{
layerId = "569359BB-C357-4838-A4FF-29094E5B79C2";
paths = (
{
closed = 1;
nodes = (
"383 232 LINE SMOOTH",
"571 232 OFFCURVE",
"676 323 OFFCURVE",
"676 463 CURVE SMOOTH",
"676 598 OFFCURVE",
"577 680 OFFCURVE",
"380 680 CURVE SMOOTH",
"171 680 LINE",
"171 543 LINE",
"368 543 LINE SMOOTH",
"467 543 OFFCURVE",
"505 515 OFFCURVE",
"505 459 CURVE SMOOTH",
"505 400 OFFCURVE",
"465 369 OFFCURVE",
"368 369 CURVE SMOOTH",
"171 369 LINE",
"171 232 LINE"
);
},
{
closed = 1;
nodes = (
"236 0 LINE",
"236 680 LINE",
"74 680 LINE",
"74 0 LINE"
);
}
);
userData = {
RMXScaler = {
height = 97.2;
keepStroke = 100;
monoWidth = 702;
};
};
width = 702;
}
);
leftMetricsKey = "=";
rightMetricsKey = "=";
unicode = 0050;
userData = {
RMXScaler = {
source = P;
};
};
},
{
color = 4;
glyphname = Thorn;
lastChange = "2025-07-30 13:33:28 +0000";
layers = (
{
layerId = "D8D2F0D2-8948-448B-99CD-378CDFD0E0AE";
paths = (
{
closed = 1;
nodes = (
"371 175 LINE SMOOTH",
"544 175 OFFCURVE",
"630 255 OFFCURVE",
"630 379 CURVE SMOOTH",
"630 501 OFFCURVE",
"547 570 OFFCURVE",
"367 570 CURVE SMOOTH",
"138 570 LINE",
"138 512 LINE",
"367 512 LINE SMOOTH",
"501 512 OFFCURVE",
"562 468 OFFCURVE",
"562 378 CURVE SMOOTH",
"562 287 OFFCURVE",
"501 233 OFFCURVE",
"367 233 CURVE SMOOTH",
"138 233 LINE",
"138 175 LINE"
);
},
{
closed = 1;
nodes = (
"171 0 LINE",
"171 700 LINE",
"108 700 LINE",
"108 0 LINE"
);
}
);
width = 672;
},
{
layerId = "569359BB-C357-4838-A4FF-29094E5B79C2";
paths = (
{
closed = 1;
nodes = (
"371 140 LINE SMOOTH",
"555 140 OFFCURVE",
"658 232 OFFCURVE",
"658 375 CURVE SMOOTH",
"658 514 OFFCURVE",
"561 598 OFFCURVE",
"369 598 CURVE SMOOTH",
"165 598 LINE",
"165 461 LINE",
"354 461 LINE SMOOTH",
"450 461 OFFCURVE",
"489 431 OFFCURVE",
"489 372 CURVE SMOOTH",
"489 310 OFFCURVE",
"448 277 OFFCURVE",
"354 277 CURVE SMOOTH",
"165 277 LINE",
"165 140 LINE"
);
},
{
closed = 1;
nodes = (
"229 0 LINE",
"229 700 LINE",
"69 700 LINE",
"69 0 LINE"
);
}
);
width = 680;
}
);
leftMetricsKey = "=H";
rightMetricsKey = "=P";
unicode = 00DE;
},
{
color = 1;
glyphname = Q;
lastChange = "2025-07-30 13:37:09 +0000";
layers = (
{
anchors = (
{
name = bottom;
position = "{341, 0}";
},
{
name = center;
position = "{341, 360}";
},
{
name = ogonek;
position = "{614, 10}";
},
{
name = top;
position = "{348, 680}";
},
{
name = topleft;
position = "{19, 680}";
},
{
name = topright;
position = "{663, 680}";
}
);
layerId = "D8D2F0D2-8948-448B-99CD-378CDFD0E0AE";
paths = (
{
closed = 1;
nodes = (
"388 -130 OFFCURVE",
"454 -175 OFFCURVE",
"522 -175 CURVE SMOOTH",
"560 -175 OFFCURVE",
"577 -160 OFFCURVE",
"577 -140 CURVE SMOOTH",
"577 -126 OFFCURVE",
"569 -112 OFFCURVE",
"530 -112 CURVE SMOOTH",
"497 -112 OFFCURVE",
"449 -107 OFFCURVE",
"406 8 CURVE",
"345 23 LINE"
);
},
{
closed = 1;
nodes = (
"26 124 OFFCURVE",
"133 -12 OFFCURVE",
"304 -12 CURVE SMOOTH",
"481 -12 OFFCURVE",
"588 138 OFFCURVE",
"588 349 CURVE SMOOTH",
"588 555 OFFCURVE",
"481 692 OFFCURVE",
"310 692 CURVE SMOOTH",
"133 692 OFFCURVE",
"26 541 OFFCURVE",
"26 330 CURVE SMOOTH"
);
},
{
closed = 1;
nodes = (
"84 511 OFFCURVE",
"167 638 OFFCURVE",
"309 638 CURVE SMOOTH",
"443 638 OFFCURVE",
"530 521 OFFCURVE",
"530 347 CURVE SMOOTH",
"530 169 OFFCURVE",
"447 42 OFFCURVE",
"305 42 CURVE SMOOTH",
"171 42 OFFCURVE",
"84 157 OFFCURVE",
"84 332 CURVE SMOOTH"
);
}
);
userData = {
RMXScaler = {
height = 97.2;
monoWidth = 692;
};
};
width = 692;
},
{
anchors = (
{
name = bottom;
position = "{383, 0}";
},
{
name = center;
position = "{383, 370}";
},
{
name = ogonek;
position = "{681, 10}";
},
{
name = top;
position = "{391, 700}";
},
{
name = topleft;
position = "{31, 700}";
},
{
name = topright;
position = "{735, 700}";
}
);
associatedMasterId = "D8D2F0D2-8948-448B-99CD-378CDFD0E0AE";
layerId = "1116F57D-1597-4A87-B0BE-48751E6518AE";
name = "18 juin 25 à 20:43";
paths = (
{
closed = 1;
nodes = (
"663 -81 OFFCURVE",
"663 -64 OFFCURVE",
"648 -46 CURVE SMOOTH",
"543 83 LINE",
"499 48 LINE",
"605 -83 LINE SMOOTH",
"619 -101 OFFCURVE",
"635 -105 OFFCURVE",
"649 -93 CURVE SMOOTH"
);
},
{
closed = 1;
nodes = (
"56 128 OFFCURVE",
"183 -12 OFFCURVE",
"386 -12 CURVE SMOOTH",
"595 -12 OFFCURVE",
"722 142 OFFCURVE",
"722 359 CURVE SMOOTH",
"722 571 OFFCURVE",
"595 712 OFFCURVE",
"392 712 CURVE SMOOTH",
"183 712 OFFCURVE",
"56 557 OFFCURVE",
"56 340 CURVE SMOOTH"
);
},
{
closed = 1;
nodes = (
"124 525 OFFCURVE",
"223 656 OFFCURVE",
"391 656 CURVE SMOOTH",
"551 656 OFFCURVE",
"654 537 OFFCURVE",
"654 358 CURVE SMOOTH",
"654 175 OFFCURVE",
"555 44 OFFCURVE",
"387 44 CURVE SMOOTH",
"227 44 OFFCURVE",
"124 161 OFFCURVE",
"124 342 CURVE SMOOTH"
);
}
);
width = 744;
},
{
anchors = (
{
name = bottom;
position = "{345, 0}";
},
{
name = center;
position = "{345, 360}";
},
{
name = ogonek;
position = "{624, 10}";
},
{
name = top;
position = "{348, 680}";
},
{
name = topleft;
position = "{15, 680}";
},
{
name = topright;
position = "{675, 680}";
}
);
layerId = "569359BB-C357-4838-A4FF-29094E5B79C2";
paths = (
{
closed = 1;
nodes = (
"349 -130 OFFCURVE",
"424 -189 OFFCURVE",
"513 -189 CURVE SMOOTH",
"579 -189 OFFCURVE",
"612 -157 OFFCURVE",
"612 -112 CURVE SMOOTH",
"612 -73 OFFCURVE",
"585 -49 OFFCURVE",
"540 -49 CURVE SMOOTH",
"508 -49 OFFCURVE",
"476 -52 OFFCURVE",
"453 38 CURVE",
"305 34 LINE"
);
},
{
closed = 1;
nodes = (
"8 130 OFFCURVE",
"121 -12 OFFCURVE",
"318 -12 CURVE SMOOTH",
"519 -12 OFFCURVE",
"636 139 OFFCURVE",
"636 348 CURVE SMOOTH",
"636 550 OFFCURVE",
"523 692 OFFCURVE",
"327 692 CURVE SMOOTH",
"126 692 OFFCURVE",
"8 540 OFFCURVE",
"8 332 CURVE SMOOTH"
);
},
{
closed = 1;
nodes = (
"168 462 OFFCURVE",
"226 549 OFFCURVE",
"324 549 CURVE SMOOTH",
"418 549 OFFCURVE",
"477 470 OFFCURVE",
"477 344 CURVE SMOOTH",
"477 219 OFFCURVE",
"418 131 OFFCURVE",
"321 131 CURVE SMOOTH",
"227 131 OFFCURVE",
"168 210 OFFCURVE",
"168 336 CURVE SMOOTH"
);
}
);
userData = {
RMXScaler = {
height = 97.2;
keepStroke = 100;
monoWidth = 702;
};
};
width = 702;
}
);
leftMetricsKey = "=";
rightMetricsKey = "=";
unicode = 0051;
userData = {
RMXScaler = {
source = Q;
};
};
},
{
color = 1;
glyphname = R;
lastChange = "2025-07-30 13:37:09 +0000";
layers = (
{
anchors = (
{
name = bottom;
position = "{363, 0}";
},
{
name = top;
position = "{343, 680}";
}
);
layerId = "D8D2F0D2-8948-448B-99CD-378CDFD0E0AE";
paths = (
{
closed = 1;
nodes = (
"633 0 LINE",
"557 143 OFFCURVE",
"670 351 OFFCURVE",
"410 351 CURVE SMOOTH",
"144 351 LINE",
"144 314 LINE",
"397 314 LINE SMOOTH",
"581 314 OFFCURVE",
"515 109 OFFCURVE",
"560 0 CURVE"
);
},
{
closed = 1;
nodes = (
"173 0 LINE",
"173 680 LINE",
"109 680 LINE",
"109 0 LINE"
);
},
{
closed = 1;
nodes = (
"371 331 LINE SMOOTH",
"544 331 OFFCURVE",
"631 386 OFFCURVE",
"631 504 CURVE SMOOTH",
"631 623 OFFCURVE",
"548 680 OFFCURVE",
"371 680 CURVE SMOOTH",
"141 680 LINE",
"141 624 LINE",
"371 624 LINE SMOOTH",
"506 624 OFFCURVE",
"565 590 OFFCURVE",
"565 502 CURVE SMOOTH",
"565 414 OFFCURVE",
"506 370 OFFCURVE",
"371 370 CURVE SMOOTH",
"141 370 LINE",
"141 331 LINE"
);
}
);
userData = {
RMXScaler = {
height = 97.2;
monoWidth = 692;
};
};
width = 692;
},
{
associatedMasterId = "D8D2F0D2-8948-448B-99CD-378CDFD0E0AE";
layerId = "F3DD9A56-9DCF-4FE3-A9DF-BA078B253229";
name = "14 juin 25 à 00:12";
paths = (
{
closed = 1;
nodes = (
"629 0 OFFCURVE",
"634 20 OFFCURVE",
"620 49 CURVE SMOOTH",
"465 362 LINE",
"399 361 LINE",
"562 26 LINE SMOOTH",
"570 9 OFFCURVE",
"582 0 OFFCURVE",
"601 0 CURVE SMOOTH"
);
},
{
closed = 1;
nodes = (
"363 325 LINE SMOOTH",
"534 325 OFFCURVE",
"632 395 OFFCURVE",
"632 519 CURVE SMOOTH",
"632 641 OFFCURVE",
"537 700 OFFCURVE",
"363 700 CURVE SMOOTH",
"144 700 LINE",
"144 643 LINE",
"363 643 LINE SMOOTH",
"497 643 OFFCURVE",
"566 608 OFFCURVE",
"566 518 CURVE SMOOTH",
"566 427 OFFCURVE",
"497 382 OFFCURVE",
"363 382 CURVE SMOOTH",
"144 382 LINE",
"144 325 LINE"
);
},
{
closed = 1;
nodes = (
"177 0 LINE",
"177 700 LINE",
"114 700 LINE",
"114 0 LINE"
);
}
);
width = 693;
},
{
associatedMasterId = "D8D2F0D2-8948-448B-99CD-378CDFD0E0AE";
layerId = "14ACF93A-BFCE-4CBA-94DB-5168590F88CC";
name = "18 juin 25 à 19:59";
paths = (
{
closed = 1;
nodes = (
"644 0 LINE",
"465 362 LINE",
"399 361 LINE",
"575 0 LINE"
);
},
{
closed = 1;
nodes = (
"374 325 LINE SMOOTH",
"545 325 OFFCURVE",
"633 395 OFFCURVE",
"633 519 CURVE SMOOTH",
"633 641 OFFCURVE",
"548 700 OFFCURVE",
"374 700 CURVE SMOOTH",
"145 700 LINE",
"145 643 LINE",
"374 643 LINE SMOOTH",
"508 643 OFFCURVE",
"567 608 OFFCURVE",
"567 518 CURVE SMOOTH",
"567 427 OFFCURVE",
"508 382 OFFCURVE",
"374 382 CURVE SMOOTH",
"145 382 LINE",
"145 325 LINE"
);
},
{
closed = 1;
nodes = (
"178 0 LINE",
"178 700 LINE",
"114 700 LINE",
"114 0 LINE"
);
}
);
width = 694;
},
{
anchors = (
{
name = bottom;
position = "{363, 0}";
},
{
name = top;
position = "{337, 680}";
}
);
layerId = "569359BB-C357-4838-A4FF-29094E5B79C2";
paths = (
{
closed = 1;
nodes = (
"674 0 LINE",
"599 141 OFFCURVE",
"709 333 OFFCURVE",
"445 332 CURVE SMOOTH",
"204 331 LINE",
"204 250 LINE",
"367 250 LINE SMOOTH",
"507 250 OFFCURVE",
"452 87 OFFCURVE",
"492 0 CURVE"
);
},
{
closed = 1;
nodes = (
"232 0 LINE",
"232 680 LINE",
"71 680 LINE",
"71 0 LINE"
);
},
{
closed = 1;
nodes = (
"373 292 LINE SMOOTH",
"560 292 OFFCURVE",
"664 345 OFFCURVE",
"664 478 CURVE SMOOTH",
"664 608 OFFCURVE",
"566 680 OFFCURVE",
"373 680 CURVE SMOOTH",
"168 680 LINE",
"168 543 LINE",
"364 543 LINE SMOOTH",
"460 543 OFFCURVE",
"495 519 OFFCURVE",
"495 464 CURVE SMOOTH",
"495 409 OFFCURVE",
"458 381 OFFCURVE",
"364 381 CURVE SMOOTH",
"168 381 LINE",
"168 292 LINE"
);
}
);
userData = {
RMXScaler = {
height = 97.2;
keepStroke = 100;
monoWidth = 702;
};
};
width = 702;
}
);
leftMetricsKey = "=";
rightMetricsKey = "=";
unicode = 0052;
userData = {
RMXScaler = {
source = R;
};
};
},
{
color = 1;
glyphname = S;
lastChange = "2025-07-30 13:37:09 +0000";
layers = (
{
associatedMasterId = "D8D2F0D2-8948-448B-99CD-378CDFD0E0AE";
layerId = "9BF5987E-DBA8-4C28-99DD-D78EF1ED3B67";
name = "Aug 25 21, 21:55";
paths = (
{
closed = 1;
nodes = (
"99 55 OFFCURVE",
"190 -10 OFFCURVE",
"330 -10 CURVE SMOOTH",
"485 -10 OFFCURVE",
"588 71 OFFCURVE",
"588 197 CURVE SMOOTH",
"588 458 OFFCURVE",
"154 384 OFFCURVE",
"154 588 CURVE SMOOTH",
"154 659 OFFCURVE",
"206 734 OFFCURVE",
"331 734 CURVE SMOOTH",
"454 734 OFFCURVE",
"501 661 OFFCURVE",
"521 586 CURVE",
"583 606 LINE",
"549 723 OFFCURVE",
"463 790 OFFCURVE",
"331 790 CURVE SMOOTH",
"177 790 OFFCURVE",
"90 700 OFFCURVE",
"90 583 CURVE SMOOTH",
"90 322 OFFCURVE",
"524 396 OFFCURVE",
"524 192 CURVE SMOOTH",
"524 117 OFFCURVE",
"465 47 OFFCURVE",
"332 47 CURVE SMOOTH",
"222 47 OFFCURVE",
"156 97 OFFCURVE",
"123 194 CURVE",
"62 174 LINE"
);
}
);
width = 666;
},
{
associatedMasterId = "D8D2F0D2-8948-448B-99CD-378CDFD0E0AE";
guideLines = (
{
angle = 219.8056;
position = "{557, 855}";
}
);
layerId = "EB3AAA4A-06AE-4173-BE5A-F964DF34B32D";
name = "Sep 11 21, 16:51";
paths = (
{
closed = 1;
nodes = (
"133 31 OFFCURVE",
"221 -10 OFFCURVE",
"331 -10 CURVE SMOOTH",
"485 -10 OFFCURVE",
"588 71 OFFCURVE",
"588 197 CURVE SMOOTH",
"588 458 OFFCURVE",
"154 384 OFFCURVE",
"154 587 CURVE SMOOTH",
"154 657 OFFCURVE",
"206 732 OFFCURVE",
"331 732 CURVE SMOOTH",
"413 732 OFFCURVE",
"472 700 OFFCURVE",
"529 616 CURVE",
"581 658 LINE",
"519 750 OFFCURVE",
"434 790 OFFCURVE",
"331 790 CURVE SMOOTH",
"176 790 OFFCURVE",
"90 700 OFFCURVE",
"90 583 CURVE SMOOTH",
"90 322 OFFCURVE",
"524 396 OFFCURVE",
"524 193 CURVE SMOOTH",
"524 118 OFFCURVE",
"465 48 OFFCURVE",
"333 48 CURVE SMOOTH",
"245 48 OFFCURVE",
"182 79 OFFCURVE",
"116 163 CURVE",
"64 122 LINE"
);
}
);
width = 666;
},
{
anchors = (
{
name = bottom;
position = "{346, 0}";
},
{
name = top;
position = "{357, 680}";
}
);
guideLines = (
{
angle = 219.8056;
position = "{567, 855}";
}
);
layerId = "D8D2F0D2-8948-448B-99CD-378CDFD0E0AE";
paths = (
{
closed = 1;
nodes = (
"521 -12 OFFCURVE",
"625 57 OFFCURVE",
"625 174 CURVE SMOOTH",
"625 425 OFFCURVE",
"151 317 OFFCURVE",
"151 506 CURVE SMOOTH",
"151 581 OFFCURVE",
"222 638 OFFCURVE",
"352 638 CURVE SMOOTH",
"516 638 OFFCURVE",
"516 548 OFFCURVE",
"565 548 CURVE SMOOTH",
"582 548 OFFCURVE",
"594 559 OFFCURVE",
"594 577 CURVE SMOOTH",
"594 595 OFFCURVE",
"583 610 OFFCURVE",
"566 625 CURVE SMOOTH",
"525 663 OFFCURVE",
"458 692 OFFCURVE",
"352 692 CURVE SMOOTH",
"176 692 OFFCURVE",
"81 613 OFFCURVE",
"81 503 CURVE SMOOTH",
"81 260 OFFCURVE",
"555 363 OFFCURVE",
"555 171 CURVE SMOOTH",
"555 101 OFFCURVE",
"491 42 OFFCURVE",
"340 42 CURVE SMOOTH",
"251 42 OFFCURVE",
"170 62 OFFCURVE",
"83 107 CURVE",
"83 49 LINE",
"149 10 OFFCURVE",
"240 -12 OFFCURVE",
"341 -12 CURVE SMOOTH"
);
}
);
userData = {
RMXScaler = {
height = 97.2;
monoWidth = 692;
};
};
width = 692;
},
{
associatedMasterId = "D8D2F0D2-8948-448B-99CD-378CDFD0E0AE";
guideLines = (
{
angle = 219.8056;
position = "{557, 855}";
}
);
layerId = "8BEF1A39-6AF8-4037-857F-BDD2B7F23ADE";
name = "12 juin 25 à 09:28";
paths = (
{
closed = 1;
nodes = (
"119 27 OFFCURVE",
"206 -11 OFFCURVE",
"320 -11 CURVE SMOOTH",
"466 -11 OFFCURVE",
"566 55 OFFCURVE",
"566 178 CURVE SMOOTH",
"566 432 OFFCURVE",
"140 336 OFFCURVE",
"140 529 CURVE SMOOTH",
"140 595 OFFCURVE",
"191 657 OFFCURVE",
"311 657 CURVE SMOOTH",
"395 657 OFFCURVE",
"454 626 OFFCURVE",
"510 547 CURVE",
"561 586 LINE",
"500 674 OFFCURVE",
"416 712 OFFCURVE",
"311 712 CURVE SMOOTH",
"161 712 OFFCURVE",
"79 636 OFFCURVE",
"79 525 CURVE SMOOTH",
"79 278 OFFCURVE",
"505 373 OFFCURVE",
"505 174 CURVE SMOOTH",
"505 100 OFFCURVE",
"447 44 OFFCURVE",
"322 44 CURVE SMOOTH",
"230 44 OFFCURVE",
"167 73 OFFCURVE",
"102 153 CURVE",
"51 114 LINE"
);
}
);
width = 632;
},
{
anchors = (
{
name = bottom;
position = "{296, 0}";
},
{
name = top;
position = "{306, 680}";
}
);
associatedMasterId = "D8D2F0D2-8948-448B-99CD-378CDFD0E0AE";
guideLines = (
{
angle = 219.8056;
position = "{567, 855}";
}
);
layerId = "B1157993-466D-470A-B5FF-4B3D51109D1A";
name = "15 juil. 25 à 17:02";
paths = (
{
closed = 1;
nodes = (
"452 -12 OFFCURVE",
"544 57 OFFCURVE",
"544 174 CURVE SMOOTH",
"544 425 OFFCURVE",
"123 317 OFFCURVE",
"123 506 CURVE SMOOTH",
"123 581 OFFCURVE",
"186 638 OFFCURVE",
"304 638 CURVE SMOOTH",
"436 638 OFFCURVE",
"452 567 OFFCURVE",
"492 567 CURVE SMOOTH",
"506 567 OFFCURVE",
"517 576 OFFCURVE",
"517 592 CURVE SMOOTH",
"517 629 OFFCURVE",
"462 692 OFFCURVE",
"312 692 CURVE SMOOTH",
"145 692 OFFCURVE",
"61 613 OFFCURVE",
"61 503 CURVE SMOOTH",
"61 260 OFFCURVE",
"482 363 OFFCURVE",
"482 171 CURVE SMOOTH",
"482 101 OFFCURVE",
"425 42 OFFCURVE",
"290 42 CURVE SMOOTH",
"212 42 OFFCURVE",
"133 62 OFFCURVE",
"56 107 CURVE",
"56 49 LINE",
"115 10 OFFCURVE",
"201 -12 OFFCURVE",
"291 -12 CURVE SMOOTH"
);
}
);
userData = {
RMXScaler = {
height = 97.2;
};
};
width = 592;
},
{
anchors = (
{
name = bottom;
position = "{296, 0}";
},
{
name = top;
position = "{306, 680}";
}
);
associatedMasterId = "D8D2F0D2-8948-448B-99CD-378CDFD0E0AE";
guideLines = (
{
angle = 219.8056;
position = "{567, 855}";
}
);
layerId = "43DD7FC8-C79F-48D9-9793-6BB385D9E135";
name = "16 juil. 25 à 14:24";
paths = (
{
closed = 1;
nodes = (
"452 -12 OFFCURVE",
"544 57 OFFCURVE",
"544 174 CURVE SMOOTH",
"544 425 OFFCURVE",
"123 317 OFFCURVE",
"123 506 CURVE SMOOTH",
"123 581 OFFCURVE",
"186 638 OFFCURVE",
"307 638 CURVE SMOOTH",
"462 638 OFFCURVE",
"448 548 OFFCURVE",
"491 548 CURVE SMOOTH",
"505 548 OFFCURVE",
"517 557 OFFCURVE",
"517 579 CURVE SMOOTH",
"517 633 OFFCURVE",
"442 692 OFFCURVE",
"307 692 CURVE SMOOTH",
"145 692 OFFCURVE",
"61 613 OFFCURVE",
"61 503 CURVE SMOOTH",
"61 260 OFFCURVE",
"482 363 OFFCURVE",
"482 171 CURVE SMOOTH",
"482 101 OFFCURVE",
"425 42 OFFCURVE",
"290 42 CURVE SMOOTH",
"212 42 OFFCURVE",
"133 62 OFFCURVE",
"56 107 CURVE",
"56 49 LINE",
"115 10 OFFCURVE",
"201 -12 OFFCURVE",
"291 -12 CURVE SMOOTH"
);
}
);
userData = {
RMXScaler = {
height = 97.2;
};
};
width = 592;
},
{
anchors = (
{
name = bottom;
position = "{349, 0}";
},
{
name = top;
position = "{360, 680}";
}
);
layerId = "569359BB-C357-4838-A4FF-29094E5B79C2";
paths = (
{
closed = 1;
nodes = (
"552 -12 OFFCURVE",
"659 75 OFFCURVE",
"659 203 CURVE SMOOTH",
"659 451 OFFCURVE",
"225 377 OFFCURVE",
"225 501 CURVE SMOOTH",
"225 541 OFFCURVE",
"267 572 OFFCURVE",
"346 572 CURVE SMOOTH",
"467 572 OFFCURVE",
"495 491 OFFCURVE",
"568 491 CURVE SMOOTH",
"611 491 OFFCURVE",
"638 518 OFFCURVE",
"638 556 CURVE SMOOTH",
"638 587 OFFCURVE",
"621 610 OFFCURVE",
"594 630 CURVE SMOOTH",
"542 669 OFFCURVE",
"465 692 OFFCURVE",
"361 692 CURVE SMOOTH",
"163 692 OFFCURVE",
"52 605 OFFCURVE",
"52 475 CURVE SMOOTH",
"52 225 OFFCURVE",
"486 304 OFFCURVE",
"486 178 CURVE SMOOTH",
"486 139 OFFCURVE",
"445 109 OFFCURVE",
"352 109 CURVE SMOOTH",
"262 109 OFFCURVE",
"162 142 OFFCURVE",
"59 204 CURVE",
"59 53 LINE",
"129 15 OFFCURVE",
"226 -12 OFFCURVE",
"343 -12 CURVE SMOOTH"
);
}
);
userData = {
RMXScaler = {
height = 97.2;
keepStroke = 100;
monoWidth = 702;
};
};
width = 702;
}
);
leftMetricsKey = "=";
rightMetricsKey = "=";
unicode = 0053;
userData = {
RMXScaler = {
source = S;
};
};
},
{
color = 1;
glyphname = T;
lastChange = "2025-07-30 13:37:09 +0000";
layers = (
{
anchors = (
{
name = bottom;
position = "{346, 0}";
},
{
name = center;
position = "{346, 340}";
},
{
name = top;
position = "{346, 680}";
}
);
layerId = "D8D2F0D2-8948-448B-99CD-378CDFD0E0AE";
paths = (
{
closed = 1;
nodes = (
"381 0 LINE",
"381 680 LINE",
"311 680 LINE",
"311 0 LINE"
);
},
{
closed = 1;
nodes = (
"665 624 LINE",
"665 680 LINE",
"27 680 LINE",
"27 624 LINE"
);
}
);
userData = {
RMXScaler = {
height = 97.2;
monoWidth = 692;
};
};
width = 692;
},
{
anchors = (
{
name = bottom;
position = "{351, 0}";
},
{
name = center;
position = "{351, 340}";
},
{
name = top;
position = "{350, 680}";
}
);
layerId = "569359BB-C357-4838-A4FF-29094E5B79C2";
paths = (
{
closed = 1;
nodes = (
"434 0 LINE",
"434 680 LINE",
"269 680 LINE",
"269 0 LINE"
);
},
{
closed = 1;
nodes = (
"680 538 LINE",
"680 680 LINE",
"23 680 LINE",
"23 538 LINE"
);
}
);
userData = {
RMXScaler = {
height = 97.2;
keepStroke = 100;
monoWidth = 702;
};
};
width = 702;
}
);
leftMetricsKey = "=";
rightMetricsKey = "=";
unicode = 0054;
userData = {
RMXScaler = {
source = T;
};
};
},
{
color = 1;
glyphname = U;
lastChange = "2025-07-30 13:37:09 +0000";
layers = (
{
anchors = (
{
name = bottom;
position = "{346, 0}";
},
{
name = ogonek;
position = "{395, 0}";
},
{
name = top;
position = "{346, 680}";
},
{
name = topright;
position = "{692, 680}";
}
);
layerId = "D8D2F0D2-8948-448B-99CD-378CDFD0E0AE";
paths = (
{
closed = 1;
nodes = (
"92 84 OFFCURVE",
"183 -12 OFFCURVE",
"346 -12 CURVE SMOOTH",
"517 -12 OFFCURVE",
"601 93 OFFCURVE",
"601 261 CURVE SMOOTH",
"601 680 LINE",
"539 680 LINE",
"539 263 LINE SMOOTH",
"539 134 OFFCURVE",
"482 44 OFFCURVE",
"346 44 CURVE SMOOTH",
"218 44 OFFCURVE",
"154 126 OFFCURVE",
"154 263 CURVE SMOOTH",
"154 680 LINE",
"92 680 LINE",
"92 261 LINE SMOOTH"
);
}
);
userData = {
RMXScaler = {
height = 97.2;
monoWidth = 692;
};
};
width = 692;
},
{
anchors = (
{
name = bottom;
position = "{351, 0}";
},
{
name = ogonek;
position = "{411, 0}";
},
{
name = top;
position = "{351, 680}";
},
{
name = topright;
position = "{681, 680}";
}
);
layerId = "569359BB-C357-4838-A4FF-29094E5B79C2";
paths = (
{
closed = 1;
nodes = (
"57 79 OFFCURVE",
"167 -11 OFFCURVE",
"351 -11 CURVE SMOOTH",
"543 -11 OFFCURVE",
"646 88 OFFCURVE",
"646 280 CURVE SMOOTH",
"646 680 LINE",
"487 680 LINE",
"487 284 LINE SMOOTH",
"487 193 OFFCURVE",
"446 133 OFFCURVE",
"351 133 CURVE SMOOTH",
"262 133 OFFCURVE",
"216 187 OFFCURVE",
"216 284 CURVE SMOOTH",
"216 680 LINE",
"57 680 LINE",
"57 280 LINE SMOOTH"
);
}
);
userData = {
RMXScaler = {
height = 97.2;
keepStroke = 100;
monoWidth = 702;
};
};
width = 702;
}
);
leftMetricsKey = "=";
rightMetricsKey = "=";
unicode = 0055;
userData = {
RMXScaler = {
source = U;
};
};
},
{
color = 1;
glyphname = V;
lastChange = "2025-07-30 13:37:09 +0000";
layers = (
{
layerId = "D8D2F0D2-8948-448B-99CD-378CDFD0E0AE";
paths = (
{
closed = 1;
nodes = (
"380 0 LINE",
"662 680 LINE",
"592 680 LINE",
"316 0 LINE"
);
},
{
closed = 1;
nodes = (
"375 0 LINE",
"100 680 LINE",
"29 680 LINE",
"311 0 LINE"
);
}
);
userData = {
RMXScaler = {
height = 97.2;
monoWidth = 692;
};
};
width = 692;
},
{
layerId = "569359BB-C357-4838-A4FF-29094E5B79C2";
paths = (
{
closed = 1;
nodes = (
"438 0 LINE",
"693 680 LINE",
"523 680 LINE",
"295 0 LINE"
);
},
{
closed = 1;
nodes = (
"415 0 LINE",
"181 680 LINE",
"9 680 LINE",
"265 0 LINE"
);
}
);
userData = {
RMXScaler = {
height = 97.2;
keepStroke = 100;
monoWidth = 702;
};
};
width = 702;
}
);
leftMetricsKey = "=";
rightMetricsKey = "=";
unicode = 0056;
userData = {
RMXScaler = {
source = V;
};
};
},
{
color = 1;
glyphname = W;
lastChange = "2025-07-30 13:37:45 +0000";
layers = (
{
anchors = (
{
name = bottom;
position = "{346, 0}";
},
{
name = top;
position = "{346, 500}";
}
);
layerId = "D8D2F0D2-8948-448B-99CD-378CDFD0E0AE";
paths = (
{
closed = 1;
nodes = (
"182 0 LINE",
"346 442 LINE",
"510 0 LINE",
"563 0 LINE",
"557 21 LINE",
"392 471 LINE SMOOTH",
"380 503 OFFCURVE",
"363 513 OFFCURVE",
"346 513 CURVE SMOOTH",
"329 513 OFFCURVE",
"312 503 OFFCURVE",
"300 471 CURVE SMOOTH",
"135 21 LINE",
"129 0 LINE"
);
},
{
closed = 1;
nodes = (
"176 0 LINE",
"50 680 LINE",
"-7 680 LINE",
"125 0 LINE"
);
},
{
closed = 1;
nodes = (
"567 0 LINE",
"699 680 LINE",
"642 680 LINE",
"515 0 LINE"
);
}
);
userData = {
RMXScaler = {
height = 97.2;
monoWidth = 692;
};
};
width = 692;
},
{
associatedMasterId = "D8D2F0D2-8948-448B-99CD-378CDFD0E0AE";
layerId = "4697C7CF-CB3F-4DA3-8F3E-379320C0A47F";
name = "Aug 15 21, 19:34";
paths = (
{
closed = 1;
nodes = (
"100 780 LINE",
"30 780 LINE",
"320 0 LINE",
"384 0 LINE"
);
},
{
closed = 1;
nodes = (
"390 0 LINE",
"680 780 LINE",
"612 780 LINE",
"328 0 LINE"
);
},
{
closed = 1;
nodes = (
"402 780 LINE",
"334 780 LINE",
"624 0 LINE",
"686 0 LINE"
);
},
{
closed = 1;
nodes = (
"694 0 LINE",
"984 780 LINE",
"914 780 LINE",
"630 0 LINE"
);
}
);
width = 1014;
},
{
anchors = (
{
name = bottom;
position = "{351, 0}";
},
{
name = top;
position = "{351, 540}";
}
);
layerId = "569359BB-C357-4838-A4FF-29094E5B79C2";
paths = (
{
closed = 1;
nodes = (
"241 0 LINE",
"351 339 LINE",
"462 0 LINE",
"565 0 LINE",
"567 85 LINE",
"435 480 LINE SMOOTH",
"417 534 OFFCURVE",
"388 552 OFFCURVE",
"351 552 CURVE SMOOTH",
"315 552 OFFCURVE",
"285 534 OFFCURVE",
"267 480 CURVE SMOOTH",
"136 85 LINE",
"138 0 LINE"
);
},
{
closed = 1;
nodes = (
"222 0 LINE",
"169 680 LINE",
"5 680 LINE",
"93 0 LINE"
);
},
{
closed = 1;
nodes = (
"609 0 LINE",
"697 680 LINE",
"533 680 LINE",
"481 0 LINE"
);
}
);
userData = {
RMXScaler = {
height = 97.2;
keepStroke = 100;
monoWidth = 702;
};
};
width = 702;
}
);
leftMetricsKey = "=";
rightMetricsKey = "=";
unicode = 0057;
userData = {
RMXScaler = {
source = W;
};
};
},
{
color = 1;
glyphname = X;
lastChange = "2025-07-30 13:37:09 +0000";
layers = (
{
layerId = "D8D2F0D2-8948-448B-99CD-378CDFD0E0AE";
paths = (
{
closed = 1;
nodes = (
"112 0 LINE",
"371 333 LINE",
"319 333 LINE",
"579 0 LINE",
"661 0 LINE",
"361 384 LINE",
"361 312 LINE",
"650 680 LINE",
"568 680 LINE",
"320 361 LINE",
"372 361 LINE",
"123 680 LINE",
"41 680 LINE",
"330 312 LINE",
"330 384 LINE",
"30 0 LINE"
);
}
);
userData = {
RMXScaler = {
height = 97.2;
monoWidth = 692;
};
};
width = 692;
},
{
layerId = "569359BB-C357-4838-A4FF-29094E5B79C2";
name = Black;
paths = (
{
closed = 1;
nodes = (
"197 0 LINE",
"400 318 LINE",
"301 318 LINE",
"504 0 LINE",
"691 0 LINE",
"440 381 LINE",
"440 307 LINE",
"687 680 LINE",
"500 680 LINE",
"302 368 LINE",
"401 368 LINE",
"202 680 LINE",
"15 680 LINE",
"262 307 LINE",
"262 381 LINE",
"11 0 LINE"
);
}
);
userData = {
RMXScaler = {
height = 97.2;
keepStroke = 100;
monoWidth = 702;
};
};
width = 702;
}
);
leftMetricsKey = "=";
rightMetricsKey = "=";
unicode = 0058;
userData = {
RMXScaler = {
source = X;
};
};
},
{
color = 1;
glyphname = Y;
lastChange = "2025-07-30 13:37:09 +0000";
layers = (
{
anchors = (
{
name = bottom;
position = "{346, 0}";
},
{
name = top;
position = "{346, 680}";
},
{
name = topleft;
position = "{24, 680}";
}
);
layerId = "D8D2F0D2-8948-448B-99CD-378CDFD0E0AE";
paths = (
{
closed = 1;
nodes = (
"668 680 LINE",
"587 680 LINE",
"316 346 LINE",
"375 319 LINE"
);
},
{
closed = 1;
nodes = (
"379 0 LINE",
"379 339 LINE",
"312 339 LINE",
"312 0 LINE"
);
},
{
closed = 1;
nodes = (
"375 346 LINE",
"104 680 LINE",
"23 680 LINE",
"315 319 LINE"
);
}
);
userData = {
RMXScaler = {
height = 97.2;
monoWidth = 692;
};
};
width = 692;
},
{
anchors = (
{
name = bottom;
position = "{350, 0}";
},
{
name = top;
position = "{350, 680}";
},
{
name = topleft;
position = "{9, 680}";
}
);
layerId = "569359BB-C357-4838-A4FF-29094E5B79C2";
name = Black;
paths = (
{
closed = 1;
nodes = (
"698 680 LINE",
"515 680 LINE",
"285 315 LINE",
"417 252 LINE"
);
},
{
closed = 1;
nodes = (
"431 0 LINE",
"431 364 LINE",
"271 364 LINE",
"271 0 LINE"
);
},
{
closed = 1;
nodes = (
"416 315 LINE",
"187 680 LINE",
"3 680 LINE",
"284 252 LINE"
);
}
);
userData = {
RMXScaler = {
height = 97.2;
keepStroke = 100;
monoWidth = 702;
};
};
width = 702;
}
);
leftMetricsKey = "=";
rightMetricsKey = "=";
unicode = 0059;
userData = {
RMXScaler = {
source = Y;
};
};
},
{
color = 1;
glyphname = Z;
lastChange = "2025-07-30 13:37:09 +0000";
layers = (
{
anchors = (
{
name = bottom;
position = "{346, 0}";
},
{
name = center;
position = "{346, 340}";
},
{
name = top;
position = "{338, 680}";
}
);
layerId = "D8D2F0D2-8948-448B-99CD-378CDFD0E0AE";
paths = (
{
closed = 1;
nodes = (
"627 0 LINE",
"627 56 LINE",
"92 56 LINE",
"112 25 LINE",
"616 636 LINE",
"550 654 LINE",
"77 81 LINE SMOOTH",
"60 60 OFFCURVE",
"55 47 OFFCURVE",
"55 35 CURVE SMOOTH",
"55 14 OFFCURVE",
"73 0 OFFCURVE",
"103 0 CURVE SMOOTH"
);
},
{
closed = 1;
nodes = (
"549 624 LINE",
"616 636 LINE",
"617 680 LINE",
"62 680 LINE",
"62 624 LINE"
);
}
);
userData = {
RMXScaler = {
height = 97.2;
monoWidth = 692;
};
};
width = 692;
},
{
associatedMasterId = "D8D2F0D2-8948-448B-99CD-378CDFD0E0AE";
layerId = "C56DC4C9-C929-48CB-B7AA-AF8358DA8E75";
name = "14 juin 25 à 00:06";
paths = (
{
closed = 1;
nodes = (
"566 0 LINE",
"566 56 LINE",
"99 56 LINE",
"119 18 LINE",
"529 642 LINE SMOOTH",
"549 673 OFFCURVE",
"533 700 OFFCURVE",
"494 700 CURVE SMOOTH",
"46 700 LINE",
"46 644 LINE",
"503 644 LINE",
"483 682 LINE",
"36 0 LINE"
);
}
);
width = 602;
},
{
anchors = (
{
name = bottom;
position = "{351, 0}";
},
{
name = center;
position = "{351, 340}";
},
{
name = top;
position = "{348, 680}";
}
);
layerId = "569359BB-C357-4838-A4FF-29094E5B79C2";
name = Black;
paths = (
{
closed = 1;
nodes = (
"649 0 LINE",
"649 142 LINE",
"217 142 LINE",
"229 120 LINE",
"638 562 LINE",
"469 595 LINE",
"83 178 LINE SMOOTH",
"52 145 OFFCURVE",
"43 115 OFFCURVE",
"43 89 CURVE SMOOTH",
"43 27 OFFCURVE",
"90 0 OFFCURVE",
"154 0 CURVE SMOOTH"
);
},
{
closed = 1;
nodes = (
"553 538 LINE",
"638 562 LINE",
"638 680 LINE",
"50 680 LINE",
"50 538 LINE"
);
}
);
userData = {
RMXScaler = {
height = 97.2;
keepStroke = 100;
monoWidth = 702;
};
};
width = 702;
}
);
leftMetricsKey = "=";
rightMetricsKey = "=";
unicode = 005A;
userData = {
RMXScaler = {
source = Z;
};
};
},
{
color = 3;
glyphname = G.ss02;
lastChange = "2025-07-30 13:33:28 +0000";
layers = (
{
anchors = (
{
name = bottom;
position = "{437, 0}";
},
{
name = top;
position = "{411, 680}";
}
);
layerId = "D8D2F0D2-8948-448B-99CD-378CDFD0E0AE";
paths = (
{
closed = 1;
nodes = (
"611 -12 OFFCURVE",
"703 101 OFFCURVE",
"693 351 CURVE",
"388 351 LINE",
"388 295 LINE",
"631 295 LINE",
"629 121 OFFCURVE",
"559 42 OFFCURVE",
"405 42 CURVE SMOOTH",
"215 42 OFFCURVE",
"124 163 OFFCURVE",
"124 336 CURVE SMOOTH",
"124 510 OFFCURVE",
"216 638 OFFCURVE",
"408 638 CURVE SMOOTH",
"571 638 OFFCURVE",
"582 543 OFFCURVE",
"626 543 CURVE SMOOTH",
"641 543 OFFCURVE",
"652 554 OFFCURVE",
"652 571 CURVE SMOOTH",
"652 588 OFFCURVE",
"641 604 OFFCURVE",
"624 620 CURVE SMOOTH",
"585 657 OFFCURVE",
"515 692 OFFCURVE",
"409 692 CURVE SMOOTH",
"180 692 OFFCURVE",
"56 541 OFFCURVE",
"56 332 CURVE SMOOTH",
"56 124 OFFCURVE",
"179 -12 OFFCURVE",
"405 -12 CURVE SMOOTH"
);
}
);
width = 750;
},
{
anchors = (
{
name = bottom;
position = "{422, 0}";
},
{
name = top;
position = "{398, 680}";
}
);
layerId = "569359BB-C357-4838-A4FF-29094E5B79C2";
paths = (
{
closed = 1;
nodes = (
"621 -12 OFFCURVE",
"724 106 OFFCURVE",
"706 377 CURVE",
"376 377 LINE",
"376 253 LINE",
"539 253 LINE",
"538 168 OFFCURVE",
"492 125 OFFCURVE",
"397 125 CURVE SMOOTH",
"265 125 OFFCURVE",
"198 202 OFFCURVE",
"198 336 CURVE SMOOTH",
"198 469 OFFCURVE",
"264 552 OFFCURVE",
"391 552 CURVE SMOOTH",
"513 552 OFFCURVE",
"533 474 OFFCURVE",
"602 474 CURVE SMOOTH",
"645 474 OFFCURVE",
"672 498 OFFCURVE",
"672 541 CURVE SMOOTH",
"672 569 OFFCURVE",
"660 593 OFFCURVE",
"639 615 CURVE SMOOTH",
"592 664 OFFCURVE",
"501 692 OFFCURVE",
"401 692 CURVE SMOOTH",
"159 692 OFFCURVE",
"30 535 OFFCURVE",
"30 331 CURVE SMOOTH",
"30 126 OFFCURVE",
"156 -12 OFFCURVE",
"397 -12 CURVE SMOOTH"
);
}
);
width = 740;
}
);
leftMetricsKey = "=O";
},
{
color = 3;
glyphname = M.ss02;
lastChange = "2025-07-30 13:33:28 +0000";
layers = (
{
layerId = "D8D2F0D2-8948-448B-99CD-378CDFD0E0AE";
paths = (
{
closed = 1;
nodes = (
"487 0 LINE",
"718 641 LINE",
"695 644 LINE",
"802 0 LINE",
"866 0 LINE",
"755 632 LINE SMOOTH",
"748 673 OFFCURVE",
"733 692 OFFCURVE",
"704 692 CURVE SMOOTH",
"681 692 OFFCURVE",
"666 680 OFFCURVE",
"658 658 CURVE SMOOTH",
"436 32 LINE",
"483 32 LINE",
"258 658 LINE SMOOTH",
"250 680 OFFCURVE",
"235 692 OFFCURVE",
"212 692 CURVE SMOOTH",
"183 692 OFFCURVE",
"168 673 OFFCURVE",
"161 632 CURVE SMOOTH",
"50 0 LINE",
"114 0 LINE",
"221 644 LINE",
"198 641 LINE",
"429 0 LINE"
);
}
);
width = 916;
},
{
layerId = "569359BB-C357-4838-A4FF-29094E5B79C2";
name = Black;
paths = (
{
closed = 1;
nodes = (
"548 0 LINE",
"722 509 LINE",
"692 509 LINE",
"759 0 LINE",
"925 0 LINE",
"833 569 LINE SMOOTH",
"821 648 OFFCURVE",
"780 692 OFFCURVE",
"716 692 CURVE SMOOTH",
"667 692 OFFCURVE",
"630 667 OFFCURVE",
"607 604 CURVE SMOOTH",
"456 185 LINE",
"505 185 LINE",
"353 604 LINE SMOOTH",
"330 667 OFFCURVE",
"293 692 OFFCURVE",
"243 692 CURVE SMOOTH",
"180 692 OFFCURVE",
"139 648 OFFCURVE",
"127 569 CURVE SMOOTH",
"34 0 LINE",
"200 0 LINE",
"267 509 LINE",
"238 509 LINE",
"412 0 LINE"
);
}
);
width = 960;
}
);
leftMetricsKey = "=W+20";
rightMetricsKey = "=|";
},
{
color = 3;
glyphname = R.ss02;
lastChange = "2025-07-30 13:33:28 +0000";
layers = (
{
layerId = "D8D2F0D2-8948-448B-99CD-378CDFD0E0AE";
paths = (
{
closed = 1;
nodes = (
"172 0 LINE",
"172 680 LINE",
"108 680 LINE",
"108 0 LINE"
);
},
{
closed = 1;
nodes = (
"369 314 LINE SMOOTH",
"541 314 OFFCURVE",
"628 386 OFFCURVE",
"628 504 CURVE SMOOTH",
"628 623 OFFCURVE",
"545 680 OFFCURVE",
"369 680 CURVE SMOOTH",
"140 680 LINE",
"140 624 LINE",
"369 624 LINE SMOOTH",
"503 624 OFFCURVE",
"562 590 OFFCURVE",
"562 502 CURVE SMOOTH",
"562 414 OFFCURVE",
"503 370 OFFCURVE",
"369 370 CURVE SMOOTH",
"140 370 LINE",
"140 314 LINE"
);
},
{
closed = 1;
nodes = (
"638 0 LINE",
"439 352 LINE",
"369 351 LINE",
"565 0 LINE"
);
}
);
width = 692;
},
{
layerId = "569359BB-C357-4838-A4FF-29094E5B79C2";
paths = (
{
closed = 1;
nodes = (
"229 0 LINE",
"229 680 LINE",
"69 680 LINE",
"69 0 LINE"
);
},
{
closed = 1;
nodes = (
"369 245 LINE SMOOTH",
"554 245 OFFCURVE",
"657 321 OFFCURVE",
"657 465 CURVE SMOOTH",
"657 607 OFFCURVE",
"560 680 OFFCURVE",
"369 680 CURVE SMOOTH",
"166 680 LINE",
"166 543 LINE",
"360 543 LINE SMOOTH",
"454 543 OFFCURVE",
"489 519 OFFCURVE",
"489 464 CURVE SMOOTH",
"489 409 OFFCURVE",
"452 381 OFFCURVE",
"360 381 CURVE SMOOTH",
"166 381 LINE",
"166 245 LINE"
);
},
{
closed = 1;
nodes = (
"679 0 LINE",
"486 342 LINE",
"318 328 LINE",
"492 0 LINE"
);
}
);
width = 710;
}
);
leftMetricsKey = "=H";
},
{
color = 3;
glyphname = E.ss04;
lastChange = "2025-07-30 13:33:28 +0000";
layers = (
{
anchors = (
{
name = bottom;
position = "{314, 0}";
},
{
name = ogonek;
position = "{505, 0}";
},
{
name = top;
position = "{360, 680}";
},
{
name = topleft;
position = "{14, 680}";
}
);
layerId = "D8D2F0D2-8948-448B-99CD-378CDFD0E0AE";
paths = (
{
closed = 1;
nodes = (
"586 0 LINE",
"586 56 LINE",
"256 56 LINE SMOOTH",
"194 56 OFFCURVE",
"172 78 OFFCURVE",
"172 140 CURVE SMOOTH",
"172 680 LINE",
"108 680 LINE",
"108 140 LINE SMOOTH",
"108 42 OFFCURVE",
"144 0 OFFCURVE",
"256 0 CURVE SMOOTH"
);
},
{
closed = 1;
nodes = (
"512 343 LINE SMOOTH",
"532 343 OFFCURVE",
"546 353 OFFCURVE",
"546 371 CURVE SMOOTH",
"546 389 OFFCURVE",
"532 399 OFFCURVE",
"512 399 CURVE SMOOTH",
"138 399 LINE",
"138 343 LINE"
);
},
{
closed = 1;
nodes = (
"586 624 LINE",
"586 680 LINE",
"138 680 LINE",
"138 624 LINE"
);
}
);
width = 654;
},
{
anchors = (
{
name = bottom;
position = "{308, 0}";
},
{
name = ogonek;
position = "{517, 0}";
},
{
name = top;
position = "{334, 680}";
},
{
name = topleft;
position = "{27, 680}";
}
);
layerId = "569359BB-C357-4838-A4FF-29094E5B79C2";
paths = (
{
closed = 1;
nodes = (
"578 0 LINE",
"578 137 LINE",
"284 137 LINE SMOOTH",
"245 137 OFFCURVE",
"229 152 OFFCURVE",
"229 191 CURVE SMOOTH",
"229 680 LINE",
"69 680 LINE",
"69 186 LINE SMOOTH",
"69 57 OFFCURVE",
"122 0 OFFCURVE",
"264 0 CURVE SMOOTH"
);
},
{
closed = 1;
nodes = (
"463 287 LINE SMOOTH",
"508 287 OFFCURVE",
"538 312 OFFCURVE",
"538 356 CURVE SMOOTH",
"538 400 OFFCURVE",
"508 424 OFFCURVE",
"463 424 CURVE SMOOTH",
"139 424 LINE",
"139 287 LINE"
);
},
{
closed = 1;
nodes = (
"578 543 LINE",
"578 680 LINE",
"195 680 LINE",
"195 543 LINE"
);
}
);
width = 623;
}
);
leftMetricsKey = "=H";
rightMetricsKey = "=E";
},
{
color = 3;
glyphname = L.ss04;
lastChange = "2025-07-30 13:33:28 +0000";
layers = (
{
anchors = (
{
name = bottom;
position = "{355, 0}";
},
{
name = caron;
position = "{172, 486}";
},
{
name = center;
position = "{172, 340}";
},
{
name = top;
position = "{141, 680}";
}
);
layerId = "D8D2F0D2-8948-448B-99CD-378CDFD0E0AE";
paths = (
{
closed = 1;
nodes = (
"586 0 LINE",
"586 56 LINE",
"256 56 LINE SMOOTH",
"194 56 OFFCURVE",
"172 78 OFFCURVE",
"172 140 CURVE SMOOTH",
"172 680 LINE",
"108 680 LINE",
"108 140 LINE SMOOTH",
"108 42 OFFCURVE",
"144 0 OFFCURVE",
"256 0 CURVE SMOOTH"
);
}
);
width = 596;
},
{
anchors = (
{
name = bottom;
position = "{332, 0}";
},
{
name = caron;
position = "{229, 486}";
},
{
name = center;
position = "{171, 340}";
},
{
name = top;
position = "{151, 680}";
}
);
layerId = "569359BB-C357-4838-A4FF-29094E5B79C2";
paths = (
{
closed = 1;
nodes = (
"578 0 LINE",
"578 142 LINE",
"291 142 LINE SMOOTH",
"247 142 OFFCURVE",
"229 160 OFFCURVE",
"229 204 CURVE SMOOTH",
"229 680 LINE",
"69 680 LINE",
"69 204 LINE SMOOTH",
"69 58 OFFCURVE",
"124 0 OFFCURVE",
"291 0 CURVE SMOOTH"
);
}
);
width = 588;
}
);
leftMetricsKey = "=H";
rightMetricsKey = "=L";
},
{
color = 3;
glyphname = R.ss04;
lastChange = "2025-07-30 13:33:28 +0000";
layers = (
{
anchors = (
{
name = bottom;
position = "{370, 0}";
},
{
name = top;
position = "{350, 680}";
}
);
layerId = "D8D2F0D2-8948-448B-99CD-378CDFD0E0AE";
paths = (
{
closed = 1;
nodes = (
"628 0 LINE",
"618 242 OFFCURVE",
"592 348 OFFCURVE",
"420 348 CURVE SMOOTH",
"127 348 LINE",
"127 312 LINE",
"399 312 LINE SMOOTH",
"518 312 OFFCURVE",
"555 241 OFFCURVE",
"564 0 CURVE"
);
},
{
closed = 1;
nodes = (
"172 0 LINE",
"172 680 LINE",
"108 680 LINE",
"108 0 LINE"
);
},
{
closed = 1;
nodes = (
"369 332 LINE SMOOTH",
"541 332 OFFCURVE",
"628 386 OFFCURVE",
"628 504 CURVE SMOOTH",
"628 623 OFFCURVE",
"545 680 OFFCURVE",
"369 680 CURVE SMOOTH",
"140 680 LINE",
"140 624 LINE",
"369 624 LINE SMOOTH",
"503 624 OFFCURVE",
"562 590 OFFCURVE",
"562 502 CURVE SMOOTH",
"562 414 OFFCURVE",
"503 370 OFFCURVE",
"369 370 CURVE SMOOTH",
"140 370 LINE",
"140 332 LINE"
);
}
);
width = 700;
},
{
associatedMasterId = "D8D2F0D2-8948-448B-99CD-378CDFD0E0AE";
layerId = "F3DD9A56-9DCF-4FE3-A9DF-BA078B253229";
name = "14 juin 25 à 00:12";
paths = (
{
closed = 1;
nodes = (
"629 0 OFFCURVE",
"634 20 OFFCURVE",
"620 49 CURVE SMOOTH",
"465 362 LINE",
"399 361 LINE",
"562 26 LINE SMOOTH",
"570 9 OFFCURVE",
"582 0 OFFCURVE",
"601 0 CURVE SMOOTH"
);
},
{
closed = 1;
nodes = (
"363 325 LINE SMOOTH",
"534 325 OFFCURVE",
"632 395 OFFCURVE",
"632 519 CURVE SMOOTH",
"632 641 OFFCURVE",
"537 700 OFFCURVE",
"363 700 CURVE SMOOTH",
"144 700 LINE",
"144 643 LINE",
"363 643 LINE SMOOTH",
"497 643 OFFCURVE",
"566 608 OFFCURVE",
"566 518 CURVE SMOOTH",
"566 427 OFFCURVE",
"497 382 OFFCURVE",
"363 382 CURVE SMOOTH",
"144 382 LINE",
"144 325 LINE"
);
},
{
closed = 1;
nodes = (
"177 0 LINE",
"177 700 LINE",
"114 700 LINE",
"114 0 LINE"
);
}
);
width = 693;
},
{
associatedMasterId = "D8D2F0D2-8948-448B-99CD-378CDFD0E0AE";
layerId = "7FECD315-0906-4281-93EF-B9446D1C647C";
name = "7 juil. 25 à 11:29";
paths = (
{
closed = 1;
nodes = (
"634 0 LINE",
"634 242 OFFCURVE",
"618 360 OFFCURVE",
"446 360 CURVE SMOOTH",
"133 360 LINE",
"130 324 LINE",
"425 324 LINE SMOOTH",
"544 324 OFFCURVE",
"571 241 OFFCURVE",
"570 0 CURVE"
);
},
{
closed = 1;
nodes = (
"178 0 LINE",
"178 700 LINE",
"114 700 LINE",
"114 0 LINE"
);
},
{
closed = 1;
nodes = (
"375 342 LINE SMOOTH",
"546 342 OFFCURVE",
"634 397 OFFCURVE",
"634 519 CURVE SMOOTH",
"634 641 OFFCURVE",
"551 700 OFFCURVE",
"375 700 CURVE SMOOTH",
"146 700 LINE",
"146 642 LINE",
"375 642 LINE SMOOTH",
"509 642 OFFCURVE",
"568 608 OFFCURVE",
"568 518 CURVE SMOOTH",
"568 427 OFFCURVE",
"509 382 OFFCURVE",
"375 382 CURVE SMOOTH",
"146 382 LINE",
"146 342 LINE"
);
}
);
width = 706;
},
{
anchors = (
{
name = bottom;
position = "{358, 0}";
},
{
name = top;
position = "{338, 680}";
}
);
layerId = "569359BB-C357-4838-A4FF-29094E5B79C2";
paths = (
{
closed = 1;
nodes = (
"655 0 LINE",
"641 251 OFFCURVE",
"610 331 OFFCURVE",
"395 331 CURVE SMOOTH",
"167 330 LINE",
"167 249 LINE",
"353 249 LINE SMOOTH",
"454 249 OFFCURVE",
"476 203 OFFCURVE",
"489 0 CURVE"
);
},
{
closed = 1;
nodes = (
"229 0 LINE",
"229 680 LINE",
"69 680 LINE",
"69 0 LINE"
);
},
{
closed = 1;
nodes = (
"369 293 LINE SMOOTH",
"554 293 OFFCURVE",
"657 345 OFFCURVE",
"657 478 CURVE SMOOTH",
"657 608 OFFCURVE",
"560 680 OFFCURVE",
"369 680 CURVE SMOOTH",
"166 680 LINE",
"166 543 LINE",
"357 543 LINE SMOOTH",
"453 543 OFFCURVE",
"489 519 OFFCURVE",
"489 464 CURVE SMOOTH",
"489 409 OFFCURVE",
"451 381 OFFCURVE",
"357 381 CURVE SMOOTH",
"166 381 LINE",
"166 293 LINE"
);
}
);
width = 695;
}
);
leftMetricsKey = "=H";
},
{
color = 1;
glyphname = a;
lastChange = "2025-07-30 13:42:41 +0000";
layers = (
{
anchors = (
{
name = bottom;
position = "{283, 0}";
},
{
name = ogonek;
position = "{497, 10}";
},
{
name = top;
position = "{283, 500}";
}
);
associatedMasterId = "D8D2F0D2-8948-448B-99CD-378CDFD0E0AE";
layerId = "177EFA5E-0B73-4A5D-89FF-252970CF8757";
name = "13 juin 25 à 16:09";
paths = (
{
closed = 1;
nodes = (
"457 28 OFFCURVE",
"445 80 OFFCURVE",
"445 138 CURVE SMOOTH",
"445 346 LINE SMOOTH",
"445 472 OFFCURVE",
"380 510 OFFCURVE",
"276 510 CURVE SMOOTH",
"166 510 OFFCURVE",
"82 468 OFFCURVE",
"82 421 CURVE SMOOTH",
"82 406 OFFCURVE",
"92 400 OFFCURVE",
"104 400 CURVE SMOOTH",
"140 400 OFFCURVE",
"157 456 OFFCURVE",
"271 456 CURVE SMOOTH",
"342 456 OFFCURVE",
"385 435 OFFCURVE",
"385 345 CURVE SMOOTH",
"385 127 LINE",
"392 108 LINE",
"392 67 OFFCURVE",
"401 21 OFFCURVE",
"410 0 CURVE",
"470 -1 LINE"
);
},
{
closed = 1;
nodes = (
"290 -10 OFFCURVE",
"372 25 OFFCURVE",
"400 119 CURVE",
"385 185 LINE",
"385 96 OFFCURVE",
"304 42 OFFCURVE",
"225 42 CURVE SMOOTH",
"156 42 OFFCURVE",
"130 83 OFFCURVE",
"130 129 CURVE SMOOTH",
"130 204 OFFCURVE",
"199 247 OFFCURVE",
"397 258 CURVE",
"396 311 LINE",
"164 298 OFFCURVE",
"66 230 OFFCURVE",
"66 124 CURVE SMOOTH",
"66 44 OFFCURVE",
"122 -10 OFFCURVE",
"215 -10 CURVE SMOOTH"
);
}
);
width = 544;
},
{
anchors = (
{
name = bottom;
position = "{283, 0}";
},
{
name = ogonek;
position = "{497, 10}";
},
{
name = top;
position = "{273, 500}";
}
);
associatedMasterId = "D8D2F0D2-8948-448B-99CD-378CDFD0E0AE";
layerId = "83E6AF74-7B2B-45D8-AB3F-2EEE1643F50A";
name = "20 juin 25 à 16:07";
paths = (
{
closed = 1;
nodes = (
"457 28 OFFCURVE",
"445 80 OFFCURVE",
"445 138 CURVE SMOOTH",
"445 346 LINE SMOOTH",
"445 472 OFFCURVE",
"380 512 OFFCURVE",
"276 512 CURVE SMOOTH",
"163 512 OFFCURVE",
"82 464 OFFCURVE",
"82 418 CURVE SMOOTH",
"82 402 OFFCURVE",
"92 396 OFFCURVE",
"104 396 CURVE SMOOTH",
"143 396 OFFCURVE",
"157 458 OFFCURVE",
"272 458 CURVE SMOOTH",
"342 458 OFFCURVE",
"385 435 OFFCURVE",
"385 345 CURVE SMOOTH",
"385 127 LINE",
"392 108 LINE",
"392 67 OFFCURVE",
"401 21 OFFCURVE",
"410 0 CURVE",
"470 -1 LINE"
);
},
{
closed = 1;
nodes = (
"290 -12 OFFCURVE",
"372 25 OFFCURVE",
"400 119 CURVE",
"385 185 LINE",
"385 96 OFFCURVE",
"304 40 OFFCURVE",
"225 40 CURVE SMOOTH",
"156 40 OFFCURVE",
"130 83 OFFCURVE",
"130 132 CURVE SMOOTH",
"130 214 OFFCURVE",
"199 257 OFFCURVE",
"397 228 CURVE",
"396 277 LINE",
"164 314 OFFCURVE",
"66 240 OFFCURVE",
"66 127 CURVE SMOOTH",
"66 44 OFFCURVE",
"122 -12 OFFCURVE",
"215 -12 CURVE SMOOTH"
);
}
);
width = 544;
},
{
anchors = (
{
name = bottom;
position = "{283, 0}";
},
{
name = ogonek;
position = "{497, 10}";
},
{
name = top;
position = "{273, 500}";
}
);
associatedMasterId = "D8D2F0D2-8948-448B-99CD-378CDFD0E0AE";
layerId = "9D77A725-9378-49ED-8BB0-89B19C168C4C";
name = "23 juin 25 à 19:42";
paths = (
{
closed = 1;
nodes = (
"457 28 OFFCURVE",
"445 80 OFFCURVE",
"445 138 CURVE SMOOTH",
"445 346 LINE SMOOTH",
"445 472 OFFCURVE",
"380 512 OFFCURVE",
"276 512 CURVE SMOOTH",
"163 512 OFFCURVE",
"82 464 OFFCURVE",
"82 418 CURVE SMOOTH",
"82 402 OFFCURVE",
"92 396 OFFCURVE",
"104 396 CURVE SMOOTH",
"143 396 OFFCURVE",
"157 458 OFFCURVE",
"274 458 CURVE SMOOTH",
"342 458 OFFCURVE",
"385 435 OFFCURVE",
"385 345 CURVE SMOOTH",
"385 127 LINE",
"392 108 LINE",
"392 67 OFFCURVE",
"401 21 OFFCURVE",
"410 0 CURVE",
"470 -1 LINE"
);
},
{
closed = 1;
nodes = (
"290 -12 OFFCURVE",
"372 25 OFFCURVE",
"400 119 CURVE",
"385 185 LINE",
"385 96 OFFCURVE",
"304 40 OFFCURVE",
"225 40 CURVE SMOOTH",
"156 40 OFFCURVE",
"130 83 OFFCURVE",
"130 129 CURVE SMOOTH",
"130 204 OFFCURVE",
"199 237 OFFCURVE",
"397 278 CURVE",
"396 327 LINE",
"164 284 OFFCURVE",
"66 230 OFFCURVE",
"66 124 CURVE SMOOTH",
"66 44 OFFCURVE",
"122 -12 OFFCURVE",
"215 -12 CURVE SMOOTH"
);
}
);
width = 544;
},
{
anchors = (
{
name = bottom;
position = "{283, 0}";
},
{
name = ogonek;
position = "{415, 0}";
},
{
name = top;
position = "{273, 500}";
}
);
associatedMasterId = "D8D2F0D2-8948-448B-99CD-378CDFD0E0AE";
layerId = "9C88C298-CC4A-4D08-A272-A8FF2D1EE471";
name = "25 juin 25 à 17:23";
paths = (
{
closed = 1;
nodes = (
"457 28 OFFCURVE",
"445 80 OFFCURVE",
"445 138 CURVE SMOOTH",
"445 346 LINE SMOOTH",
"445 472 OFFCURVE",
"375 512 OFFCURVE",
"271 512 CURVE SMOOTH",
"158 512 OFFCURVE",
"82 464 OFFCURVE",
"82 420 CURVE SMOOTH",
"82 402 OFFCURVE",
"94 395 OFFCURVE",
"107 395 CURVE SMOOTH",
"146 395 OFFCURVE",
"153 458 OFFCURVE",
"271 458 CURVE SMOOTH",
"342 458 OFFCURVE",
"385 435 OFFCURVE",
"385 345 CURVE SMOOTH",
"385 127 LINE",
"392 108 LINE",
"392 67 OFFCURVE",
"401 21 OFFCURVE",
"410 0 CURVE",
"470 -1 LINE"
);
},
{
closed = 1;
nodes = (
"290 -12 OFFCURVE",
"372 25 OFFCURVE",
"400 119 CURVE",
"385 185 LINE",
"385 96 OFFCURVE",
"304 40 OFFCURVE",
"225 40 CURVE SMOOTH",
"156 40 OFFCURVE",
"130 83 OFFCURVE",
"130 129 CURVE SMOOTH",
"130 204 OFFCURVE",
"199 250 OFFCURVE",
"397 249 CURVE",
"396 299 LINE",
"160 300 OFFCURVE",
"66 230 OFFCURVE",
"66 124 CURVE SMOOTH",
"66 44 OFFCURVE",
"122 -12 OFFCURVE",
"215 -12 CURVE SMOOTH"
);
}
);
width = 544;
},
{
anchors = (
{
name = bottom;
position = "{283, 0}";
},
{
name = ogonek;
position = "{497, 10}";
},
{
name = top;
position = "{273, 500}";
}
);
associatedMasterId = "D8D2F0D2-8948-448B-99CD-378CDFD0E0AE";
layerId = "2E198DA7-26FD-4627-91F0-D1389A50E3A0";
name = "25 juin 25 à 17:31";
paths = (
{
closed = 1;
nodes = (
"457 28 OFFCURVE",
"445 80 OFFCURVE",
"445 138 CURVE SMOOTH",
"445 366 LINE SMOOTH",
"445 472 OFFCURVE",
"375 512 OFFCURVE",
"271 512 CURVE SMOOTH",
"158 512 OFFCURVE",
"82 464 OFFCURVE",
"82 420 CURVE SMOOTH",
"82 402 OFFCURVE",
"94 395 OFFCURVE",
"107 395 CURVE SMOOTH",
"146 395 OFFCURVE",
"153 458 OFFCURVE",
"271 458 CURVE SMOOTH",
"342 458 OFFCURVE",
"385 435 OFFCURVE",
"385 378 CURVE SMOOTH",
"385 127 LINE",
"392 108 LINE",
"392 67 OFFCURVE",
"401 21 OFFCURVE",
"410 0 CURVE",
"470 -1 LINE"
);
},
{
closed = 1;
nodes = (
"297 -12 OFFCURVE",
"372 25 OFFCURVE",
"400 119 CURVE",
"385 185 LINE",
"385 96 OFFCURVE",
"308 38 OFFCURVE",
"230 38 CURVE SMOOTH",
"170 38 OFFCURVE",
"130 73 OFFCURVE",
"130 127 CURVE SMOOTH",
"130 248 OFFCURVE",
"328 215 OFFCURVE",
"385 283 CURVE",
"385 378 LINE",
"385 225 OFFCURVE",
"66 324 OFFCURVE",
"66 125 CURVE SMOOTH",
"66 38 OFFCURVE",
"126 -12 OFFCURVE",
"218 -12 CURVE SMOOTH"
);
}
);
width = 544;
},
{
anchors = (
{
name = bottom;
position = "{368, 0}";
},
{
name = ogonek;
position = "{534, 0}";
},
{
name = top;
position = "{356, 500}";
}
);
layerId = "D8D2F0D2-8948-448B-99CD-378CDFD0E0AE";
name = Thin;
paths = (
{
closed = 1;
nodes = (
"587 28 OFFCURVE",
"572 79 OFFCURVE",
"572 138 CURVE SMOOTH",
"572 358 LINE SMOOTH",
"572 472 OFFCURVE",
"476 512 OFFCURVE",
"348 512 CURVE SMOOTH",
"236 512 OFFCURVE",
"179 482 OFFCURVE",
"148 455 CURVE SMOOTH",
"126 436 OFFCURVE",
"119 420 OFFCURVE",
"119 408 CURVE SMOOTH",
"119 392 OFFCURVE",
"133 384 OFFCURVE",
"149 384 CURVE SMOOTH",
"198 384 OFFCURVE",
"198 458 OFFCURVE",
"348 458 CURVE SMOOTH",
"433 458 OFFCURVE",
"496 435 OFFCURVE",
"496 358 CURVE SMOOTH",
"496 127 LINE",
"505 108 LINE",
"505 67 OFFCURVE",
"516 21 OFFCURVE",
"528 0 CURVE",
"603 -1 LINE"
);
},
{
closed = 1;
nodes = (
"386 -12 OFFCURVE",
"483 25 OFFCURVE",
"518 119 CURVE",
"496 195 LINE",
"496 96 OFFCURVE",
"399 38 OFFCURVE",
"302 38 CURVE SMOOTH",
"227 38 OFFCURVE",
"176 73 OFFCURVE",
"176 130 CURVE SMOOTH",
"176 188 OFFCURVE",
"227 213 OFFCURVE",
"298 225 CURVE SMOOTH",
"398 242 LINE SMOOTH",
"457 252 OFFCURVE",
"482 264 OFFCURVE",
"496 276 CURVE",
"496 354 LINE",
"496 318 OFFCURVE",
"477 305 OFFCURVE",
"384 289 CURVE SMOOTH",
"279 271 LINE SMOOTH",
"156 250 OFFCURVE",
"96 205 OFFCURVE",
"96 128 CURVE SMOOTH",
"96 39 OFFCURVE",
"175 -12 OFFCURVE",
"289 -12 CURVE SMOOTH"
);
}
);
width = 702;
},
{
anchors = (
{
name = bottom;
position = "{283, 0}";
},
{
name = ogonek;
position = "{415, 0}";
},
{
name = top;
position = "{273, 500}";
}
);
associatedMasterId = "D8D2F0D2-8948-448B-99CD-378CDFD0E0AE";
layerId = "9AE96089-1D81-4E77-A21D-F0A1B32468B7";
name = "26 juin 25 à 11:52";
paths = (
{
closed = 1;
nodes = (
"457 28 OFFCURVE",
"445 80 OFFCURVE",
"445 138 CURVE SMOOTH",
"445 364 LINE SMOOTH",
"445 472 OFFCURVE",
"375 512 OFFCURVE",
"271 512 CURVE SMOOTH",
"158 512 OFFCURVE",
"82 464 OFFCURVE",
"82 420 CURVE SMOOTH",
"82 402 OFFCURVE",
"94 395 OFFCURVE",
"107 395 CURVE SMOOTH",
"146 395 OFFCURVE",
"153 458 OFFCURVE",
"271 458 CURVE SMOOTH",
"342 458 OFFCURVE",
"385 435 OFFCURVE",
"385 364 CURVE SMOOTH",
"385 127 LINE",
"392 108 LINE",
"392 67 OFFCURVE",
"401 21 OFFCURVE",
"410 0 CURVE",
"470 -1 LINE"
);
},
{
closed = 1;
nodes = (
"297 -12 OFFCURVE",
"372 25 OFFCURVE",
"400 119 CURVE",
"385 195 LINE",
"385 96 OFFCURVE",
"308 38 OFFCURVE",
"230 38 CURVE SMOOTH",
"170 38 OFFCURVE",
"130 73 OFFCURVE",
"130 130 CURVE SMOOTH",
"130 250 OFFCURVE",
"309 194 OFFCURVE",
"385 276 CURVE",
"385 364 LINE",
"385 214 OFFCURVE",
"66 326 OFFCURVE",
"66 128 CURVE SMOOTH",
"66 39 OFFCURVE",
"129 -12 OFFCURVE",
"220 -12 CURVE SMOOTH"
);
}
);
width = 544;
},
{
anchors = (
{
name = bottom;
position = "{283, 0}";
},
{
name = ogonek;
position = "{415, 0}";
},
{
name = top;
position = "{273, 500}";
}
);
associatedMasterId = "D8D2F0D2-8948-448B-99CD-378CDFD0E0AE";
layerId = "1B7C7BEF-54C8-4C2F-BF03-4853F99FCEE9";
name = "26 juin 25 à 12:15";
paths = (
{
closed = 1;
nodes = (
"457 28 OFFCURVE",
"445 80 OFFCURVE",
"445 138 CURVE SMOOTH",
"445 364 LINE SMOOTH",
"445 472 OFFCURVE",
"375 512 OFFCURVE",
"271 512 CURVE SMOOTH",
"158 512 OFFCURVE",
"82 464 OFFCURVE",
"82 420 CURVE SMOOTH",
"82 402 OFFCURVE",
"94 395 OFFCURVE",
"107 395 CURVE SMOOTH",
"146 395 OFFCURVE",
"153 458 OFFCURVE",
"271 458 CURVE SMOOTH",
"342 458 OFFCURVE",
"385 435 OFFCURVE",
"385 364 CURVE SMOOTH",
"385 127 LINE",
"392 108 LINE",
"392 67 OFFCURVE",
"401 21 OFFCURVE",
"410 0 CURVE",
"470 -1 LINE"
);
},
{
closed = 1;
nodes = (
"307 -12 OFFCURVE",
"384 25 OFFCURVE",
"412 119 CURVE",
"385 195 LINE",
"385 96 OFFCURVE",
"308 38 OFFCURVE",
"230 38 CURVE SMOOTH",
"170 38 OFFCURVE",
"130 73 OFFCURVE",
"130 130 CURVE SMOOTH",
"130 187 OFFCURVE",
"169 215 OFFCURVE",
"227 227 CURVE SMOOTH",
"307 244 LINE SMOOTH",
"354 254 OFFCURVE",
"374 264 OFFCURVE",
"385 276 CURVE",
"385 364 LINE",
"385 318 OFFCURVE",
"370 305 OFFCURVE",
"296 289 CURVE SMOOTH",
"212 271 LINE SMOOTH",
"114 250 OFFCURVE",
"66 205 OFFCURVE",
"66 128 CURVE SMOOTH",
"66 39 OFFCURVE",
"129 -12 OFFCURVE",
"230 -12 CURVE SMOOTH"
);
}
);
width = 544;
},
{
anchors = (
{
name = bottom;
position = "{283, 0}";
},
{
name = ogonek;
position = "{415, 0}";
},
{
name = top;
position = "{273, 500}";
}
);
associatedMasterId = "D8D2F0D2-8948-448B-99CD-378CDFD0E0AE";
layerId = "CA12E59E-5C6E-4D00-9A8D-4F9799300035";
name = "17 juil. 25 à 09:52";
paths = (
{
closed = 1;
nodes = (
"457 28 OFFCURVE",
"445 80 OFFCURVE",
"445 138 CURVE SMOOTH",
"445 358 LINE SMOOTH",
"445 472 OFFCURVE",
"369 512 OFFCURVE",
"267 512 CURVE SMOOTH",
"142 512 OFFCURVE",
"84 452 OFFCURVE",
"84 410 CURVE SMOOTH",
"84 392 OFFCURVE",
"95 384 OFFCURVE",
"108 384 CURVE SMOOTH",
"147 384 OFFCURVE",
"147 458 OFFCURVE",
"267 458 CURVE SMOOTH",
"335 458 OFFCURVE",
"385 435 OFFCURVE",
"385 358 CURVE SMOOTH",
"385 127 LINE",
"392 108 LINE",
"392 67 OFFCURVE",
"401 21 OFFCURVE",
"410 0 CURVE",
"470 -1 LINE"
);
},
{
closed = 1;
nodes = (
"297 -12 OFFCURVE",
"374 25 OFFCURVE",
"402 119 CURVE",
"385 195 LINE",
"385 96 OFFCURVE",
"308 38 OFFCURVE",
"230 38 CURVE SMOOTH",
"170 38 OFFCURVE",
"130 73 OFFCURVE",
"130 130 CURVE SMOOTH",
"130 187 OFFCURVE",
"169 215 OFFCURVE",
"227 227 CURVE SMOOTH",
"307 244 LINE SMOOTH",
"354 254 OFFCURVE",
"374 264 OFFCURVE",
"385 276 CURVE",
"385 354 LINE",
"385 318 OFFCURVE",
"370 305 OFFCURVE",
"296 289 CURVE SMOOTH",
"212 271 LINE SMOOTH",
"114 250 OFFCURVE",
"66 205 OFFCURVE",
"66 128 CURVE SMOOTH",
"66 39 OFFCURVE",
"129 -12 OFFCURVE",
"220 -12 CURVE SMOOTH"
);
}
);
width = 538;
},
{
anchors = (
{
name = bottom;
position = "{358, 0}";
},
{
name = ogonek;
position = "{555, 0}";
},
{
name = top;
position = "{353, 500}";
}
);
layerId = "569359BB-C357-4838-A4FF-29094E5B79C2";
name = Black;
paths = (
{
closed = 1;
nodes = (
"623 36 OFFCURVE",
"611 90 OFFCURVE",
"611 162 CURVE SMOOTH",
"611 316 LINE SMOOTH",
"611 460 OFFCURVE",
"517 512 OFFCURVE",
"349 512 CURVE SMOOTH",
"250 512 OFFCURVE",
"168 493 OFFCURVE",
"120 460 CURVE SMOOTH",
"92 441 OFFCURVE",
"77 417 OFFCURVE",
"77 393 CURVE SMOOTH",
"77 357 OFFCURVE",
"104 335 OFFCURVE",
"146 335 CURVE SMOOTH",
"208 335 OFFCURVE",
"235 392 OFFCURVE",
"349 392 CURVE SMOOTH",
"407 392 OFFCURVE",
"446 378 OFFCURVE",
"446 335 CURVE SMOOTH",
"446 132 LINE",
"453 104 LINE",
"453 57 OFFCURVE",
"458 19 OFFCURVE",
"469 0 CURVE",
"642 -1 LINE"
);
},
{
closed = 1;
nodes = (
"348 -12 OFFCURVE",
"433 28 OFFCURVE",
"468 106 CURVE",
"446 200 LINE",
"446 135 OFFCURVE",
"388 93 OFFCURVE",
"321 93 CURVE SMOOTH",
"273 93 OFFCURVE",
"241 114 OFFCURVE",
"241 149 CURVE SMOOTH",
"241 184 OFFCURVE",
"272 200 OFFCURVE",
"319 207 CURVE SMOOTH",
"387 217 LINE SMOOTH",
"421 222 OFFCURVE",
"438 230 OFFCURVE",
"446 236 CURVE",
"446 334 LINE",
"446 311 OFFCURVE",
"432 302 OFFCURVE",
"371 294 CURVE SMOOTH",
"265 280 LINE SMOOTH",
"136 263 OFFCURVE",
"62 227 OFFCURVE",
"62 133 CURVE SMOOTH",
"62 42 OFFCURVE",
"134 -12 OFFCURVE",
"250 -12 CURVE SMOOTH"
);
}
);
width = 702;
}
);
leftMetricsKey = "=";
rightMetricsKey = "=";
unicode = 0061;
},
{
color = 4;
glyphname = ae;
lastChange = "2025-07-30 13:33:28 +0000";
layers = (
{
components = (
{
name = e;
transform = "{1, 0, 0, 1, 316, 0}";
}
);
layerId = "D8D2F0D2-8948-448B-99CD-378CDFD0E0AE";
paths = (
{
closed = 1;
nodes = (
"293 -12 OFFCURVE",
"377 25 OFFCURVE",
"405 119 CURVE",
"381 195 LINE",
"381 96 OFFCURVE",
"304 38 OFFCURVE",
"226 38 CURVE SMOOTH",
"166 38 OFFCURVE",
"126 73 OFFCURVE",
"126 130 CURVE SMOOTH",
"126 187 OFFCURVE",
"165 215 OFFCURVE",
"223 227 CURVE SMOOTH",
"303 244 LINE SMOOTH",
"350 254 OFFCURVE",
"370 264 OFFCURVE",
"381 276 CURVE",
"381 364 LINE",
"381 318 OFFCURVE",
"366 305 OFFCURVE",
"292 289 CURVE SMOOTH",
"208 271 LINE SMOOTH",
"110 250 OFFCURVE",
"62 205 OFFCURVE",
"62 128 CURVE SMOOTH",
"62 39 OFFCURVE",
"125 -12 OFFCURVE",
"216 -12 CURVE SMOOTH"
);
},
{
closed = 1;
nodes = (
"433 138 LINE",
"433 358 LINE SMOOTH",
"433 472 OFFCURVE",
"365 512 OFFCURVE",
"263 512 CURVE SMOOTH",
"177 512 OFFCURVE",
"130 484 OFFCURVE",
"103 455 CURVE SMOOTH",
"86 436 OFFCURVE",
"80 420 OFFCURVE",
"80 408 CURVE SMOOTH",
"80 392 OFFCURVE",
"91 384 OFFCURVE",
"104 384 CURVE SMOOTH",
"143 384 OFFCURVE",
"143 458 OFFCURVE",
"263 458 CURVE SMOOTH",
"331 458 OFFCURVE",
"381 435 OFFCURVE",
"381 358 CURVE SMOOTH",
"381 127 LINE",
"388 108 LINE"
);
}
);
width = 845;
},
{
associatedMasterId = "D8D2F0D2-8948-448B-99CD-378CDFD0E0AE";
components = (
{
name = e;
transform = "{1, 0, 0, 1, 320, 0}";
}
);
layerId = "E455E69D-BE6A-45A5-83DD-A3E80B1F1F08";
name = "24 juin 25 à 10:54";
paths = (
{
closed = 1;
nodes = (
"445 138 LINE",
"445 346 LINE SMOOTH",
"445 472 OFFCURVE",
"380 512 OFFCURVE",
"276 512 CURVE SMOOTH",
"163 512 OFFCURVE",
"82 464 OFFCURVE",
"82 418 CURVE SMOOTH",
"82 402 OFFCURVE",
"92 396 OFFCURVE",
"104 396 CURVE SMOOTH",
"143 396 OFFCURVE",
"157 458 OFFCURVE",
"274 458 CURVE SMOOTH",
"342 458 OFFCURVE",
"385 435 OFFCURVE",
"385 345 CURVE SMOOTH",
"385 127 LINE",
"392 108 LINE"
);
},
{
closed = 1;
nodes = (
"294 -12 OFFCURVE",
"374 25 OFFCURVE",
"412 121 CURVE",
"385 185 LINE",
"385 96 OFFCURVE",
"304 42 OFFCURVE",
"225 42 CURVE SMOOTH",
"156 42 OFFCURVE",
"130 83 OFFCURVE",
"130 129 CURVE SMOOTH",
"130 204 OFFCURVE",
"199 237 OFFCURVE",
"397 278 CURVE",
"396 327 LINE",
"164 284 OFFCURVE",
"66 230 OFFCURVE",
"66 124 CURVE SMOOTH",
"66 44 OFFCURVE",
"122 -12 OFFCURVE",
"217 -12 CURVE SMOOTH"
);
}
);
width = 870;
},
{
components = (
{
alignment = -1;
name = e;
transform = "{1, 0, 0, 1, 321, 0}";
}
);
layerId = "569359BB-C357-4838-A4FF-29094E5B79C2";
paths = (
{
closed = 1;
nodes = (
"287 -12 OFFCURVE",
"371 30 OFFCURVE",
"405 114 CURVE",
"359 200 LINE",
"359 135 OFFCURVE",
"313 93 OFFCURVE",
"259 93 CURVE SMOOTH",
"220 93 OFFCURVE",
"195 114 OFFCURVE",
"195 149 CURVE SMOOTH",
"195 184 OFFCURVE",
"220 201 OFFCURVE",
"257 208 CURVE SMOOTH",
"313 218 LINE SMOOTH",
"341 224 OFFCURVE",
"353 230 OFFCURVE",
"359 236 CURVE",
"359 338 LINE",
"359 312 OFFCURVE",
"348 303 OFFCURVE",
"302 294 CURVE SMOOTH",
"208 280 LINE SMOOTH",
"101 263 OFFCURVE",
"35 228 OFFCURVE",
"35 133 CURVE SMOOTH",
"35 42 OFFCURVE",
"95 -12 OFFCURVE",
"198 -12 CURVE SMOOTH"
);
},
{
closed = 1;
nodes = (
"486 162 LINE",
"486 316 LINE SMOOTH",
"486 460 OFFCURVE",
"416 512 OFFCURVE",
"278 512 CURVE SMOOTH",
"198 512 OFFCURVE",
"128 493 OFFCURVE",
"86 461 CURVE SMOOTH",
"60 441 OFFCURVE",
"47 417 OFFCURVE",
"47 393 CURVE SMOOTH",
"47 357 OFFCURVE",
"71 335 OFFCURVE",
"109 335 CURVE SMOOTH",
"163 335 OFFCURVE",
"188 392 OFFCURVE",
"281 392 CURVE SMOOTH",
"328 392 OFFCURVE",
"359 378 OFFCURVE",
"359 335 CURVE SMOOTH",
"359 132 LINE",
"365 104 LINE"
);
}
);
width = 878;
}
);
leftMetricsKey = "=a";
rightMetricsKey = "=e";
unicode = 00E6;
},
{
color = 1;
glyphname = b;
lastChange = "2025-07-30 13:42:41 +0000";
layers = (
{
layerId = "D8D2F0D2-8948-448B-99CD-378CDFD0E0AE";
paths = (
{
closed = 1;
nodes = (
"533 -12 OFFCURVE",
"627 99 OFFCURVE",
"627 253 CURVE SMOOTH",
"627 438 OFFCURVE",
"494 512 OFFCURVE",
"375 512 CURVE SMOOTH",
"288 512 OFFCURVE",
"197 472 OFFCURVE",
"155 374 CURVE",
"181 295 LINE",
"181 406 OFFCURVE",
"269 456 OFFCURVE",
"357 456 CURVE SMOOTH",
"443 456 OFFCURVE",
"556 407 OFFCURVE",
"556 253 CURVE SMOOTH",
"556 114 OFFCURVE",
"467 44 OFFCURVE",
"365 44 CURVE SMOOTH",
"277 44 OFFCURVE",
"181 98 OFFCURVE",
"181 219 CURVE",
"115 219 LINE",
"115 82 OFFCURVE",
"206 -12 OFFCURVE",
"364 -12 CURVE SMOOTH"
);
},
{
closed = 1;
nodes = (
"181 720 LINE",
"115 720 LINE",
"115 219 LINE",
"181 180 LINE"
);
}
);
width = 702;
},
{
associatedMasterId = "D8D2F0D2-8948-448B-99CD-378CDFD0E0AE";
layerId = "0650345C-DE5B-4670-877A-749626198E95";
name = "17 juin 25 à 11:27";
paths = (
{
closed = 1;
nodes = (
"160 170 LINE",
"160 720 LINE",
"100 720 LINE",
"100 205 LINE"
);
},
{
closed = 1;
nodes = (
"160 315 LINE",
"160 406 OFFCURVE",
"239 454 OFFCURVE",
"316 454 CURVE SMOOTH",
"392 454 OFFCURVE",
"498 407 OFFCURVE",
"498 247 CURVE SMOOTH",
"498 107 OFFCURVE",
"418 44 OFFCURVE",
"323 44 CURVE SMOOTH",
"247 44 OFFCURVE",
"160 84 OFFCURVE",
"160 205 CURVE",
"100 205 LINE",
"100 68 OFFCURVE",
"184 -12 OFFCURVE",
"323 -12 CURVE SMOOTH",
"482 -12 OFFCURVE",
"562 92 OFFCURVE",
"562 247 CURVE SMOOTH",
"562 438 OFFCURVE",
"438 510 OFFCURVE",
"333 510 CURVE SMOOTH",
"255 510 OFFCURVE",
"174 472 OFFCURVE",
"136 374 CURVE"
);
}
);
width = 628;
},
{
associatedMasterId = "D8D2F0D2-8948-448B-99CD-378CDFD0E0AE";
components = (
{
name = _panse;
}
);
layerId = "1B42DE2E-78BF-4683-AEBC-FCAE9E8D579C";
name = "18 juin 25 à 19:21";
paths = (
{
closed = 1;
nodes = (
"160 0 LINE",
"160 720 LINE",
"100 720 LINE",
"100 0 LINE"
);
}
);
width = 628;
},
{
layerId = "569359BB-C357-4838-A4FF-29094E5B79C2";
paths = (
{
closed = 1;
nodes = (
"548 -12 OFFCURVE",
"649 104 OFFCURVE",
"649 257 CURVE SMOOTH",
"649 426 OFFCURVE",
"531 512 OFFCURVE",
"411 512 CURVE SMOOTH",
"328 512 OFFCURVE",
"250 471 OFFCURVE",
"214 385 CURVE",
"238 272 LINE",
"238 350 OFFCURVE",
"297 382 OFFCURVE",
"353 382 CURVE SMOOTH",
"409 382 OFFCURVE",
"482 351 OFFCURVE",
"482 249 CURVE SMOOTH",
"482 156 OFFCURVE",
"423 113 OFFCURVE",
"357 113 CURVE SMOOTH",
"297 113 OFFCURVE",
"238 149 OFFCURVE",
"238 227 CURVE",
"80 231 LINE",
"80 84 OFFCURVE",
"181 -12 OFFCURVE",
"357 -12 CURVE SMOOTH"
);
},
{
closed = 1;
nodes = (
"238 720 LINE",
"80 720 LINE",
"80 231 LINE",
"238 185 LINE"
);
}
);
width = 702;
}
);
leftMetricsKey = "=";
rightMetricsKey = "=";
unicode = 0062;
},
{
color = 1;
glyphname = c;
lastChange = "2025-07-30 13:42:41 +0000";
layers = (
{
anchors = (
{
name = bottom;
position = "{366, 0}";
},
{
name = top;
position = "{392, 500}";
}
);
layerId = "D8D2F0D2-8948-448B-99CD-378CDFD0E0AE";
paths = (
{
closed = 1;
nodes = (
"622 425 OFFCURVE",
"615 439 OFFCURVE",
"595 456 CURVE SMOOTH",
"559 486 OFFCURVE",
"496 512 OFFCURVE",
"407 512 CURVE SMOOTH",
"226 512 OFFCURVE",
"100 404 OFFCURVE",
"100 244 CURVE SMOOTH",
"100 87 OFFCURVE",
"219 -12 OFFCURVE",
"412 -12 CURVE SMOOTH",
"506 -12 OFFCURVE",
"566 11 OFFCURVE",
"612 35 CURVE",
"612 89 LINE",
"544 58 OFFCURVE",
"482 44 OFFCURVE",
"416 44 CURVE SMOOTH",
"269 44 OFFCURVE",
"182 118 OFFCURVE",
"182 248 CURVE SMOOTH",
"182 376 OFFCURVE",
"267 460 OFFCURVE",
"406 460 CURVE SMOOTH",
"538 460 OFFCURVE",
"535 385 OFFCURVE",
"589 385 CURVE SMOOTH",
"606 385 OFFCURVE",
"622 394 OFFCURVE",
"622 412 CURVE SMOOTH"
);
}
);
width = 702;
},
{
associatedMasterId = "D8D2F0D2-8948-448B-99CD-378CDFD0E0AE";
layerId = "4F3882DD-CD2B-4CE6-8882-E1F2A09F659C";
name = "Sep 11 21, 15:52";
paths = (
{
closed = 1;
nodes = (
"428 463 OFFCURVE",
"363 510 OFFCURVE",
"270 510 CURVE SMOOTH",
"121 510 OFFCURVE",
"46 388 OFFCURVE",
"46 237 CURVE SMOOTH",
"46 52 OFFCURVE",
"154 -10 OFFCURVE",
"265 -10 CURVE SMOOTH",
"376 -10 OFFCURVE",
"436 52 OFFCURVE",
"458 122 CURVE",
"407 139 LINE",
"388 89 OFFCURVE",
"347 42 OFFCURVE",
"266 42 CURVE SMOOTH",
"188 42 OFFCURVE",
"106 85 OFFCURVE",
"106 243 CURVE SMOOTH",
"106 387 OFFCURVE",
"175 458 OFFCURVE",
"268 458 CURVE SMOOTH",
"322 458 OFFCURVE",
"380 433 OFFCURVE",
"399 349 CURVE",
"454 368 LINE"
);
}
);
width = 518;
},
{
associatedMasterId = "D8D2F0D2-8948-448B-99CD-378CDFD0E0AE";
layerId = "13DA5124-1501-4532-BF0D-AFA655CB172B";
name = "5 juin 25 à 12:40";
paths = (
{
closed = 1;
nodes = (
"452 448 OFFCURVE",
"384 510 OFFCURVE",
"280 510 CURVE SMOOTH",
"144 510 OFFCURVE",
"56 404 OFFCURVE",
"56 240 CURVE SMOOTH",
"56 83 OFFCURVE",
"137 -10 OFFCURVE",
"273 -10 CURVE SMOOTH",
"391 -10 OFFCURVE",
"455 53 OFFCURVE",
"455 99 CURVE SMOOTH",
"455 128 OFFCURVE",
"429 133 OFFCURVE",
"405 100 CURVE SMOOTH",
"376 61 OFFCURVE",
"328 42 OFFCURVE",
"274 42 CURVE SMOOTH",
"174 42 OFFCURVE",
"116 114 OFFCURVE",
"116 242 CURVE SMOOTH",
"116 376 OFFCURVE",
"180 458 OFFCURVE",
"280 458 CURVE SMOOTH",
"331 458 OFFCURVE",
"377 436 OFFCURVE",
"402 384 CURVE SMOOTH",
"418 349 OFFCURVE",
"452 354 OFFCURVE",
"452 393 CURVE SMOOTH"
);
}
);
width = 528;
},
{
anchors = (
{
name = bottom;
position = "{274, 0}";
},
{
name = top;
position = "{294, 500}";
}
);
associatedMasterId = "D8D2F0D2-8948-448B-99CD-378CDFD0E0AE";
layerId = "B7398ABC-DB22-49B5-8CB8-67CA493F2D6D";
name = "17 juil. 25 à 09:49";
paths = (
{
closed = 1;
nodes = (
"474 462 OFFCURVE",
"404 512 OFFCURVE",
"306 512 CURVE SMOOTH",
"164 512 OFFCURVE",
"66 404 OFFCURVE",
"66 244 CURVE SMOOTH",
"66 87 OFFCURVE",
"159 -12 OFFCURVE",
"310 -12 CURVE SMOOTH",
"383 -12 OFFCURVE",
"430 11 OFFCURVE",
"466 35 CURVE",
"466 89 LINE",
"413 58 OFFCURVE",
"364 44 OFFCURVE",
"313 44 CURVE SMOOTH",
"198 44 OFFCURVE",
"130 118 OFFCURVE",
"130 248 CURVE SMOOTH",
"130 376 OFFCURVE",
"196 460 OFFCURVE",
"305 460 CURVE SMOOTH",
"408 460 OFFCURVE",
"408 385 OFFCURVE",
"448 385 CURVE SMOOTH",
"463 385 OFFCURVE",
"474 395 OFFCURVE",
"474 414 CURVE SMOOTH"
);
}
);
width = 518;
},
{
anchors = (
{
name = bottom;
position = "{374, 0}";
},
{
name = top;
position = "{389, 500}";
}
);
layerId = "569359BB-C357-4838-A4FF-29094E5B79C2";
paths = (
{
closed = 1;
nodes = (
"643 410 OFFCURVE",
"633 431 OFFCURVE",
"608 453 CURVE SMOOTH",
"566 490 OFFCURVE",
"495 512 OFFCURVE",
"405 512 CURVE SMOOTH",
"205 512 OFFCURVE",
"74 406 OFFCURVE",
"74 241 CURVE SMOOTH",
"74 82 OFFCURVE",
"195 -12 OFFCURVE",
"405 -12 CURVE SMOOTH",
"506 -12 OFFCURVE",
"574 11 OFFCURVE",
"622 35 CURVE",
"622 154 LINE",
"555 129 OFFCURVE",
"495 118 OFFCURVE",
"439 118 CURVE SMOOTH",
"311 118 OFFCURVE",
"258 174 OFFCURVE",
"258 256 CURVE SMOOTH",
"258 338 OFFCURVE",
"311 389 OFFCURVE",
"398 389 CURVE SMOOTH",
"491 389 OFFCURVE",
"497 319 OFFCURVE",
"569 319 CURVE SMOOTH",
"613 319 OFFCURVE",
"643 343 OFFCURVE",
"643 384 CURVE SMOOTH"
);
}
);
width = 702;
}
);
leftMetricsKey = "=";
rightMetricsKey = "=";
unicode = 0063;
},
{
color = 1;
glyphname = d;
lastChange = "2025-07-30 13:46:31 +0000";
layers = (
{
anchors = (
{
name = bottom;
position = "{308, 0}";
},
{
name = caron;
position = "{522, 500}";
},
{
name = center;
position = "{442, 576}";
},
{
name = top;
position = "{308, 500}";
}
);
components = (
{
name = _panse;
transform = "{-1, 0, 0, -1, 622, 500}";
}
);
layerId = "D8D2F0D2-8948-448B-99CD-378CDFD0E0AE";
paths = (
{
closed = 1;
nodes = (
"462 720 LINE",
"462 0 LINE",
"522 0 LINE",
"522 720 LINE"
);
}
);
width = 618;
},
{
anchors = (
{
name = bottom;
position = "{304, 0}";
},
{
name = caron;
position = "{550, 500}";
},
{
name = center;
position = "{430, 576}";
},
{
name = top;
position = "{304, 500}";
}
);
layerId = "569359BB-C357-4838-A4FF-29094E5B79C2";
paths = (
{
closed = 1;
nodes = (
"454 720 LINE",
"454 0 LINE",
"604 0 LINE",
"604 720 LINE"
);
},
{
closed = 1;
nodes = (
"454 228 LINE",
"454 150 OFFCURVE",
"394 118 OFFCURVE",
"335 118 CURVE SMOOTH",
"277 118 OFFCURVE",
"210 149 OFFCURVE",
"210 251 CURVE SMOOTH",
"210 348 OFFCURVE",
"271 387 OFFCURVE",
"335 387 CURVE SMOOTH",
"398 387 OFFCURVE",
"454 349 OFFCURVE",
"454 279 CURVE",
"469 399 LINE",
"447 473 OFFCURVE",
"376 512 OFFCURVE",
"287 512 CURVE SMOOTH",
"150 512 OFFCURVE",
"44 410 OFFCURVE",
"44 247 CURVE SMOOTH",
"44 74 OFFCURVE",
"163 -12 OFFCURVE",
"280 -12 CURVE SMOOTH",
"364 -12 OFFCURVE",
"443 27 OFFCURVE",
"476 115 CURVE"
);
}
);
width = 702;
}
);
leftMetricsKey = "=";
rightMetricsKey = "=";
unicode = 0064;
},
{
color = 4;
glyphname = eth;
lastChange = "2025-07-30 13:33:28 +0000";
layers = (
{
layerId = "D8D2F0D2-8948-448B-99CD-378CDFD0E0AE";
paths = (
{
closed = 1;
nodes = (
"60 77 OFFCURVE",
"159 -12 OFFCURVE",
"297 -12 CURVE SMOOTH",
"447 -12 OFFCURVE",
"540 87 OFFCURVE",
"540 257 CURVE",
"473 375 LINE",
"435 436 OFFCURVE",
"364 460 OFFCURVE",
"296 460 CURVE SMOOTH",
"160 460 OFFCURVE",
"60 369 OFFCURVE",
"60 222 CURVE SMOOTH"
);
},
{
closed = 1;
nodes = (
"122 339 OFFCURVE",
"199 408 OFFCURVE",
"303 408 CURVE SMOOTH",
"404 408 OFFCURVE",
"478 342 OFFCURVE",
"478 227 CURVE SMOOTH",
"478 109 OFFCURVE",
"401 40 OFFCURVE",
"297 40 CURVE SMOOTH",
"196 40 OFFCURVE",
"122 106 OFFCURVE",
"122 221 CURVE SMOOTH"
);
},
{
closed = 1;
nodes = (
"370 607 OFFCURVE",
"482 441 OFFCURVE",
"482 277 CURVE",
"540 257 LINE",
"540 461 OFFCURVE",
"408 632 OFFCURVE",
"220 720 CURVE",
"118 720 LINE"
);
},
{
closed = 1;
nodes = (
"118 521 LINE",
"524 665 LINE",
"524 720 LINE",
"118 576 LINE"
);
}
);
width = 600;
},
{
layerId = "569359BB-C357-4838-A4FF-29094E5B79C2";
paths = (
{
closed = 1;
nodes = (
"37 77 OFFCURVE",
"144 -12 OFFCURVE",
"303 -12 CURVE SMOOTH",
"472 -12 OFFCURVE",
"571 86 OFFCURVE",
"571 269 CURVE",
"426 378 LINE",
"398 432 OFFCURVE",
"341 469 OFFCURVE",
"263 469 CURVE SMOOTH",
"128 469 OFFCURVE",
"37 379 OFFCURVE",
"37 234 CURVE SMOOTH"
);
},
{
closed = 1;
nodes = (
"191 304 OFFCURVE",
"240 347 OFFCURVE",
"306 347 CURVE SMOOTH",
"370 347 OFFCURVE",
"417 306 OFFCURVE",
"417 230 CURVE SMOOTH",
"417 153 OFFCURVE",
"368 109 OFFCURVE",
"302 109 CURVE SMOOTH",
"238 109 OFFCURVE",
"191 151 OFFCURVE",
"191 226 CURVE SMOOTH"
);
},
{
closed = 1;
nodes = (
"333 594 OFFCURVE",
"429 437 OFFCURVE",
"429 281 CURVE",
"571 269 LINE",
"571 454 OFFCURVE",
"470 630 OFFCURVE",
"313 720 CURVE",
"95 720 LINE"
);
},
{
closed = 1;
nodes = (
"95 496 LINE",
"552 627 LINE",
"552 720 LINE",
"95 589 LINE"
);
}
);
width = 608;
}
);
leftMetricsKey = "=o";
rightMetricsKey = "=o";
unicode = 00F0;
},
{
color = 1;
glyphname = e;
lastChange = "2025-07-30 13:42:41 +0000";
layers = (
{
anchors = (
{
name = bottom;
position = "{368, 0}";
},
{
name = ogonek;
position = "{504, 0}";
},
{
name = top;
position = "{388, 500}";
}
);
layerId = "D8D2F0D2-8948-448B-99CD-378CDFD0E0AE";
paths = (
{
closed = 1;
nodes = (
"495 -12 OFFCURVE",
"560 11 OFFCURVE",
"609 35 CURVE",
"609 89 LINE",
"538 58 OFFCURVE",
"468 44 OFFCURVE",
"403 44 CURVE SMOOTH",
"255 44 OFFCURVE",
"173 118 OFFCURVE",
"173 245 CURVE SMOOTH",
"173 376 OFFCURVE",
"265 458 OFFCURVE",
"395 458 CURVE SMOOTH",
"490 458 OFFCURVE",
"544 414 OFFCURVE",
"544 363 CURVE SMOOTH",
"544 260 OFFCURVE",
"329 258 OFFCURVE",
"137 292 CURVE",
"137 246 LINE",
"390 198 OFFCURVE",
"621 224 OFFCURVE",
"621 359 CURVE SMOOTH",
"621 443 OFFCURVE",
"531 510 OFFCURVE",
"395 510 CURVE SMOOTH",
"223 510 OFFCURVE",
"96 404 OFFCURVE",
"96 240 CURVE SMOOTH",
"96 83 OFFCURVE",
"209 -12 OFFCURVE",
"400 -12 CURVE SMOOTH"
);
}
);
width = 702;
},
{
associatedMasterId = "D8D2F0D2-8948-448B-99CD-378CDFD0E0AE";
layerId = "55CBF1DD-922D-4222-B261-0AAB4C75428E";
name = "Sep 11 21, 15:53";
paths = (
{
closed = 1;
nodes = (
"384 89 OFFCURVE",
"343 42 OFFCURVE",
"262 42 CURVE SMOOTH",
"184 42 OFFCURVE",
"102 85 OFFCURVE",
"102 243 CURVE SMOOTH",
"102 387 OFFCURVE",
"171 458 OFFCURVE",
"264 458 CURVE SMOOTH",
"330 458 OFFCURVE",
"400 421 OFFCURVE",
"400 292 CURVE",
"461 242 LINE",
"469 421 OFFCURVE",
"394 510 OFFCURVE",
"266 510 CURVE SMOOTH",
"117 510 OFFCURVE",
"42 388 OFFCURVE",
"42 237 CURVE SMOOTH",
"42 52 OFFCURVE",
"150 -10 OFFCURVE",
"261 -10 CURVE SMOOTH",
"372 -10 OFFCURVE",
"432 52 OFFCURVE",
"454 122 CURVE",
"403 139 LINE"
);
},
{
closed = 1;
nodes = (
"75 242 LINE",
"461 242 LINE",
"421 292 LINE",
"75 292 LINE"
);
}
);
width = 516;
},
{
associatedMasterId = "D8D2F0D2-8948-448B-99CD-378CDFD0E0AE";
layerId = "1DD948A4-6013-4B0D-A909-9A51D4833915";
name = "5 juin 25 à 12:40";
paths = (
{
closed = 1;
nodes = (
"398 -10 OFFCURVE",
"457 40 OFFCURVE",
"457 75 CURVE SMOOTH",
"457 97 OFFCURVE",
"434 101 OFFCURVE",
"413 83 CURVE SMOOTH",
"383 57 OFFCURVE",
"341 42 OFFCURVE",
"290 42 CURVE SMOOTH",
"180 42 OFFCURVE",
"116 114 OFFCURVE",
"116 245 CURVE SMOOTH",
"116 376 OFFCURVE",
"178 458 OFFCURVE",
"278 458 CURVE SMOOTH",
"364 458 OFFCURVE",
"414 397 OFFCURVE",
"414 302 CURVE",
"475 252 LINE",
"483 414 OFFCURVE",
"412 510 OFFCURVE",
"281 510 CURVE SMOOTH",
"144 510 OFFCURVE",
"56 404 OFFCURVE",
"56 240 CURVE SMOOTH",
"56 83 OFFCURVE",
"140 -10 OFFCURVE",
"288 -10 CURVE SMOOTH"
);
},
{
closed = 1;
nodes = (
"475 252 LINE",
"435 302 LINE",
"89 302 LINE",
"89 252 LINE"
);
}
);
width = 530;
},
{
associatedMasterId = "D8D2F0D2-8948-448B-99CD-378CDFD0E0AE";
layerId = "67D4B5DC-9AC5-4997-B9C7-8B15912EDE9E";
name = "6 juin 25 à 17:29";
paths = (
{
closed = 1;
nodes = (
"366 -10 OFFCURVE",
"415 11 OFFCURVE",
"446 35 CURVE",
"446 89 LINE",
"394 56 OFFCURVE",
"349 42 OFFCURVE",
"297 42 CURVE SMOOTH",
"180 42 OFFCURVE",
"116 114 OFFCURVE",
"116 245 CURVE SMOOTH",
"116 376 OFFCURVE",
"178 458 OFFCURVE",
"276 458 CURVE SMOOTH",
"335 458 OFFCURVE",
"374 429 OFFCURVE",
"374 384 CURVE SMOOTH",
"374 324 OFFCURVE",
"303 283 OFFCURVE",
"89 216 CURVE",
"89 166 LINE",
"344 246 OFFCURVE",
"432 295 OFFCURVE",
"432 384 CURVE SMOOTH",
"432 455 OFFCURVE",
"376 510 OFFCURVE",
"279 510 CURVE SMOOTH",
"144 510 OFFCURVE",
"56 404 OFFCURVE",
"56 240 CURVE SMOOTH",
"56 83 OFFCURVE",
"140 -10 OFFCURVE",
"293 -10 CURVE SMOOTH"
);
}
);
width = 530;
},
{
anchors = (
{
name = bottom;
position = "{285, 0}";
},
{
name = ogonek;
position = "{394, 0}";
},
{
name = top;
position = "{285, 500}";
}
);
associatedMasterId = "D8D2F0D2-8948-448B-99CD-378CDFD0E0AE";
layerId = "F333FCE7-FDA2-4A87-94EE-7D054C5B78DB";
name = "3 juil. 25 à 11:12";
paths = (
{
closed = 1;
nodes = (
"386 -12 OFFCURVE",
"439 11 OFFCURVE",
"478 35 CURVE",
"478 89 LINE",
"421 58 OFFCURVE",
"365 44 OFFCURVE",
"313 44 CURVE SMOOTH",
"194 44 OFFCURVE",
"128 118 OFFCURVE",
"128 245 CURVE SMOOTH",
"128 376 OFFCURVE",
"202 458 OFFCURVE",
"306 458 CURVE SMOOTH",
"383 458 OFFCURVE",
"430 414 OFFCURVE",
"430 358 CURVE SMOOTH",
"430 250 OFFCURVE",
"253 258 OFFCURVE",
"99 292 CURVE",
"99 238 LINE",
"295 190 OFFCURVE",
"490 215 OFFCURVE",
"490 355 CURVE SMOOTH",
"490 442 OFFCURVE",
"416 510 OFFCURVE",
"306 510 CURVE SMOOTH",
"168 510 OFFCURVE",
"66 404 OFFCURVE",
"66 240 CURVE SMOOTH",
"66 83 OFFCURVE",
"157 -12 OFFCURVE",
"310 -12 CURVE SMOOTH"
);
}
);
width = 550;
},
{
anchors = (
{
name = bottom;
position = "{285, 0}";
},
{
name = ogonek;
position = "{394, 0}";
},
{
name = top;
position = "{285, 500}";
}
);
associatedMasterId = "D8D2F0D2-8948-448B-99CD-378CDFD0E0AE";
layerId = "DD069DCD-C43C-4353-AE68-95047C885678";
name = "3 juil. 25 à 15:27";
paths = (
{
closed = 1;
nodes = (
"386 -12 OFFCURVE",
"439 11 OFFCURVE",
"478 35 CURVE",
"478 89 LINE",
"421 58 OFFCURVE",
"365 44 OFFCURVE",
"313 44 CURVE SMOOTH",
"194 44 OFFCURVE",
"128 118 OFFCURVE",
"128 245 CURVE SMOOTH",
"128 376 OFFCURVE",
"198 458 OFFCURVE",
"300 458 CURVE SMOOTH",
"388 458 OFFCURVE",
"442 397 OFFCURVE",
"442 302 CURVE",
"99 302 LINE",
"99 250 LINE",
"445 250 LINE SMOOTH",
"491 250 OFFCURVE",
"500 260 OFFCURVE",
"500 302 CURVE SMOOTH",
"500 422 OFFCURVE",
"429 510 OFFCURVE",
"303 510 CURVE SMOOTH",
"164 510 OFFCURVE",
"66 404 OFFCURVE",
"66 240 CURVE SMOOTH",
"66 83 OFFCURVE",
"157 -12 OFFCURVE",
"310 -12 CURVE SMOOTH"
);
}
);
width = 550;
},
{
anchors = (
{
name = bottom;
position = "{358, 0}";
},
{
name = ogonek;
position = "{541, 0}";
},
{
name = top;
position = "{382, 500}";
}
);
layerId = "569359BB-C357-4838-A4FF-29094E5B79C2";
name = Black;
paths = (
{
closed = 1;
nodes = (
"486 -12 OFFCURVE",
"572 9 OFFCURVE",
"628 37 CURVE",
"628 140 LINE",
"556 112 OFFCURVE",
"487 98 OFFCURVE",
"414 98 CURVE SMOOTH",
"289 98 OFFCURVE",
"237 145 OFFCURVE",
"237 247 CURVE SMOOTH",
"237 355 OFFCURVE",
"297 404 OFFCURVE",
"381 404 CURVE SMOOTH",
"443 404 OFFCURVE",
"479 378 OFFCURVE",
"479 346 CURVE SMOOTH",
"479 285 OFFCURVE",
"351 276 OFFCURVE",
"184 312 CURVE",
"184 223 LINE",
"404 170 OFFCURVE",
"647 185 OFFCURVE",
"647 336 CURVE SMOOTH",
"647 431 OFFCURVE",
"551 511 OFFCURVE",
"384 511 CURVE SMOOTH",
"193 511 OFFCURVE",
"67 406 OFFCURVE",
"67 240 CURVE SMOOTH",
"67 81 OFFCURVE",
"182 -12 OFFCURVE",
"388 -12 CURVE SMOOTH"
);
}
);
width = 702;
}
);
leftMetricsKey = "=";
rightMetricsKey = "=";
unicode = 0065;
},
{
color = 1;
glyphname = f;
lastChange = "2025-07-30 13:51:30 +0000";
layers = (
{
associatedMasterId = "D8D2F0D2-8948-448B-99CD-378CDFD0E0AE";
layerId = "F21B4E4C-ABEE-47C6-A5F7-38048B1CC6B5";
name = "13 juin 25 à 12:22";
paths = (
{
closed = 1;
nodes = (
"180 0 LINE",
"180 600 LINE SMOOTH",
"180 666 OFFCURVE",
"214 691 OFFCURVE",
"263 691 CURVE SMOOTH",
"289 691 OFFCURVE",
"312 684 OFFCURVE",
"327 684 CURVE SMOOTH",
"342 684 OFFCURVE",
"350 691 OFFCURVE",
"350 705 CURVE SMOOTH",
"350 731 OFFCURVE",
"321 746 OFFCURVE",
"272 746 CURVE SMOOTH",
"179 746 OFFCURVE",
"120 693 OFFCURVE",
"120 600 CURVE SMOOTH",
"120 0 LINE"
);
},
{
closed = 1;
nodes = (
"340 446 LINE",
"340 500 LINE",
"30 500 LINE",
"30 446 LINE"
);
}
);
width = 360;
},
{
layerId = "D8D2F0D2-8948-448B-99CD-378CDFD0E0AE";
name = Thin;
paths = (
{
closed = 1;
nodes = (
"333 0 LINE",
"333 576 LINE SMOOTH",
"333 652 OFFCURVE",
"405 680 OFFCURVE",
"481 680 CURVE SMOOTH",
"531 680 OFFCURVE",
"561 667 OFFCURVE",
"589 667 CURVE SMOOTH",
"613 667 OFFCURVE",
"628 677 OFFCURVE",
"628 691 CURVE SMOOTH",
"628 716 OFFCURVE",
"580 732 OFFCURVE",
"495 732 CURVE SMOOTH",
"343 732 OFFCURVE",
"235 679 OFFCURVE",
"235 576 CURVE SMOOTH",
"235 0 LINE"
);
},
{
closed = 1;
nodes = (
"595 446 LINE",
"595 500 LINE",
"160 500 LINE SMOOTH",
"124 500 OFFCURVE",
"104 490 OFFCURVE",
"104 473 CURVE SMOOTH",
"104 456 OFFCURVE",
"124 446 OFFCURVE",
"160 446 CURVE SMOOTH"
);
}
);
width = 702;
},
{
associatedMasterId = "D8D2F0D2-8948-448B-99CD-378CDFD0E0AE";
layerId = "AAAA27E6-AF07-44BD-96F7-E6148B9996BD";
name = "3 juil. 25 à 14:38";
paths = (
{
closed = 1;
nodes = (
"170 0 LINE",
"170 576 LINE SMOOTH",
"170 652 OFFCURVE",
"214 680 OFFCURVE",
"260 680 CURVE SMOOTH",
"291 680 OFFCURVE",
"309 667 OFFCURVE",
"326 667 CURVE SMOOTH",
"341 667 OFFCURVE",
"350 677 OFFCURVE",
"350 691 CURVE SMOOTH",
"350 716 OFFCURVE",
"321 732 OFFCURVE",
"269 732 CURVE SMOOTH",
"176 732 OFFCURVE",
"110 679 OFFCURVE",
"110 576 CURVE SMOOTH",
"110 0 LINE"
);
},
{
closed = 1;
nodes = (
"110 446 LINE",
"110 512 LINE",
"61 498 LINE SMOOTH",
"37 491 OFFCURVE",
"30 480 OFFCURVE",
"30 469 CURVE SMOOTH",
"30 457 OFFCURVE",
"38 446 OFFCURVE",
"61 446 CURVE SMOOTH"
);
},
{
closed = 1;
nodes = (
"340 446 LINE",
"340 500 LINE",
"120 500 LINE",
"120 446 LINE"
);
}
);
width = 362;
},
{
layerId = "569359BB-C357-4838-A4FF-29094E5B79C2";
name = Black;
paths = (
{
closed = 1;
nodes = (
"378 0 LINE",
"378 521 LINE SMOOTH",
"378 585 OFFCURVE",
"410 603 OFFCURVE",
"466 603 CURVE SMOOTH",
"504 603 OFFCURVE",
"535 595 OFFCURVE",
"567 595 CURVE SMOOTH",
"620 595 OFFCURVE",
"642 616 OFFCURVE",
"642 648 CURVE SMOOTH",
"642 703 OFFCURVE",
"578 732 OFFCURVE",
"472 732 CURVE SMOOTH",
"320 732 OFFCURVE",
"226 674 OFFCURVE",
"226 526 CURVE SMOOTH",
"226 0 LINE"
);
},
{
closed = 1;
nodes = (
"638 370 LINE",
"638 500 LINE",
"137 500 LINE SMOOTH",
"89 500 OFFCURVE",
"47 478 OFFCURVE",
"47 435 CURVE SMOOTH",
"47 391 OFFCURVE",
"89 370 OFFCURVE",
"137 370 CURVE SMOOTH"
);
}
);
width = 702;
}
);
leftMetricsKey = "=";
rightMetricsKey = "=";
unicode = 0066;
},
{
color = 1;
glyphname = g;
lastChange = "2025-07-30 13:42:41 +0000";
layers = (
{
associatedMasterId = "D8D2F0D2-8948-448B-99CD-378CDFD0E0AE";
layerId = "910B8762-DF4F-41E2-B2FC-9F357CAFE1B9";
name = "13 juin 25 à 12:50";
paths = (
{
closed = 1;
nodes = (
"155 -116 OFFCURVE",
"120 -116 CURVE SMOOTH",
"101 -116 OFFCURVE",
"95 -129 OFFCURVE",
"95 -140 CURVE SMOOTH",
"95 -176 OFFCURVE",
"160 -210 OFFCURVE",
"277 -210 CURVE SMOOTH",
"433 -210 OFFCURVE",
"520 -150 OFFCURVE",
"520 -5 CURVE SMOOTH",
"520 478 LINE",
"460 490 LINE",
"460 -5 LINE SMOOTH",
"460 -125 OFFCURVE",
"370 -156 OFFCURVE",
"282 -156 CURVE SMOOTH",
"182 -156 OFFCURVE"
);
},
{
closed = 1;
nodes = (
"460 185 LINE",
"460 94 OFFCURVE",
"381 46 OFFCURVE",
"304 46 CURVE SMOOTH",
"228 46 OFFCURVE",
"130 93 OFFCURVE",
"130 240 CURVE SMOOTH",
"130 393 OFFCURVE",
"232 452 OFFCURVE",
"354 452 CURVE SMOOTH",
"393 452 OFFCURVE",
"454 445 OFFCURVE",
"504 424 CURVE",
"520 478 LINE",
"455 500 OFFCURVE",
"386 504 OFFCURVE",
"353 504 CURVE SMOOTH",
"174 504 OFFCURVE",
"66 398 OFFCURVE",
"66 237 CURVE SMOOTH",
"66 62 OFFCURVE",
"182 -10 OFFCURVE",
"288 -10 CURVE SMOOTH",
"365 -10 OFFCURVE",
"446 28 OFFCURVE",
"484 136 CURVE"
);
}
);
width = 620;
},
{
associatedMasterId = "D8D2F0D2-8948-448B-99CD-378CDFD0E0AE";
components = (
{
name = _panse;
transform = "{-1, 0, 0, -1, 628, 500}";
}
);
layerId = "7BFDC844-DCC6-4E5B-B3C3-0C285F798DE9";
name = "18 juin 25 à 19:25";
paths = (
{
closed = 1;
nodes = (
"190 -156 OFFCURVE",
"165 -114 OFFCURVE",
"128 -114 CURVE SMOOTH",
"109 -114 OFFCURVE",
"102 -126 OFFCURVE",
"102 -138 CURVE SMOOTH",
"102 -176 OFFCURVE",
"176 -212 OFFCURVE",
"295 -212 CURVE SMOOTH",
"449 -212 OFFCURVE",
"528 -150 OFFCURVE",
"528 -3 CURVE SMOOTH",
"528 500 LINE",
"468 500 LINE",
"468 -5 LINE SMOOTH",
"468 -125 OFFCURVE",
"388 -156 OFFCURVE",
"295 -156 CURVE SMOOTH"
);
}
);
width = 628;
},
{
anchors = (
{
name = bottom;
position = "{289, -200}";
},
{
name = top;
position = "{289, 500}";
}
);
associatedMasterId = "D8D2F0D2-8948-448B-99CD-378CDFD0E0AE";
layerId = "46587DE2-43D5-400B-97C6-C89C909D1D4E";
name = "27 juin 25 à 16:53";
paths = (
{
closed = 1;
nodes = (
"461 -212 OFFCURVE",
"540 -158 OFFCURVE",
"540 -58 CURVE SMOOTH",
"540 31 OFFCURVE",
"476 68 OFFCURVE",
"377 68 CURVE SMOOTH",
"207 68 LINE SMOOTH",
"146 68 OFFCURVE",
"123 81 OFFCURVE",
"123 116 CURVE SMOOTH",
"123 151 OFFCURVE",
"146 173 OFFCURVE",
"175 202 CURVE",
"150 224 LINE",
"90 190 OFFCURVE",
"66 149 OFFCURVE",
"66 105 CURVE SMOOTH",
"66 59 OFFCURVE",
"91 12 OFFCURVE",
"193 12 CURVE SMOOTH",
"364 12 LINE SMOOTH",
"455 12 OFFCURVE",
"482 -17 OFFCURVE",
"482 -60 CURVE SMOOTH",
"482 -131 OFFCURVE",
"406 -160 OFFCURVE",
"293 -160 CURVE SMOOTH",
"143 -160 OFFCURVE",
"137 -109 OFFCURVE",
"100 -109 CURVE SMOOTH",
"81 -109 OFFCURVE",
"73 -122 OFFCURVE",
"73 -136 CURVE SMOOTH",
"73 -182 OFFCURVE",
"161 -212 OFFCURVE",
"290 -212 CURVE SMOOTH"
);
},
{
closed = 1;
nodes = (
"395 182 OFFCURVE",
"480 248 OFFCURVE",
"480 348 CURVE SMOOTH",
"480 400 OFFCURVE",
"457 446 OFFCURVE",
"399 474 CURVE",
"282 512 LINE",
"163 512 OFFCURVE",
"79 445 OFFCURVE",
"79 343 CURVE SMOOTH",
"79 243 OFFCURVE",
"159 182 OFFCURVE",
"274 182 CURVE SMOOTH"
);
},
{
closed = 1;
nodes = (
"194 234 OFFCURVE",
"137 272 OFFCURVE",
"137 345 CURVE SMOOTH",
"137 420 OFFCURVE",
"197 460 OFFCURVE",
"281 460 CURVE SMOOTH",
"364 460 OFFCURVE",
"421 422 OFFCURVE",
"421 349 CURVE SMOOTH",
"421 274 OFFCURVE",
"361 234 OFFCURVE",
"276 234 CURVE SMOOTH"
);
},
{
closed = 1;
nodes = (
"557 512 LINE",
"489 491 OFFCURVE",
"374 512 OFFCURVE",
"282 512 CURVE",
"387 467 LINE",
"464 450 OFFCURVE",
"529 447 OFFCURVE",
"557 456 CURVE"
);
}
);
width = 577;
},
{
anchors = (
{
name = bottom;
position = "{353, -200}";
},
{
name = top;
position = "{353, 500}";
}
);
layerId = "D8D2F0D2-8948-448B-99CD-378CDFD0E0AE";
name = Thin;
paths = (
{
closed = 1;
nodes = (
"537 -212 OFFCURVE",
"630 -158 OFFCURVE",
"630 -58 CURVE SMOOTH",
"630 31 OFFCURVE",
"555 68 OFFCURVE",
"439 68 CURVE SMOOTH",
"260 68 LINE SMOOTH",
"189 68 OFFCURVE",
"161 81 OFFCURVE",
"161 113 CURVE SMOOTH",
"161 145 OFFCURVE",
"189 182 OFFCURVE",
"334 182 CURVE",
"229 207 LINE",
"141 196 OFFCURVE",
"94 162 OFFCURVE",
"94 105 CURVE SMOOTH",
"94 59 OFFCURVE",
"124 12 OFFCURVE",
"244 12 CURVE SMOOTH",
"423 12 LINE SMOOTH",
"530 12 OFFCURVE",
"562 -17 OFFCURVE",
"562 -60 CURVE SMOOTH",
"562 -131 OFFCURVE",
"473 -160 OFFCURVE",
"352 -160 CURVE SMOOTH",
"190 -160 OFFCURVE",
"183 -109 OFFCURVE",
"139 -109 CURVE SMOOTH",
"118 -109 OFFCURVE",
"108 -121 OFFCURVE",
"108 -134 CURVE SMOOTH",
"108 -148 OFFCURVE",
"118 -159 OFFCURVE",
"135 -170 CURVE SMOOTH",
"174 -195 OFFCURVE",
"248 -212 OFFCURVE",
"351 -212 CURVE SMOOTH"
);
},
{
closed = 1;
nodes = (
"476 182 OFFCURVE",
"575 248 OFFCURVE",
"575 348 CURVE SMOOTH",
"575 400 OFFCURVE",
"549 446 OFFCURVE",
"481 474 CURVE",
"344 512 LINE",
"204 512 OFFCURVE",
"106 445 OFFCURVE",
"106 343 CURVE SMOOTH",
"106 243 OFFCURVE",
"200 182 OFFCURVE",
"334 182 CURVE SMOOTH"
);
},
{
closed = 1;
nodes = (
"241 234 OFFCURVE",
"174 272 OFFCURVE",
"174 345 CURVE SMOOTH",
"174 420 OFFCURVE",
"244 460 OFFCURVE",
"342 460 CURVE SMOOTH",
"440 460 OFFCURVE",
"507 422 OFFCURVE",
"507 349 CURVE SMOOTH",
"507 274 OFFCURVE",
"436 234 OFFCURVE",
"337 234 CURVE SMOOTH"
);
},
{
closed = 1;
nodes = (
"666 512 LINE",
"586 491 OFFCURVE",
"452 512 OFFCURVE",
"344 512 CURVE",
"467 467 LINE",
"557 450 OFFCURVE",
"633 447 OFFCURVE",
"666 456 CURVE"
);
}
);
width = 702;
},
{
anchors = (
{
name = bottom;
position = "{356, -200}";
},
{
name = top;
position = "{347, 500}";
}
);
layerId = "569359BB-C357-4838-A4FF-29094E5B79C2";
paths = (
{
closed = 1;
nodes = (
"552 -212 OFFCURVE",
"650 -150 OFFCURVE",
"650 -29 CURVE SMOOTH",
"650 79 OFFCURVE",
"572 124 OFFCURVE",
"425 124 CURVE SMOOTH",
"276 124 LINE SMOOTH",
"226 124 OFFCURVE",
"207 132 OFFCURVE",
"207 152 CURVE SMOOTH",
"207 175 OFFCURVE",
"233 192 OFFCURVE",
"327 192 CURVE",
"197 222 LINE",
"111 215 OFFCURVE",
"56 172 OFFCURVE",
"56 103 CURVE SMOOTH",
"56 39 OFFCURVE",
"102 -6 OFFCURVE",
"234 -6 CURVE SMOOTH",
"398 -6 LINE SMOOTH",
"471 -6 OFFCURVE",
"491 -24 OFFCURVE",
"491 -50 CURVE SMOOTH",
"491 -90 OFFCURVE",
"442 -107 OFFCURVE",
"362 -107 CURVE SMOOTH",
"241 -107 OFFCURVE",
"191 -66 OFFCURVE",
"135 -66 CURVE SMOOTH",
"94 -66 OFFCURVE",
"72 -86 OFFCURVE",
"72 -117 CURVE SMOOTH",
"72 -144 OFFCURVE",
"88 -161 OFFCURVE",
"121 -177 CURVE SMOOTH",
"164 -198 OFFCURVE",
"233 -212 OFFCURVE",
"330 -212 CURVE SMOOTH"
);
},
{
closed = 1;
nodes = (
"502 192 OFFCURVE",
"595 243 OFFCURVE",
"595 341 CURVE SMOOTH",
"595 401 OFFCURVE",
"562 439 OFFCURVE",
"510 459 CURVE",
"342 512 LINE",
"168 512 OFFCURVE",
"63 457 OFFCURVE",
"63 348 CURVE SMOOTH",
"63 243 OFFCURVE",
"160 192 OFFCURVE",
"327 192 CURVE SMOOTH"
);
},
{
closed = 1;
nodes = (
"276 275 OFFCURVE",
"238 302 OFFCURVE",
"238 351 CURVE SMOOTH",
"238 401 OFFCURVE",
"277 429 OFFCURVE",
"336 429 CURVE SMOOTH",
"394 429 OFFCURVE",
"431 402 OFFCURVE",
"431 354 CURVE SMOOTH",
"431 303 OFFCURVE",
"391 275 OFFCURVE",
"333 275 CURVE SMOOTH"
);
},
{
closed = 1;
nodes = (
"677 512 LINE",
"592 488 OFFCURVE",
"469 512 OFFCURVE",
"342 512 CURVE",
"494 413 LINE",
"567 383 OFFCURVE",
"629 365 OFFCURVE",
"677 380 CURVE"
);
}
);
width = 702;
}
);
leftMetricsKey = "=";
rightMetricsKey = "=";
unicode = 0067;
},
{
color = 1;
glyphname = h;
lastChange = "2025-07-30 13:42:41 +0000";
layers = (
{
anchors = (
{
name = bottom;
position = "{352, 0}";
},
{
name = center;
position = "{212, 576}";
},
{
name = top;
position = "{154, 720}";
}
);
layerId = "D8D2F0D2-8948-448B-99CD-378CDFD0E0AE";
paths = (
{
closed = 1;
nodes = (
"597 0 LINE",
"597 306 LINE SMOOTH",
"597 447 OFFCURVE",
"498 510 OFFCURVE",
"387 510 CURVE SMOOTH",
"301 510 OFFCURVE",
"205 472 OFFCURVE",
"161 374 CURVE",
"189 295 LINE",
"189 406 OFFCURVE",
"278 454 OFFCURVE",
"368 454 CURVE SMOOTH",
"452 454 OFFCURVE",
"527 413 OFFCURVE",
"527 303 CURVE SMOOTH",
"527 0 LINE"
);
},
{
closed = 1;
nodes = (
"189 0 LINE",
"189 720 LINE",
"119 720 LINE",
"119 0 LINE"
);
}
);
width = 702;
},
{
anchors = (
{
name = bottom;
position = "{349, 0}";
},
{
name = center;
position = "{218, 576}";
},
{
name = top;
position = "{165, 720}";
}
);
layerId = "569359BB-C357-4838-A4FF-29094E5B79C2";
name = Black;
paths = (
{
closed = 1;
nodes = (
"631 0 LINE",
"631 296 LINE SMOOTH",
"631 450 OFFCURVE",
"533 511 OFFCURVE",
"422 511 CURVE SMOOTH",
"333 511 OFFCURVE",
"256 471 OFFCURVE",
"219 385 CURVE",
"244 265 LINE",
"244 338 OFFCURVE",
"303 372 OFFCURVE",
"365 372 CURVE SMOOTH",
"424 372 OFFCURVE",
"469 342 OFFCURVE",
"469 272 CURVE SMOOTH",
"469 0 LINE"
);
},
{
closed = 1;
nodes = (
"244 0 LINE",
"244 720 LINE",
"83 720 LINE",
"83 0 LINE"
);
}
);
width = 702;
}
);
leftMetricsKey = "=";
rightMetricsKey = "=";
unicode = 0068;
},
{
glyphname = idotless;
lastChange = "2025-07-30 13:50:49 +0000";
layers = (
{
anchors = (
{
name = bottom;
position = "{126, 0}";
},
{
name = ogonek;
position = "{109, 0}";
},
{
name = top;
position = "{126, 500}";
}
);
layerId = "D8D2F0D2-8948-448B-99CD-378CDFD0E0AE";
paths = (
{
closed = 1;
nodes = (
"156 0 LINE",
"156 500 LINE",
"136 498 OFFCURVE",
"116 498 OFFCURVE",
"96 500 CURVE",
"96 0 LINE"
);
}
);
width = 252;
},
{
anchors = (
{
name = bottom;
position = "{361, 0}";
},
{
name = ogonek;
position = "{383, 0}";
},
{
name = top;
position = "{356, 500}";
}
);
layerId = "569359BB-C357-4838-A4FF-29094E5B79C2";
paths = (
{
closed = 1;
nodes = (
"431 0 LINE",
"431 500 LINE",
"279 500 LINE",
"279 0 LINE"
);
},
{
closed = 1;
nodes = (
"61 370 LINE",
"409 370 LINE",
"409 500 LINE",
"61 500 LINE"
);
},
{
closed = 1;
nodes = (
"61 0 LINE",
"649 0 LINE",
"649 130 LINE",
"61 130 LINE"
);
}
);
width = 724;
}
);
leftMetricsKey = "=";
rightMetricsKey = "=";
unicode = 0131;
},
{
glyphname = jdotless;
lastChange = "2025-07-30 13:50:20 +0000";
layers = (
{
anchors = (
{
name = top;
position = "{355, 500}";
}
);
layerId = "D8D2F0D2-8948-448B-99CD-378CDFD0E0AE";
paths = (
{
closed = 1;
nodes = (
"303 -212 OFFCURVE",
"423 -164 OFFCURVE",
"423 -71 CURVE SMOOTH",
"423 500 LINE",
"378 498 OFFCURVE",
"332 498 OFFCURVE",
"287 500 CURVE",
"287 -69 LINE SMOOTH",
"287 -135 OFFCURVE",
"212 -160 OFFCURVE",
"129 -160 CURVE SMOOTH",
"68 -160 OFFCURVE",
"38 -147 OFFCURVE",
"-3 -147 CURVE SMOOTH",
"-41 -147 OFFCURVE",
"-57 -159 OFFCURVE",
"-57 -171 CURVE SMOOTH",
"-57 -197 OFFCURVE",
"18 -212 OFFCURVE",
"120 -212 CURVE SMOOTH"
);
}
);
width = 702;
},
{
anchors = (
{
name = bottom;
position = "{351, -200}";
},
{
name = top;
position = "{431, 500}";
}
);
layerId = "569359BB-C357-4838-A4FF-29094E5B79C2";
paths = (
{
closed = 1;
nodes = (
"398 -212 OFFCURVE",
"512 -156 OFFCURVE",
"512 18 CURVE SMOOTH",
"512 500 LINE",
"360 500 LINE",
"360 28 LINE SMOOTH",
"360 -52 OFFCURVE",
"325 -72 OFFCURVE",
"266 -72 CURVE SMOOTH",
"209 -72 OFFCURVE",
"178 -52 OFFCURVE",
"130 -52 CURVE SMOOTH",
"73 -52 OFFCURVE",
"48 -81 OFFCURVE",
"48 -115 CURVE SMOOTH",
"48 -182 OFFCURVE",
"147 -212 OFFCURVE",
"253 -212 CURVE SMOOTH"
);
},
{
closed = 1;
nodes = (
"140 370 LINE",
"488 370 LINE",
"488 500 LINE",
"140 500 LINE"
);
}
);
width = 702;
}
);
rightMetricsKey = "=";
unicode = 0237;
},
{
color = 1;
glyphname = k;
lastChange = "2025-07-30 13:42:41 +0000";
layers = (
{
associatedMasterId = "D8D2F0D2-8948-448B-99CD-378CDFD0E0AE";
layerId = "F414CA67-C7A4-4130-ADBE-AF8DB7DEFE88";
name = "13 juin 25 à 12:41";
paths = (
{
closed = 1;
nodes = (
"160 0 LINE",
"160 740 LINE",
"100 740 LINE",
"100 0 LINE"
);
},
{
closed = 1;
nodes = (
"486 500 LINE",
"410 500 LINE",
"117 208 LINE",
"160 176 LINE"
);
},
{
closed = 1;
nodes = (
"201 272 LINE",
"425 17 LINE SMOOTH",
"444 -4 OFFCURVE",
"456 -11 OFFCURVE",
"470 -11 CURVE SMOOTH",
"500 -11 OFFCURVE",
"498 24 OFFCURVE",
"475 51 CURVE SMOOTH",
"254 304 LINE"
);
}
);
width = 522;
},
{
associatedMasterId = "D8D2F0D2-8948-448B-99CD-378CDFD0E0AE";
layerId = "CC0A56AD-B4D5-4762-864E-C76A9296D56A";
name = "18 juin 25 à 20:09";
paths = (
{
closed = 1;
nodes = (
"160 0 LINE",
"160 720 LINE",
"100 720 LINE",
"100 0 LINE"
);
},
{
closed = 1;
nodes = (
"486 500 LINE",
"410 500 LINE",
"117 208 LINE",
"160 176 LINE"
);
},
{
closed = 1;
nodes = (
"202 272 LINE",
"431 0 LINE",
"510 0 LINE",
"254 304 LINE"
);
}
);
width = 522;
},
{
anchors = (
{
name = bottom;
position = "{287, 0}";
},
{
name = top;
position = "{257, 720}";
}
);
associatedMasterId = "D8D2F0D2-8948-448B-99CD-378CDFD0E0AE";
layerId = "5898FF8C-4B7D-43BD-8962-C64F1CC8E9F5";
name = "30 juil. 25 à 09:53";
paths = (
{
closed = 1;
nodes = (
"156 0 LINE",
"156 720 LINE",
"96 720 LINE",
"96 0 LINE"
);
},
{
closed = 1;
nodes = (
"446 455 LINE SMOOTH",
"457 466 OFFCURVE",
"463 476 OFFCURVE",
"463 487 CURVE SMOOTH",
"463 501 OFFCURVE",
"454 512 OFFCURVE",
"438 512 CURVE SMOOTH",
"424 512 OFFCURVE",
"413 504 OFFCURVE",
"399 490 CURVE SMOOTH",
"113 218 LINE",
"156 186 LINE"
);
},
{
closed = 1;
nodes = (
"192 252 LINE",
"348 18 OFFCURVE",
"396 -26 OFFCURVE",
"496 0 CURVE",
"496 50 LINE",
"425 33 OFFCURVE",
"384 74 OFFCURVE",
"245 284 CURVE"
);
}
);
width = 528;
},
{
anchors = (
{
name = bottom;
position = "{380, 0}";
},
{
name = top;
position = "{342, 720}";
}
);
layerId = "D8D2F0D2-8948-448B-99CD-378CDFD0E0AE";
name = Thin;
paths = (
{
closed = 1;
nodes = (
"214 0 LINE",
"214 720 LINE",
"138 720 LINE",
"138 0 LINE"
);
},
{
closed = 1;
nodes = (
"381 79 OFFCURVE",
"460 -8 OFFCURVE",
"576 -8 CURVE SMOOTH",
"598 -8 OFFCURVE",
"614 -5 OFFCURVE",
"632 0 CURVE",
"632 50 LINE",
"535 32 OFFCURVE",
"488 67 OFFCURVE",
"256 296 CURVE",
"257 244 LINE",
"569 456 LINE SMOOTH",
"582 465 OFFCURVE",
"591 475 OFFCURVE",
"591 487 CURVE SMOOTH",
"591 501 OFFCURVE",
"580 512 OFFCURVE",
"560 512 CURVE SMOOTH",
"544 512 OFFCURVE",
"531 506 OFFCURVE",
"508 490 CURVE SMOOTH",
"187 267 LINE"
);
}
);
width = 702;
},
{
anchors = (
{
name = bottom;
position = "{382, 0}";
},
{
name = top;
position = "{346, 720}";
}
);
layerId = "569359BB-C357-4838-A4FF-29094E5B79C2";
name = Black;
paths = (
{
closed = 1;
nodes = (
"259 0 LINE",
"259 720 LINE",
"93 720 LINE",
"93 0 LINE"
);
},
{
closed = 1;
nodes = (
"374 59 OFFCURVE",
"457 -10 OFFCURVE",
"573 -10 CURVE SMOOTH",
"603 -10 OFFCURVE",
"628 -7 OFFCURVE",
"654 3 CURVE",
"654 121 LINE",
"570 108 OFFCURVE",
"537 130 OFFCURVE",
"354 330 CURVE",
"364 218 LINE",
"584 371 LINE SMOOTH",
"617 394 OFFCURVE",
"632 419 OFFCURVE",
"632 446 CURVE SMOOTH",
"632 484 OFFCURVE",
"601 512 OFFCURVE",
"557 512 CURVE SMOOTH",
"525 512 OFFCURVE",
"495 495 OFFCURVE",
"464 470 CURVE SMOOTH",
"206 262 LINE"
);
}
);
width = 702;
}
);
leftMetricsKey = "=";
rightMetricsKey = "=";
unicode = 006B;
},
{
color = 1;
glyphname = l;
lastChange = "2025-07-30 13:53:10 +0000";
layers = (
{
anchors = (
{
name = bottom;
position = "{451, 0}";
},
{
name = caron;
position = "{387, 500}";
},
{
name = center;
position = "{387, 350}";
},
{
name = top;
position = "{323, 720}";
}
);
layerId = "D8D2F0D2-8948-448B-99CD-378CDFD0E0AE";
paths = (
{
closed = 1;
nodes = (
"233 720 LINE",
"233 108 LINE SMOOTH",
"233 39 OFFCURVE",
"303 -12 OFFCURVE",
"487 -12 CURVE SMOOTH",
"539 -12 OFFCURVE",
"590 -8 OFFCURVE",
"644 2 CURVE",
"644 52 LINE",
"600 47 OFFCURVE",
"565 44 OFFCURVE",
"523 44 CURVE SMOOTH",
"426 44 OFFCURVE",
"387 60 OFFCURVE",
"387 115 CURVE SMOOTH",
"387 720 LINE"
);
}
);
width = 702;
},
{
associatedMasterId = "D8D2F0D2-8948-448B-99CD-378CDFD0E0AE";
layerId = "4CCB720F-D95D-4299-ADF9-9AF417344601";
name = "18 juin 25 à 19:52";
paths = (
{
closed = 1;
nodes = (
"160 0 LINE",
"160 720 LINE",
"100 720 LINE",
"100 0 LINE"
);
}
);
width = 260;
},
{
anchors = (
{
name = bottom;
position = "{426, 0}";
},
{
name = caron;
position = "{439, 500}";
},
{
name = center;
position = "{373, 361}";
},
{
name = top;
position = "{335, 720}";
}
);
layerId = "569359BB-C357-4838-A4FF-29094E5B79C2";
paths = (
{
closed = 1;
nodes = (
"218 720 LINE",
"218 159 LINE",
"380 168 LINE",
"380 720 LINE"
);
},
{
closed = 1;
nodes = (
"48 590 LINE",
"375 590 LINE",
"375 720 LINE",
"48 720 LINE"
);
},
{
closed = 1;
nodes = (
"218 159 LINE",
"218 51 OFFCURVE",
"301 -12 OFFCURVE",
"451 -12 CURVE SMOOTH",
"511 -12 OFFCURVE",
"564 -3 OFFCURVE",
"611 9 CURVE",
"611 128 LINE",
"569 121 OFFCURVE",
"533 116 OFFCURVE",
"491 116 CURVE SMOOTH",
"414 116 OFFCURVE",
"379 133 OFFCURVE",
"379 184 CURVE"
);
}
);
width = 702;
},
{
anchors = (
{
name = bottom;
position = "{426, 0}";
},
{
name = caron;
position = "{439, 500}";
},
{
name = center;
position = "{373, 361}";
},
{
name = top;
position = "{335, 720}";
}
);
associatedMasterId = "569359BB-C357-4838-A4FF-29094E5B79C2";
layerId = "E7B80F0F-C4D3-46A5-9651-960DFE70CB8F";
name = "30 juil. 25 à 15:52";
paths = (
{
closed = 1;
nodes = (
"178 720 LINE",
"178 218 LINE SMOOTH",
"178 60 OFFCURVE",
"256 -12 OFFCURVE",
"448 -12 CURVE SMOOTH",
"523 -12 OFFCURVE",
"584 -2 OFFCURVE",
"642 21 CURVE",
"642 139 LINE",
"591 125 OFFCURVE",
"529 118 OFFCURVE",
"469 118 CURVE SMOOTH",
"384 118 OFFCURVE",
"340 132 OFFCURVE",
"340 227 CURVE SMOOTH",
"340 720 LINE"
);
},
{
closed = 1;
nodes = (
"28 590 LINE",
"335 590 LINE",
"335 720 LINE",
"28 720 LINE"
);
}
);
width = 702;
}
);
leftMetricsKey = "=";
rightMetricsKey = "=";
unicode = 006C;
},
{
color = 1;
glyphname = m;
lastChange = "2025-07-30 13:42:41 +0000";
layers = (
{
layerId = "D8D2F0D2-8948-448B-99CD-378CDFD0E0AE";
paths = (
{
closed = 1;
nodes = (
"661 0 LINE",
"661 304 LINE SMOOTH",
"661 445 OFFCURVE",
"597 510 OFFCURVE",
"519 510 CURVE SMOOTH",
"458 510 OFFCURVE",
"387 471 OFFCURVE",
"353 374 CURVE",
"380 295 LINE",
"380 405 OFFCURVE",
"443 454 OFFCURVE",
"507 454 CURVE SMOOTH",
"567 454 OFFCURVE",
"612 412 OFFCURVE",
"612 303 CURVE SMOOTH",
"612 0 LINE"
);
},
{
closed = 1;
nodes = (
"99 0 LINE",
"99 500 LINE",
"50 500 LINE",
"50 0 LINE"
);
},
{
closed = 1;
nodes = (
"380 0 LINE",
"380 314 LINE SMOOTH",
"380 445 OFFCURVE",
"316 510 OFFCURVE",
"238 510 CURVE SMOOTH",
"178 510 OFFCURVE",
"111 472 OFFCURVE",
"80 374 CURVE",
"99 295 LINE",
"99 406 OFFCURVE",
"163 454 OFFCURVE",
"227 454 CURVE SMOOTH",
"286 454 OFFCURVE",
"331 412 OFFCURVE",
"331 303 CURVE SMOOTH",
"331 0 LINE"
);
}
);
width = 702;
},
{
associatedMasterId = "D8D2F0D2-8948-448B-99CD-378CDFD0E0AE";
layerId = "B58A1CFB-56A1-4CF5-8CAB-A58ADA8443C7";
name = "11 juin 25 à 15:21";
paths = (
{
closed = 1;
nodes = (
"482 0 LINE",
"482 338 LINE SMOOTH",
"482 453 OFFCURVE",
"412 510 OFFCURVE",
"325 510 CURVE SMOOTH",
"254 510 OFFCURVE",
"174 472 OFFCURVE",
"136 384 CURVE",
"160 335 LINE",
"160 406 OFFCURVE",
"240 454 OFFCURVE",
"312 454 CURVE SMOOTH",
"377 454 OFFCURVE",
"422 415 OFFCURVE",
"422 325 CURVE SMOOTH",
"422 0 LINE"
);
},
{
closed = 1;
nodes = (
"160 0 LINE",
"160 500 LINE",
"100 500 LINE",
"100 0 LINE"
);
},
{
closed = 1;
nodes = (
"804 0 LINE",
"804 338 LINE SMOOTH",
"804 453 OFFCURVE",
"734 510 OFFCURVE",
"647 510 CURVE SMOOTH",
"576 510 OFFCURVE",
"494 472 OFFCURVE",
"456 384 CURVE",
"482 335 LINE",
"482 406 OFFCURVE",
"562 454 OFFCURVE",
"634 454 CURVE SMOOTH",
"699 454 OFFCURVE",
"744 415 OFFCURVE",
"744 325 CURVE SMOOTH",
"744 0 LINE"
);
}
);
visible = 1;
width = 894;
},
{
layerId = "569359BB-C357-4838-A4FF-29094E5B79C2";
paths = (
{
closed = 1;
nodes = (
"691 0 LINE",
"691 306 LINE SMOOTH",
"691 450 OFFCURVE",
"628 511 OFFCURVE",
"548 511 CURVE SMOOTH",
"485 511 OFFCURVE",
"418 474 OFFCURVE",
"384 385 CURVE",
"422 265 LINE",
"422 338 OFFCURVE",
"459 372 OFFCURVE",
"496 372 CURVE SMOOTH",
"531 372 OFFCURVE",
"558 345 OFFCURVE",
"558 275 CURVE SMOOTH",
"558 0 LINE"
);
},
{
closed = 1;
nodes = (
"152 0 LINE",
"152 500 LINE",
"20 500 LINE",
"20 0 LINE"
);
},
{
closed = 1;
nodes = (
"422 0 LINE",
"422 311 LINE SMOOTH",
"422 450 OFFCURVE",
"362 511 OFFCURVE",
"280 511 CURVE SMOOTH",
"214 511 OFFCURVE",
"161 470 OFFCURVE",
"135 385 CURVE",
"152 265 LINE",
"152 338 OFFCURVE",
"189 372 OFFCURVE",
"228 372 CURVE SMOOTH",
"261 372 OFFCURVE",
"289 345 OFFCURVE",
"289 275 CURVE SMOOTH",
"289 0 LINE"
);
}
);
width = 702;
}
);
leftMetricsKey = "=";
rightMetricsKey = "=";
unicode = 006D;
},
{
color = 1;
glyphname = n;
lastChange = "2025-07-30 13:42:41 +0000";
layers = (
{
anchors = (
{
name = bottom;
position = "{364, 0}";
},
{
name = top;
position = "{367, 500}";
}
);
layerId = "D8D2F0D2-8948-448B-99CD-378CDFD0E0AE";
paths = (
{
closed = 1;
nodes = (
"597 0 LINE",
"597 306 LINE SMOOTH",
"597 447 OFFCURVE",
"498 510 OFFCURVE",
"387 510 CURVE SMOOTH",
"301 510 OFFCURVE",
"205 472 OFFCURVE",
"161 374 CURVE",
"189 295 LINE",
"189 406 OFFCURVE",
"278 454 OFFCURVE",
"368 454 CURVE SMOOTH",
"452 454 OFFCURVE",
"527 413 OFFCURVE",
"527 303 CURVE SMOOTH",
"527 0 LINE"
);
},
{
closed = 1;
nodes = (
"189 0 LINE",
"189 500 LINE",
"119 500 LINE",
"119 0 LINE"
);
}
);
width = 702;
},
{
associatedMasterId = "D8D2F0D2-8948-448B-99CD-378CDFD0E0AE";
layerId = "30D0AD92-E07E-4A8A-AFE4-26D7A8370F62";
name = "Aug 11 21, 17:18";
paths = (
{
closed = 1;
nodes = (
"472 0 LINE",
"472 348 LINE SMOOTH",
"472 453 OFFCURVE",
"416 510 OFFCURVE",
"324 510 CURVE SMOOTH",
"249 510 OFFCURVE",
"180 472 OFFCURVE",
"132 394 CURVE",
"160 374 LINE",
"201 428 OFFCURVE",
"257 454 OFFCURVE",
"312 454 CURVE SMOOTH",
"379 454 OFFCURVE",
"412 415 OFFCURVE",
"412 335 CURVE SMOOTH",
"412 0 LINE"
);
},
{
closed = 1;
nodes = (
"160 0 LINE",
"160 500 LINE",
"100 500 LINE",
"100 0 LINE"
);
}
);
width = 562;
},
{
anchors = (
{
name = bottom;
position = "{361, 0}";
},
{
name = top;
position = "{365, 500}";
}
);
layerId = "569359BB-C357-4838-A4FF-29094E5B79C2";
paths = (
{
closed = 1;
nodes = (
"631 0 LINE",
"631 296 LINE SMOOTH",
"631 450 OFFCURVE",
"533 511 OFFCURVE",
"422 511 CURVE SMOOTH",
"333 511 OFFCURVE",
"256 471 OFFCURVE",
"219 385 CURVE",
"244 265 LINE",
"244 338 OFFCURVE",
"303 372 OFFCURVE",
"365 372 CURVE SMOOTH",
"424 372 OFFCURVE",
"469 342 OFFCURVE",
"469 272 CURVE SMOOTH",
"469 0 LINE"
);
},
{
closed = 1;
nodes = (
"244 0 LINE",
"244 500 LINE",
"82 500 LINE",
"82 0 LINE"
);
}
);
width = 702;
}
);
leftMetricsKey = "=";
rightMetricsKey = "=";
unicode = 006E;
},
{
color = 1;
glyphname = o;
lastChange = "2025-07-30 13:42:41 +0000";
layers = (
{
anchors = (
{
name = bottom;
position = "{353, 0}";
},
{
name = center;
position = "{353, 250}";
},
{
name = ogonek;
position = "{604, 10}";
},
{
name = top;
position = "{353, 500}";
},
{
name = topright;
position = "{644, 500}";
}
);
layerId = "D8D2F0D2-8948-448B-99CD-378CDFD0E0AE";
paths = (
{
closed = 1;
nodes = (
"81 87 OFFCURVE",
"191 -12 OFFCURVE",
"348 -12 CURVE SMOOTH",
"510 -12 OFFCURVE",
"621 95 OFFCURVE",
"621 256 CURVE SMOOTH",
"621 413 OFFCURVE",
"511 512 OFFCURVE",
"354 512 CURVE SMOOTH",
"192 512 OFFCURVE",
"81 405 OFFCURVE",
"81 244 CURVE SMOOTH"
);
},
{
closed = 1;
nodes = (
"151 378 OFFCURVE",
"239 460 OFFCURVE",
"354 460 CURVE SMOOTH",
"467 460 OFFCURVE",
"551 381 OFFCURVE",
"551 253 CURVE SMOOTH",
"551 122 OFFCURVE",
"463 40 OFFCURVE",
"348 40 CURVE SMOOTH",
"235 40 OFFCURVE",
"151 119 OFFCURVE",
"151 247 CURVE SMOOTH"
);
}
);
width = 702;
},
{
associatedMasterId = "D8D2F0D2-8948-448B-99CD-378CDFD0E0AE";
layerId = "0DCA402F-CCFE-40A6-8C45-36FD42F23271";
name = "Sep 11 21, 15:54";
paths = (
{
closed = 1;
nodes = (
"46 83 OFFCURVE",
"133 -10 OFFCURVE",
"262 -10 CURVE SMOOTH",
"396 -10 OFFCURVE",
"486 92 OFFCURVE",
"486 257 CURVE SMOOTH",
"486 417 OFFCURVE",
"399 510 OFFCURVE",
"270 510 CURVE SMOOTH",
"136 510 OFFCURVE",
"46 408 OFFCURVE",
"46 243 CURVE SMOOTH"
);
},
{
closed = 1;
nodes = (
"108 381 OFFCURVE",
"172 458 OFFCURVE",
"269 458 CURVE SMOOTH",
"365 458 OFFCURVE",
"424 382 OFFCURVE",
"424 253 CURVE SMOOTH",
"424 119 OFFCURVE",
"360 42 OFFCURVE",
"263 42 CURVE SMOOTH",
"167 42 OFFCURVE",
"108 118 OFFCURVE",
"108 247 CURVE SMOOTH"
);
}
);
width = 532;
},
{
anchors = (
{
name = bottom;
position = "{352, 0}";
},
{
name = center;
position = "{352, 250}";
},
{
name = ogonek;
position = "{607, 10}";
},
{
name = top;
position = "{352, 500}";
},
{
name = topright;
position = "{650, 500}";
}
);
layerId = "569359BB-C357-4838-A4FF-29094E5B79C2";
paths = (
{
closed = 1;
nodes = (
"56 87 OFFCURVE",
"175 -12 OFFCURVE",
"350 -12 CURVE SMOOTH",
"533 -12 OFFCURVE",
"646 95 OFFCURVE",
"646 253 CURVE SMOOTH",
"646 413 OFFCURVE",
"528 512 OFFCURVE",
"352 512 CURVE SMOOTH",
"169 512 OFFCURVE",
"56 405 OFFCURVE",
"56 247 CURVE SMOOTH"
);
},
{
closed = 1;
nodes = (
"221 334 OFFCURVE",
"278 385 OFFCURVE",
"353 385 CURVE SMOOTH",
"426 385 OFFCURVE",
"481 336 OFFCURVE",
"481 252 CURVE SMOOTH",
"481 166 OFFCURVE",
"424 115 OFFCURVE",
"349 115 CURVE SMOOTH",
"276 115 OFFCURVE",
"221 164 OFFCURVE",
"221 248 CURVE SMOOTH"
);
}
);
width = 702;
}
);
leftMetricsKey = "=";
rightMetricsKey = "=";
unicode = 006F;
},
{
glyphname = oslash;
lastChange = "2025-07-30 13:33:28 +0000";
layers = (
{
components = (
{
name = o;
}
);
layerId = "D8D2F0D2-8948-448B-99CD-378CDFD0E0AE";
paths = (
{
closed = 1;
nodes = (
"134 0 LINE",
"193 72 LINE",
"195 75 LINE",
"484 425 LINE",
"485 426 LINE",
"546 500 LINE",
"478 500 LINE",
"417 426 LINE",
"416 425 LINE",
"127 75 LINE",
"125 72 LINE",
"66 0 LINE"
);
}
);
width = 612;
},
{
components = (
{
alignment = -1;
name = o;
}
);
layerId = "569359BB-C357-4838-A4FF-29094E5B79C2";
paths = (
{
closed = 1;
nodes = (
"152 0 LINE",
"221 84 LINE",
"237 109 LINE",
"484 407 LINE",
"502 423 LINE",
"567 500 LINE",
"458 500 LINE",
"394 423 LINE",
"387 407 LINE",
"140 109 LINE",
"113 84 LINE",
"44 0 LINE"
);
}
);
width = 611;
}
);
unicode = 00F8;
},
{
color = 1;
glyphname = p;
lastChange = "2025-07-30 13:46:57 +0000";
layers = (
{
background = {
paths = (
{
closed = 1;
nodes = (
"80 -224 LINE",
"155 -224 LINE",
"155 99 LINE",
"199 24 OFFCURVE",
"270 -11 OFFCURVE",
"353 -11 CURVE SMOOTH",
"504 -11 OFFCURVE",
"601 106 OFFCURVE",
"601 249 CURVE SMOOTH",
"601 392 OFFCURVE",
"504 509 OFFCURVE",
"353 509 CURVE SMOOTH",
"270 509 OFFCURVE",
"199 474 OFFCURVE",
"155 399 CURVE",
"155 498 LINE",
"80 498 LINE"
);
},
{
closed = 1;
nodes = (
"526 142 OFFCURVE",
"459 56 OFFCURVE",
"346 56 CURVE SMOOTH",
"240 56 OFFCURVE",
"154 133 OFFCURVE",
"154 249 CURVE SMOOTH",
"154 365 OFFCURVE",
"240 442 OFFCURVE",
"346 442 CURVE SMOOTH",
"459 442 OFFCURVE",
"526 354 OFFCURVE",
"526 249 CURVE SMOOTH"
);
}
);
};
components = (
{
name = _panse;
transform = "{1, 0, 0, 1, -4, 0}";
}
);
layerId = "D8D2F0D2-8948-448B-99CD-378CDFD0E0AE";
paths = (
{
closed = 1;
nodes = (
"156 -200 LINE",
"156 500 LINE",
"96 500 LINE",
"96 -200 LINE"
);
}
);
width = 618;
},
{
associatedMasterId = "D8D2F0D2-8948-448B-99CD-378CDFD0E0AE";
layerId = "B4172C5F-8A79-465F-B86A-A08CD5C862AE";
name = "11 juin 25 à 15:12";
paths = (
{
closed = 1;
nodes = (
"81 -224 LINE",
"156 -224 LINE",
"156 99 LINE",
"200 24 OFFCURVE",
"271 -11 OFFCURVE",
"354 -11 CURVE SMOOTH",
"505 -11 OFFCURVE",
"602 106 OFFCURVE",
"602 249 CURVE SMOOTH",
"602 392 OFFCURVE",
"505 509 OFFCURVE",
"354 509 CURVE SMOOTH",
"271 509 OFFCURVE",
"200 474 OFFCURVE",
"156 399 CURVE",
"156 498 LINE",
"81 498 LINE"
);
},
{
closed = 1;
nodes = (
"527 142 OFFCURVE",
"460 56 OFFCURVE",
"347 56 CURVE SMOOTH",
"241 56 OFFCURVE",
"155 133 OFFCURVE",
"155 249 CURVE SMOOTH",
"155 365 OFFCURVE",
"241 442 OFFCURVE",
"347 442 CURVE SMOOTH",
"460 442 OFFCURVE",
"527 354 OFFCURVE",
"527 249 CURVE SMOOTH"
);
}
);
width = 610;
},
{
associatedMasterId = "D8D2F0D2-8948-448B-99CD-378CDFD0E0AE";
background = {
paths = (
{
closed = 1;
nodes = (
"84 -224 LINE",
"159 -224 LINE",
"159 99 LINE",
"203 24 OFFCURVE",
"274 -11 OFFCURVE",
"357 -11 CURVE SMOOTH",
"508 -11 OFFCURVE",
"605 106 OFFCURVE",
"605 249 CURVE SMOOTH",
"605 392 OFFCURVE",
"508 509 OFFCURVE",
"357 509 CURVE SMOOTH",
"274 509 OFFCURVE",
"203 474 OFFCURVE",
"159 399 CURVE",
"159 498 LINE",
"84 498 LINE"
);
},
{
closed = 1;
nodes = (
"530 142 OFFCURVE",
"463 56 OFFCURVE",
"350 56 CURVE SMOOTH",
"244 56 OFFCURVE",
"158 133 OFFCURVE",
"158 249 CURVE SMOOTH",
"158 365 OFFCURVE",
"244 442 OFFCURVE",
"350 442 CURVE SMOOTH",
"463 442 OFFCURVE",
"530 354 OFFCURVE",
"530 249 CURVE SMOOTH"
);
}
);
};
layerId = "AEC433F0-6DD1-496F-B21E-F10069AA1E37";
name = "26 juin 25 à 12:12";
paths = (
{
closed = 1;
nodes = (
"160 -200 LINE",
"160 500 LINE",
"100 500 LINE",
"100 -200 LINE"
);
},
{
closed = 1;
nodes = (
"160 295 LINE",
"160 406 OFFCURVE",
"239 454 OFFCURVE",
"316 454 CURVE SMOOTH",
"392 454 OFFCURVE",
"498 407 OFFCURVE",
"498 252 CURVE SMOOTH",
"498 107 OFFCURVE",
"402 44 OFFCURVE",
"319 44 CURVE SMOOTH",
"238 44 OFFCURVE",
"160 104 OFFCURVE",
"160 205 CURVE",
"138 112 LINE",
"164 27 OFFCURVE",
"241 -10 OFFCURVE",
"322 -10 CURVE SMOOTH",
"457 -10 OFFCURVE",
"562 92 OFFCURVE",
"562 252 CURVE SMOOTH",
"562 438 OFFCURVE",
"428 510 OFFCURVE",
"323 510 CURVE SMOOTH",
"245 510 OFFCURVE",
"164 472 OFFCURVE",
"126 374 CURVE"
);
}
);
width = 628;
},
{
layerId = "569359BB-C357-4838-A4FF-29094E5B79C2";
name = Black;
paths = (
{
closed = 1;
nodes = (
"228 -200 LINE",
"228 500 LINE",
"78 500 LINE",
"78 -200 LINE"
);
},
{
closed = 1;
nodes = (
"228 272 LINE",
"228 350 OFFCURVE",
"288 382 OFFCURVE",
"347 382 CURVE SMOOTH",
"405 382 OFFCURVE",
"472 351 OFFCURVE",
"472 249 CURVE SMOOTH",
"472 152 OFFCURVE",
"411 113 OFFCURVE",
"347 113 CURVE SMOOTH",
"284 113 OFFCURVE",
"228 151 OFFCURVE",
"228 221 CURVE",
"213 101 LINE",
"235 27 OFFCURVE",
"306 -12 OFFCURVE",
"395 -12 CURVE SMOOTH",
"532 -12 OFFCURVE",
"638 90 OFFCURVE",
"638 253 CURVE SMOOTH",
"638 426 OFFCURVE",
"519 512 OFFCURVE",
"402 512 CURVE SMOOTH",
"318 512 OFFCURVE",
"239 473 OFFCURVE",
"206 385 CURVE"
);
}
);
width = 702;
}
);
leftMetricsKey = "=n";
rightMetricsKey = "=o";
unicode = 0070;
},
{
color = 4;
glyphname = thorn;
lastChange = "2025-07-30 13:33:28 +0000";
layers = (
{
components = (
{
name = _panse;
transform = "{1, 0, 0, 1, -4, 0}";
}
);
layerId = "D8D2F0D2-8948-448B-99CD-378CDFD0E0AE";
paths = (
{
closed = 1;
nodes = (
"156 -200 LINE",
"156 720 LINE",
"96 720 LINE",
"96 -200 LINE"
);
}
);
width = 618;
},
{
components = (
{
alignment = -1;
name = _panse;
transform = "{1, 0, 0, 1, 50, 0}";
}
);
layerId = "569359BB-C357-4838-A4FF-29094E5B79C2";
paths = (
{
closed = 1;
nodes = (
"207 -200 LINE",
"207 720 LINE",
"60 720 LINE",
"60 -200 LINE"
);
}
);
width = 610;
}
);
leftMetricsKey = "=n";
rightMetricsKey = "=o";
unicode = 00FE;
},
{
color = 1;
glyphname = q;
lastChange = "2025-07-30 13:47:21 +0000";
layers = (
{
components = (
{
name = _panse;
transform = "{-1, 0, 0, -1, 622, 500}";
}
);
layerId = "D8D2F0D2-8948-448B-99CD-378CDFD0E0AE";
paths = (
{
closed = 1;
nodes = (
"462 500 LINE",
"462 -200 LINE",
"522 -200 LINE",
"522 500 LINE"
);
}
);
width = 618;
},
{
layerId = "569359BB-C357-4838-A4FF-29094E5B79C2";
paths = (
{
closed = 1;
nodes = (
"454 500 LINE",
"454 -200 LINE",
"604 -200 LINE",
"604 500 LINE"
);
},
{
closed = 1;
nodes = (
"454 228 LINE",
"454 150 OFFCURVE",
"394 118 OFFCURVE",
"335 118 CURVE SMOOTH",
"277 118 OFFCURVE",
"210 149 OFFCURVE",
"210 251 CURVE SMOOTH",
"210 348 OFFCURVE",
"271 387 OFFCURVE",
"335 387 CURVE SMOOTH",
"398 387 OFFCURVE",
"454 349 OFFCURVE",
"454 279 CURVE",
"469 399 LINE",
"447 473 OFFCURVE",
"376 512 OFFCURVE",
"287 512 CURVE SMOOTH",
"150 512 OFFCURVE",
"44 410 OFFCURVE",
"44 247 CURVE SMOOTH",
"44 74 OFFCURVE",
"163 -12 OFFCURVE",
"280 -12 CURVE SMOOTH",
"364 -12 OFFCURVE",
"443 27 OFFCURVE",
"476 115 CURVE"
);
}
);
width = 702;
}
);
leftMetricsKey = "=";
rightMetricsKey = "=";
unicode = 0071;
},
{
color = 1;
glyphname = r;
lastChange = "2025-07-30 13:42:41 +0000";
layers = (
{
anchors = (
{
name = bottom;
position = "{260, 0}";
},
{
name = top;
position = "{402, 500}";
}
);
layerId = "D8D2F0D2-8948-448B-99CD-378CDFD0E0AE";
paths = (
{
closed = 1;
nodes = (
"302 0 LINE",
"302 500 LINE",
"193 500 LINE",
"193 0 LINE"
);
},
{
closed = 1;
nodes = (
"302 383 OFFCURVE",
"390 448 OFFCURVE",
"499 448 CURVE SMOOTH",
"532 448 OFFCURVE",
"559 442 OFFCURVE",
"586 442 CURVE SMOOTH",
"624 442 OFFCURVE",
"641 454 OFFCURVE",
"641 470 CURVE SMOOTH",
"641 499 OFFCURVE",
"588 512 OFFCURVE",
"530 512 CURVE SMOOTH",
"430 512 OFFCURVE",
"325 473 OFFCURVE",
"259 374 CURVE",
"302 295 LINE"
);
}
);
width = 702;
},
{
associatedMasterId = "D8D2F0D2-8948-448B-99CD-378CDFD0E0AE";
layerId = "973305A6-CB09-4D92-8EB1-B39FAB9D1BE7";
name = "17 juin 25 à 11:33";
paths = (
{
closed = 1;
nodes = (
"160 0 LINE",
"160 500 LINE",
"100 500 LINE",
"100 0 LINE"
);
},
{
closed = 1;
nodes = (
"160 393 OFFCURVE",
"217 443 OFFCURVE",
"303 443 CURVE SMOOTH",
"340 443 OFFCURVE",
"352 455 OFFCURVE",
"352 474 CURVE SMOOTH",
"352 495 OFFCURVE",
"337 510 OFFCURVE",
"303 510 CURVE SMOOTH",
"249 510 OFFCURVE",
"174 472 OFFCURVE",
"136 374 CURVE",
"160 315 LINE"
);
}
);
width = 370;
},
{
anchors = (
{
name = bottom;
position = "{239, 0}";
},
{
name = top;
position = "{372, 500}";
}
);
layerId = "569359BB-C357-4838-A4FF-29094E5B79C2";
name = Black;
paths = (
{
closed = 1;
nodes = (
"329 0 LINE",
"329 500 LINE",
"131 500 LINE",
"131 0 LINE"
);
},
{
closed = 1;
nodes = (
"329 307 OFFCURVE",
"384 351 OFFCURVE",
"458 351 CURVE SMOOTH",
"487 351 OFFCURVE",
"514 340 OFFCURVE",
"551 340 CURVE SMOOTH",
"606 340 OFFCURVE",
"647 367 OFFCURVE",
"647 421 CURVE SMOOTH",
"647 486 OFFCURVE",
"582 512 OFFCURVE",
"517 512 CURVE SMOOTH",
"423 512 OFFCURVE",
"343 466 OFFCURVE",
"301 385 CURVE",
"329 228 LINE"
);
}
);
width = 702;
}
);
leftMetricsKey = "=";
rightMetricsKey = "=";
unicode = 0072;
},
{
color = 1;
glyphname = s;
lastChange = "2025-07-30 13:42:41 +0000";
layers = (
{
anchors = (
{
name = bottom;
position = "{354, 0}";
},
{
name = top;
position = "{368, 500}";
}
);
guideLines = (
{
angle = 220.9144;
position = "{268, 375}";
}
);
layerId = "D8D2F0D2-8948-448B-99CD-378CDFD0E0AE";
paths = (
{
closed = 1;
nodes = (
"533 -12 OFFCURVE",
"607 52 OFFCURVE",
"607 129 CURVE SMOOTH",
"607 312 OFFCURVE",
"203 246 OFFCURVE",
"203 375 CURVE SMOOTH",
"203 419 OFFCURVE",
"251 462 OFFCURVE",
"362 462 CURVE SMOOTH",
"504 462 OFFCURVE",
"501 393 OFFCURVE",
"553 393 CURVE SMOOTH",
"571 393 OFFCURVE",
"585 402 OFFCURVE",
"585 420 CURVE SMOOTH",
"585 468 OFFCURVE",
"491 512 OFFCURVE",
"362 512 CURVE SMOOTH",
"204 512 OFFCURVE",
"123 446 OFFCURVE",
"123 368 CURVE SMOOTH",
"123 194 OFFCURVE",
"526 258 OFFCURVE",
"526 125 CURVE SMOOTH",
"526 78 OFFCURVE",
"476 38 OFFCURVE",
"358 38 CURVE SMOOTH",
"274 38 OFFCURVE",
"194 58 OFFCURVE",
"117 101 CURVE",
"117 40 LINE",
"163 12 OFFCURVE",
"246 -12 OFFCURVE",
"356 -12 CURVE SMOOTH"
);
}
);
width = 702;
},
{
associatedMasterId = "D8D2F0D2-8948-448B-99CD-378CDFD0E0AE";
layerId = "C761C3B0-11A6-42B5-A1D5-C1338B683BD5";
name = "Aug 25 21, 16:11";
paths = (
{
closed = 1;
nodes = (
"65 34 OFFCURVE",
"123 -10 OFFCURVE",
"215 -10 CURVE SMOOTH",
"323 -10 OFFCURVE",
"386 50 OFFCURVE",
"386 129 CURVE SMOOTH",
"386 294 OFFCURVE",
"116 256 OFFCURVE",
"116 377 CURVE SMOOTH",
"116 419 OFFCURVE",
"148 460 OFFCURVE",
"217 460 CURVE SMOOTH",
"281 460 OFFCURVE",
"310 425 OFFCURVE",
"327 373 CURVE",
"382 392 LINE",
"357 466 OFFCURVE",
"302 510 OFFCURVE",
"218 510 CURVE SMOOTH",
"118 510 OFFCURVE",
"58 448 OFFCURVE",
"58 371 CURVE SMOOTH",
"58 206 OFFCURVE",
"328 244 OFFCURVE",
"328 123 CURVE SMOOTH",
"328 78 OFFCURVE",
"292 40 OFFCURVE",
"217 40 CURVE SMOOTH",
"145 40 OFFCURVE",
"112 75 OFFCURVE",
"95 127 CURVE",
"40 108 LINE"
);
}
);
width = 426;
},
{
anchors = (
{
name = bottom;
position = "{353, 0}";
},
{
name = top;
position = "{366, 500}";
}
);
layerId = "569359BB-C357-4838-A4FF-29094E5B79C2";
name = Black;
paths = (
{
closed = 1;
nodes = (
"534 -12 OFFCURVE",
"638 54 OFFCURVE",
"638 150 CURVE SMOOTH",
"638 329 OFFCURVE",
"270 282 OFFCURVE",
"270 368 CURVE SMOOTH",
"270 394 OFFCURVE",
"300 417 OFFCURVE",
"364 417 CURVE SMOOTH",
"465 417 OFFCURVE",
"496 354 OFFCURVE",
"560 354 CURVE SMOOTH",
"598 354 OFFCURVE",
"624 374 OFFCURVE",
"624 407 CURVE SMOOTH",
"624 468 OFFCURVE",
"523 512 OFFCURVE",
"373 512 CURVE SMOOTH",
"182 512 OFFCURVE",
"78 441 OFFCURVE",
"78 347 CURVE SMOOTH",
"78 171 OFFCURVE",
"446 217 OFFCURVE",
"446 130 CURVE SMOOTH",
"446 104 OFFCURVE",
"414 83 OFFCURVE",
"344 83 CURVE SMOOTH",
"277 83 OFFCURVE",
"186 104 OFFCURVE",
"84 157 CURVE",
"84 33 LINE",
"151 6 OFFCURVE",
"234 -12 OFFCURVE",
"338 -12 CURVE SMOOTH"
);
}
);
width = 702;
}
);
leftMetricsKey = "=";
rightMetricsKey = "=";
unicode = 0073;
},
{
color = 4;
glyphname = germandbls;
lastChange = "2025-07-30 13:33:28 +0000";
layers = (
{
layerId = "D8D2F0D2-8948-448B-99CD-378CDFD0E0AE";
paths = (
{
closed = 1;
nodes = (
"156 0 LINE",
"156 529 LINE SMOOTH",
"156 625 OFFCURVE",
"200 680 OFFCURVE",
"303 680 CURVE SMOOTH",
"379 680 OFFCURVE",
"437 648 OFFCURVE",
"437 590 CURVE SMOOTH",
"437 486 OFFCURVE",
"244 496 OFFCURVE",
"244 359 CURVE SMOOTH",
"244 188 OFFCURVE",
"534 258 OFFCURVE",
"534 125 CURVE SMOOTH",
"534 78 OFFCURVE",
"498 40 OFFCURVE",
"414 40 CURVE SMOOTH",
"355 40 OFFCURVE",
"305 58 OFFCURVE",
"250 101 CURVE",
"250 40 LINE",
"283 12 OFFCURVE",
"338 -10 OFFCURVE",
"413 -10 CURVE SMOOTH",
"539 -10 OFFCURVE",
"592 52 OFFCURVE",
"592 131 CURVE SMOOTH",
"592 318 OFFCURVE",
"302 246 OFFCURVE",
"302 366 CURVE SMOOTH",
"302 463 OFFCURVE",
"495 446 OFFCURVE",
"495 589 CURVE SMOOTH",
"495 668 OFFCURVE",
"433 732 OFFCURVE",
"303 732 CURVE SMOOTH",
"162 732 OFFCURVE",
"96 652 OFFCURVE",
"96 529 CURVE SMOOTH",
"96 0 LINE"
);
}
);
width = 644;
},
{
layerId = "569359BB-C357-4838-A4FF-29094E5B79C2";
paths = (
{
closed = 1;
nodes = (
"207 0 LINE",
"207 498 LINE SMOOTH",
"207 568 OFFCURVE",
"237 609 OFFCURVE",
"315 609 CURVE SMOOTH",
"369 609 OFFCURVE",
"406 588 OFFCURVE",
"406 551 CURVE SMOOTH",
"406 480 OFFCURVE",
"263 475 OFFCURVE",
"263 349 CURVE SMOOTH",
"263 180 OFFCURVE",
"511 218 OFFCURVE",
"511 130 CURVE SMOOTH",
"511 104 OFFCURVE",
"489 84 OFFCURVE",
"440 84 CURVE SMOOTH",
"388 84 OFFCURVE",
"333 105 OFFCURVE",
"271 157 CURVE",
"271 31 LINE",
"313 6 OFFCURVE",
"374 -11 OFFCURVE",
"444 -11 CURVE SMOOTH",
"588 -11 OFFCURVE",
"656 60 OFFCURVE",
"656 154 CURVE SMOOTH",
"656 338 OFFCURVE",
"404 298 OFFCURVE",
"404 381 CURVE SMOOTH",
"404 447 OFFCURVE",
"562 432 OFFCURVE",
"562 563 CURVE SMOOTH",
"562 660 OFFCURVE",
"476 732 OFFCURVE",
"321 732 CURVE SMOOTH",
"153 732 OFFCURVE",
"60 645 OFFCURVE",
"60 497 CURVE SMOOTH",
"60 0 LINE"
);
}
);
width = 684;
}
);
leftMetricsKey = n;
rightMetricsKey = "=s";
unicode = 00DF;
},
{
color = 1;
glyphname = t;
lastChange = "2025-07-30 13:52:24 +0000";
layers = (
{
associatedMasterId = "D8D2F0D2-8948-448B-99CD-378CDFD0E0AE";
layerId = "C4D97CF4-8414-424B-A938-E08ED0A07615";
name = "10 juin 25 à 19:15";
paths = (
{
closed = 1;
nodes = (
"50 446 LINE",
"320 446 LINE",
"320 500 LINE",
"50 500 LINE"
);
},
{
closed = 1;
nodes = (
"130 130 LINE SMOOTH",
"130 37 OFFCURVE",
"174 -6 OFFCURVE",
"245 -6 CURVE SMOOTH",
"288 -6 OFFCURVE",
"320 8 OFFCURVE",
"320 34 CURVE SMOOTH",
"320 60 OFFCURVE",
"289 48 OFFCURVE",
"254 48 CURVE SMOOTH",
"208 48 OFFCURVE",
"190 78 OFFCURVE",
"190 152 CURVE SMOOTH",
"190 600 LINE",
"130 600 LINE"
);
}
);
width = 352;
},
{
associatedMasterId = "D8D2F0D2-8948-448B-99CD-378CDFD0E0AE";
layerId = "116341B4-761B-4FAD-ACAF-BCCD19EFCF22";
name = "13 juin 25 à 12:11";
paths = (
{
closed = 1;
nodes = (
"340 50 LINE",
"213 32 OFFCURVE",
"180 60 OFFCURVE",
"180 155 CURVE SMOOTH",
"180 564 LINE SMOOTH",
"180 614 OFFCURVE",
"120 614 OFFCURVE",
"120 564 CURVE SMOOTH",
"120 150 LINE SMOOTH",
"120 36 OFFCURVE",
"167 -26 OFFCURVE",
"340 0 CURVE"
);
},
{
closed = 1;
nodes = (
"340 446 LINE",
"340 500 LINE",
"30 500 LINE",
"30 446 LINE"
);
}
);
width = 360;
},
{
anchors = (
{
name = bottom;
position = "{401, 0}";
},
{
name = caron;
position = "{324, 500}";
},
{
name = center;
position = "{368, 250}";
},
{
name = top;
position = "{368, 578}";
}
);
layerId = "D8D2F0D2-8948-448B-99CD-378CDFD0E0AE";
name = Thin;
paths = (
{
closed = 1;
nodes = (
"573 62 LINE",
"527 51 OFFCURVE",
"488 44 OFFCURVE",
"444 44 CURVE SMOOTH",
"361 44 OFFCURVE",
"324 69 OFFCURVE",
"324 136 CURVE SMOOTH",
"324 446 LINE",
"590 446 LINE",
"590 500 LINE",
"324 500 LINE",
"324 578 LINE",
"142 506 LINE SMOOTH",
"109 493 OFFCURVE",
"92 482 OFFCURVE",
"92 469 CURVE SMOOTH",
"92 457 OFFCURVE",
"105 446 OFFCURVE",
"143 446 CURVE SMOOTH",
"225 446 LINE",
"225 131 LINE SMOOTH",
"225 29 OFFCURVE",
"302 -12 OFFCURVE",
"427 -12 CURVE SMOOTH",
"483 -12 OFFCURVE",
"527 -4 OFFCURVE",
"573 8 CURVE"
);
}
);
width = 702;
},
{
anchors = (
{
name = bottom;
position = "{406, 0}";
},
{
name = caron;
position = "{396, 500}";
},
{
name = center;
position = "{361, 250}";
},
{
name = top;
position = "{361, 591}";
}
);
layerId = "569359BB-C357-4838-A4FF-29094E5B79C2";
name = Black;
paths = (
{
closed = 1;
nodes = (
"593 128 LINE",
"551 121 OFFCURVE",
"515 116 OFFCURVE",
"473 116 CURVE SMOOTH",
"396 116 OFFCURVE",
"354 133 OFFCURVE",
"354 184 CURVE SMOOTH",
"354 370 LINE",
"638 370 LINE",
"638 500 LINE",
"354 500 LINE",
"354 591 LINE",
"125 510 LINE SMOOTH",
"73 492 OFFCURVE",
"47 467 OFFCURVE",
"47 433 CURVE SMOOTH",
"47 391 OFFCURVE",
"85 370 OFFCURVE",
"135 370 CURVE SMOOTH",
"200 370 LINE",
"200 159 LINE SMOOTH",
"200 51 OFFCURVE",
"283 -12 OFFCURVE",
"433 -12 CURVE SMOOTH",
"493 -12 OFFCURVE",
"546 -3 OFFCURVE",
"593 9 CURVE"
);
}
);
width = 702;
}
);
leftMetricsKey = "=";
rightMetricsKey = "=";
unicode = 0074;
},
{
color = 1;
glyphname = u;
lastChange = "2025-07-30 13:42:41 +0000";
layers = (
{
anchors = (
{
name = bottom;
position = "{306, 0}";
},
{
name = ogonek;
position = "{368, 0}";
},
{
name = top;
position = "{353, 500}";
},
{
name = topright;
position = "{612, 500}";
}
);
layerId = "D8D2F0D2-8948-448B-99CD-378CDFD0E0AE";
paths = (
{
closed = 1;
nodes = (
"493 -12 OFFCURVE",
"593 55 OFFCURVE",
"593 200 CURVE SMOOTH",
"593 500 LINE",
"522 500 LINE",
"522 201 LINE SMOOTH",
"522 95 OFFCURVE",
"458 44 OFFCURVE",
"351 44 CURVE SMOOTH",
"244 44 OFFCURVE",
"180 95 OFFCURVE",
"180 201 CURVE SMOOTH",
"180 500 LINE",
"109 500 LINE",
"109 200 LINE SMOOTH",
"109 55 OFFCURVE",
"209 -12 OFFCURVE",
"351 -12 CURVE SMOOTH"
);
}
);
width = 702;
},
{
anchors = (
{
name = bottom;
position = "{258, 0}";
},
{
name = ogonek;
position = "{480, 10}";
},
{
name = top;
position = "{298, 500}";
},
{
name = topright;
position = "{516, 500}";
}
);
associatedMasterId = "D8D2F0D2-8948-448B-99CD-378CDFD0E0AE";
layerId = "1A0E6A28-C5D5-4C53-BAA0-49A02FCFCB4A";
name = "18 juin 25 à 19:53";
paths = (
{
closed = 1;
nodes = (
"343 -10 OFFCURVE",
"428 28 OFFCURVE",
"466 126 CURVE",
"442 205 LINE",
"442 94 OFFCURVE",
"365 46 OFFCURVE",
"287 46 CURVE SMOOTH",
"215 46 OFFCURVE",
"150 87 OFFCURVE",
"150 197 CURVE SMOOTH",
"150 500 LINE",
"90 500 LINE",
"90 190 LINE SMOOTH",
"90 49 OFFCURVE",
"174 -10 OFFCURVE",
"268 -10 CURVE SMOOTH"
);
},
{
closed = 1;
nodes = (
"502 0 LINE",
"502 500 LINE",
"442 500 LINE",
"442 0 LINE"
);
}
);
width = 602;
},
{
anchors = (
{
name = bottom;
position = "{329, 0}";
},
{
name = ogonek;
position = "{407, 0}";
},
{
name = top;
position = "{352, 500}";
},
{
name = topright;
position = "{627, 500}";
}
);
layerId = "569359BB-C357-4838-A4FF-29094E5B79C2";
paths = (
{
closed = 1;
nodes = (
"532 -12 OFFCURVE",
"627 68 OFFCURVE",
"627 219 CURVE SMOOTH",
"627 500 LINE",
"464 500 LINE",
"464 220 LINE SMOOTH",
"464 152 OFFCURVE",
"422 119 OFFCURVE",
"351 119 CURVE SMOOTH",
"280 119 OFFCURVE",
"239 152 OFFCURVE",
"239 220 CURVE SMOOTH",
"239 500 LINE",
"76 500 LINE",
"76 219 LINE SMOOTH",
"76 68 OFFCURVE",
"171 -12 OFFCURVE",
"351 -12 CURVE SMOOTH"
);
}
);
width = 702;
}
);
leftMetricsKey = "=";
rightMetricsKey = "=";
unicode = 0075;
},
{
color = 1;
glyphname = v;
lastChange = "2025-07-30 13:42:41 +0000";
layers = (
{
layerId = "D8D2F0D2-8948-448B-99CD-378CDFD0E0AE";
paths = (
{
closed = 1;
nodes = (
"384 0 LINE",
"140 500 LINE",
"62 500 LINE",
"314 0 LINE"
);
},
{
closed = 1;
nodes = (
"639 500 LINE",
"561 500 LINE",
"317 0 LINE",
"387 0 LINE"
);
}
);
width = 702;
},
{
layerId = "569359BB-C357-4838-A4FF-29094E5B79C2";
paths = (
{
closed = 1;
nodes = (
"403 0 LINE",
"219 500 LINE",
"39 500 LINE",
"264 0 LINE"
);
},
{
closed = 1;
nodes = (
"663 500 LINE",
"485 500 LINE",
"310 0 LINE",
"438 0 LINE"
);
}
);
width = 702;
}
);
leftMetricsKey = "=";
rightMetricsKey = "=";
unicode = 0076;
},
{
color = 1;
glyphname = w;
lastChange = "2025-07-30 13:42:41 +0000";
layers = (
{
anchors = (
{
name = bottom;
position = "{356, 0}";
},
{
name = top;
position = "{351, 500}";
}
);
layerId = "D8D2F0D2-8948-448B-99CD-378CDFD0E0AE";
paths = (
{
closed = 1;
nodes = (
"216 0 LINE",
"368 478 LINE",
"334 478 LINE",
"486 0 LINE",
"539 0 LINE",
"395 464 LINE SMOOTH",
"385 496 OFFCURVE",
"371 512 OFFCURVE",
"351 512 CURVE SMOOTH",
"331 512 OFFCURVE",
"317 496 OFFCURVE",
"307 464 CURVE SMOOTH",
"163 0 LINE"
);
},
{
closed = 1;
nodes = (
"212 0 LINE",
"79 500 LINE",
"17 500 LINE",
"159 0 LINE"
);
},
{
closed = 1;
nodes = (
"543 0 LINE",
"685 500 LINE",
"623 500 LINE",
"490 0 LINE"
);
}
);
width = 702;
},
{
anchors = (
{
name = bottom;
position = "{353, 0}";
},
{
name = top;
position = "{351, 500}";
}
);
layerId = "569359BB-C357-4838-A4FF-29094E5B79C2";
paths = (
{
closed = 1;
nodes = (
"268 0 LINE",
"365 356 LINE",
"337 356 LINE",
"434 0 LINE",
"551 0 LINE",
"432 434 LINE SMOOTH",
"417 488 OFFCURVE",
"393 512 OFFCURVE",
"351 512 CURVE SMOOTH",
"310 512 OFFCURVE",
"285 488 OFFCURVE",
"270 434 CURVE SMOOTH",
"151 0 LINE"
);
},
{
closed = 1;
nodes = (
"227 0 LINE",
"143 500 LINE",
"-6 500 LINE",
"122 0 LINE"
);
},
{
closed = 1;
nodes = (
"580 0 LINE",
"708 500 LINE",
"559 500 LINE",
"475 0 LINE"
);
}
);
width = 702;
}
);
leftMetricsKey = "=";
rightMetricsKey = "=";
unicode = 0077;
},
{
color = 1;
glyphname = x;
lastChange = "2025-07-30 13:42:41 +0000";
layers = (
{
layerId = "D8D2F0D2-8948-448B-99CD-378CDFD0E0AE";
paths = (
{
closed = 1;
nodes = (
"338 212 LINE",
"333 284 LINE",
"67 0 LINE",
"158 0 LINE",
"368 224 LINE",
"337 224 LINE",
"547 0 LINE",
"635 0 LINE",
"368 285 LINE",
"365 211 LINE",
"634 500 LINE",
"543 500 LINE",
"330 271 LINE",
"370 271 LINE",
"156 500 LINE",
"68 500 LINE"
);
}
);
width = 702;
},
{
layerId = "569359BB-C357-4838-A4FF-29094E5B79C2";
paths = (
{
closed = 1;
nodes = (
"269 210 LINE",
"268 286 LINE",
"48 0 LINE",
"226 0 LINE",
"371 185 LINE",
"326 185 LINE",
"472 0 LINE",
"655 0 LINE",
"435 286 LINE",
"434 210 LINE",
"656 500 LINE",
"477 500 LINE",
"329 310 LINE",
"378 310 LINE",
"230 500 LINE",
"46 500 LINE"
);
}
);
width = 702;
}
);
leftMetricsKey = "=";
rightMetricsKey = "=";
unicode = 0078;
},
{
color = 1;
glyphname = y;
lastChange = "2025-07-30 13:42:41 +0000";
layers = (
{
associatedMasterId = "D8D2F0D2-8948-448B-99CD-378CDFD0E0AE";
components = (
{
name = v;
}
);
layerId = "A968634C-B40A-4952-AF67-6C361F76089D";
name = "5 juin 25 à 12:15";
paths = (
{
closed = 1;
nodes = (
"45 -185 OFFCURVE",
"71 -206 OFFCURVE",
"113 -206 CURVE SMOOTH",
"175 -206 OFFCURVE",
"218 -161 OFFCURVE",
"259 -54 CURVE SMOOTH",
"470 500 LINE",
"220 0 LINE",
"165 -135 OFFCURVE",
"144 -175 OFFCURVE",
"38 -145 CURVE"
);
}
);
width = 500;
},
{
anchors = (
{
name = bottom;
position = "{327, 0}";
},
{
name = top;
position = "{355, 500}";
}
);
components = (
{
name = v;
}
);
layerId = "D8D2F0D2-8948-448B-99CD-378CDFD0E0AE";
name = Thin;
paths = (
{
closed = 1;
nodes = (
"246 -212 OFFCURVE",
"306 -159 OFFCURVE",
"372 -29 CURVE SMOOTH",
"640 500 LINE",
"315 0 LINE",
"247 -131 OFFCURVE",
"199 -160 OFFCURVE",
"159 -160 CURVE SMOOTH",
"135 -160 OFFCURVE",
"120 -150 OFFCURVE",
"99 -150 CURVE SMOOTH",
"81 -150 OFFCURVE",
"69 -158 OFFCURVE",
"69 -173 CURVE SMOOTH",
"69 -201 OFFCURVE",
"113 -212 OFFCURVE",
"155 -212 CURVE SMOOTH"
);
}
);
width = 540;
},
{
anchors = (
{
name = bottom;
position = "{250, 0}";
},
{
name = top;
position = "{250, 500}";
}
);
associatedMasterId = "D8D2F0D2-8948-448B-99CD-378CDFD0E0AE";
layerId = "2ADEC5B5-31A1-4C7F-A76B-B160F1400AF6";
name = "24 juin 25 à 12:06";
paths = (
{
closed = 1;
nodes = (
"272 0 LINE",
"65 500 LINE",
"0 500 LINE",
"200 25 LINE SMOOTH",
"207 8 OFFCURVE",
"219 0 OFFCURVE",
"237 0 CURVE SMOOTH"
);
},
{
closed = 1;
nodes = (
"510 500 LINE",
"445 500 LINE",
"158 -200 LINE",
"216 -200 LINE"
);
}
);
width = 540;
},
{
anchors = (
{
name = bottom;
position = "{329, 0}";
},
{
name = top;
position = "{355, 500}";
}
);
components = (
{
alignment = -1;
name = v;
}
);
layerId = "569359BB-C357-4838-A4FF-29094E5B79C2";
paths = (
{
closed = 1;
nodes = (
"291 -212 OFFCURVE",
"367 -159 OFFCURVE",
"427 -26 CURVE SMOOTH",
"664 500 LINE",
"264 0 LINE",
"231 -65 OFFCURVE",
"204 -83 OFFCURVE",
"175 -83 CURVE SMOOTH",
"156 -83 OFFCURVE",
"140 -75 OFFCURVE",
"120 -75 CURVE SMOOTH",
"86 -75 OFFCURVE",
"60 -95 OFFCURVE",
"60 -132 CURVE SMOOTH",
"60 -187 OFFCURVE",
"120 -212 OFFCURVE",
"188 -212 CURVE SMOOTH"
);
}
);
width = 702;
}
);
leftMetricsKey = "=";
rightMetricsKey = "=";
unicode = 0079;
},
{
color = 1;
glyphname = z;
lastChange = "2025-07-30 13:42:41 +0000";
layers = (
{
anchors = (
{
name = bottom;
position = "{351, 0}";
},
{
name = center;
position = "{351, 250}";
},
{
name = top;
position = "{362, 500}";
}
);
layerId = "D8D2F0D2-8948-448B-99CD-378CDFD0E0AE";
paths = (
{
closed = 1;
nodes = (
"610 0 LINE",
"610 54 LINE",
"147 54 LINE",
"169 28 LINE",
"597 460 LINE",
"503 460 LINE",
"117 70 LINE SMOOTH",
"102 55 OFFCURVE",
"97 44 OFFCURVE",
"97 32 CURVE SMOOTH",
"97 11 OFFCURVE",
"116 0 OFFCURVE",
"153 0 CURVE SMOOTH"
);
},
{
closed = 1;
nodes = (
"547 446 LINE",
"597 460 LINE",
"597 500 LINE",
"110 500 LINE",
"110 446 LINE"
);
}
);
width = 702;
},
{
anchors = (
{
name = bottom;
position = "{346, 0}";
},
{
name = center;
position = "{346, 250}";
},
{
name = top;
position = "{356, 500}";
}
);
layerId = "569359BB-C357-4838-A4FF-29094E5B79C2";
paths = (
{
closed = 1;
nodes = (
"634 0 LINE",
"634 125 LINE",
"246 125 LINE",
"260 92 LINE",
"625 402 LINE",
"430 419 LINE",
"119 149 LINE SMOOTH",
"85 120 OFFCURVE",
"72 97 OFFCURVE",
"72 70 CURVE SMOOTH",
"72 26 OFFCURVE",
"109 0 OFFCURVE",
"179 0 CURVE SMOOTH"
);
},
{
closed = 1;
nodes = (
"561 375 LINE",
"625 402 LINE",
"625 500 LINE",
"82 500 LINE",
"82 375 LINE"
);
}
);
width = 702;
}
);
leftMetricsKey = "=";
rightMetricsKey = "=";
unicode = 007A;
},
{
color = 3;
glyphname = a.ss01;
lastChange = "2025-07-30 13:33:28 +0000";
layers = (
{
anchors = (
{
name = bottom;
position = "{308, 0}";
},
{
name = ogonek;
position = "{470, 0}";
},
{
name = top;
position = "{304, 500}";
}
);
components = (
{
name = _panse;
transform = "{-1, 0, 0, -1, 622, 500}";
}
);
layerId = "D8D2F0D2-8948-448B-99CD-378CDFD0E0AE";
paths = (
{
closed = 1;
nodes = (
"462 500 LINE",
"462 0 LINE",
"522 0 LINE",
"522 500 LINE"
);
}
);
width = 618;
},
{
associatedMasterId = "D8D2F0D2-8948-448B-99CD-378CDFD0E0AE";
components = (
{
name = _panse;
transform = "{-1, 0, 0, -1, 628, 500}";
}
);
layerId = "5B5FDD4F-8925-42FD-8AFD-09FA15FE006E";
name = "24 juin 25 à 10:00";
paths = (
{
closed = 1;
nodes = (
"528 239 LINE",
"528 500 LINE",
"468 500 LINE",
"468 239 LINE"
);
},
{
closed = 1;
nodes = (
"468 319 LINE",
"468 127 LINE",
"475 108 LINE",
"475 67 OFFCURVE",
"484 21 OFFCURVE",
"493 0 CURVE",
"553 -1 LINE",
"540 28 OFFCURVE",
"528 80 OFFCURVE",
"528 138 CURVE SMOOTH",
"528 319 LINE"
);
}
);
width = 628;
},
{
anchors = (
{
name = bottom;
position = "{303, 0}";
},
{
name = ogonek;
position = "{508, 5}";
},
{
name = top;
position = "{307, 500}";
}
);
components = (
{
alignment = -1;
name = _panse;
transform = "{-1, 0, 0, -1, 559, 500}";
}
);
layerId = "569359BB-C357-4838-A4FF-29094E5B79C2";
name = Black;
paths = (
{
closed = 1;
nodes = (
"401 500 LINE",
"401 0 LINE",
"549 0 LINE",
"549 500 LINE"
);
}
);
width = 607;
}
);
leftMetricsKey = "=o";
rightMetricsKey = "=q";
},
{
color = 3;
glyphname = g.ss01;
lastChange = "2025-07-30 13:33:28 +0000";
layers = (
{
anchors = (
{
name = top;
position = "{303, 500}";
}
);
components = (
{
name = _panse;
transform = "{-1, 0, 0, -1, 622, 500}";
}
);
layerId = "D8D2F0D2-8948-448B-99CD-378CDFD0E0AE";
paths = (
{
closed = 1;
nodes = (
"184 -160 OFFCURVE",
"158 -112 OFFCURVE",
"121 -112 CURVE SMOOTH",
"103 -112 OFFCURVE",
"96 -124 OFFCURVE",
"96 -136 CURVE SMOOTH",
"96 -175 OFFCURVE",
"170 -212 OFFCURVE",
"289 -212 CURVE SMOOTH",
"433 -212 OFFCURVE",
"522 -150 OFFCURVE",
"522 -3 CURVE SMOOTH",
"522 500 LINE",
"462 500 LINE",
"462 -5 LINE SMOOTH",
"462 -108 OFFCURVE",
"404 -160 OFFCURVE",
"291 -160 CURVE SMOOTH"
);
}
);
width = 618;
},
{
anchors = (
{
name = top;
position = "{309, 500}";
}
);
components = (
{
alignment = -1;
name = _panse;
transform = "{-1, 0, 0, -1, 559, 500}";
}
);
layerId = "569359BB-C357-4838-A4FF-29094E5B79C2";
paths = (
{
closed = 1;
nodes = (
"191 -93 OFFCURVE",
"160 -60 OFFCURVE",
"121 -60 CURVE SMOOTH",
"85 -60 OFFCURVE",
"64 -84 OFFCURVE",
"64 -116 CURVE SMOOTH",
"64 -172 OFFCURVE",
"135 -212 OFFCURVE",
"272 -212 CURVE SMOOTH",
"426 -212 OFFCURVE",
"549 -159 OFFCURVE",
"549 16 CURVE SMOOTH",
"549 500 LINE",
"401 500 LINE",
"401 21 LINE SMOOTH",
"401 -60 OFFCURVE",
"356 -93 OFFCURVE",
"273 -93 CURVE SMOOTH"
);
}
);
width = 607;
}
);
leftMetricsKey = "=o";
rightMetricsKey = "=|n";
},
{
color = 3;
glyphname = y.ss01;
lastChange = "2025-07-30 13:33:28 +0000";
layers = (
{
anchors = (
{
name = bottom;
position = "{292, 0}";
},
{
name = top;
position = "{288, 500}";
}
);
layerId = "D8D2F0D2-8948-448B-99CD-378CDFD0E0AE";
paths = (
{
closed = 1;
nodes = (
"401 -212 OFFCURVE",
"490 -150 OFFCURVE",
"490 -3 CURVE SMOOTH",
"490 500 LINE",
"430 500 LINE",
"430 -5 LINE SMOOTH",
"430 -108 OFFCURVE",
"372 -160 OFFCURVE",
"269 -160 CURVE SMOOTH",
"172 -160 OFFCURVE",
"146 -112 OFFCURVE",
"109 -112 CURVE SMOOTH",
"91 -112 OFFCURVE",
"84 -124 OFFCURVE",
"84 -136 CURVE SMOOTH",
"84 -175 OFFCURVE",
"158 -212 OFFCURVE",
"267 -212 CURVE SMOOTH"
);
},
{
closed = 1;
nodes = (
"331 -10 OFFCURVE",
"416 28 OFFCURVE",
"454 126 CURVE",
"430 205 LINE",
"430 94 OFFCURVE",
"353 46 OFFCURVE",
"279 46 CURVE SMOOTH",
"211 46 OFFCURVE",
"146 87 OFFCURVE",
"146 197 CURVE SMOOTH",
"146 500 LINE",
"86 500 LINE",
"86 190 LINE SMOOTH",
"86 49 OFFCURVE",
"170 -10 OFFCURVE",
"260 -10 CURVE SMOOTH"
);
}
);
width = 586;
},
{
anchors = (
{
name = bottom;
position = "{293, 0}";
},
{
name = top;
position = "{289, 500}";
}
);
layerId = "569359BB-C357-4838-A4FF-29094E5B79C2";
paths = (
{
closed = 1;
nodes = (
"404 -212 OFFCURVE",
"527 -159 OFFCURVE",
"527 16 CURVE SMOOTH",
"527 500 LINE",
"379 500 LINE",
"379 21 LINE SMOOTH",
"379 -60 OFFCURVE",
"334 -93 OFFCURVE",
"258 -93 CURVE SMOOTH",
"184 -93 OFFCURVE",
"153 -60 OFFCURVE",
"114 -60 CURVE SMOOTH",
"77 -60 OFFCURVE",
"56 -84 OFFCURVE",
"56 -116 CURVE SMOOTH",
"56 -172 OFFCURVE",
"127 -212 OFFCURVE",
"257 -212 CURVE SMOOTH"
);
},
{
closed = 1;
nodes = (
"305 -11 OFFCURVE",
"369 28 OFFCURVE",
"401 115 CURVE",
"379 235 LINE",
"379 162 OFFCURVE",
"330 128 OFFCURVE",
"282 128 CURVE SMOOTH",
"239 128 OFFCURVE",
"199 155 OFFCURVE",
"199 225 CURVE SMOOTH",
"199 500 LINE",
"51 500 LINE",
"51 202 LINE SMOOTH",
"51 47 OFFCURVE",
"137 -11 OFFCURVE",
"230 -11 CURVE SMOOTH"
);
}
);
width = 587;
}
);
leftMetricsKey = "=u";
rightMetricsKey = "=|n";
},
{
color = 3;
glyphname = k.ss02;
lastChange = "2025-07-30 13:33:28 +0000";
layers = (
{
anchors = (
{
name = bottom;
position = "{279, 0}";
},
{
name = top;
position = "{285, 720}";
}
);
layerId = "D8D2F0D2-8948-448B-99CD-378CDFD0E0AE";
paths = (
{
closed = 1;
nodes = (
"156 0 LINE",
"156 720 LINE",
"96 720 LINE",
"96 0 LINE"
);
},
{
closed = 1;
nodes = (
"488 0 LINE",
"189 296 LINE",
"190 244 LINE",
"435 455 LINE SMOOTH",
"447 465 OFFCURVE",
"454 475 OFFCURVE",
"454 487 CURVE SMOOTH",
"454 501 OFFCURVE",
"445 512 OFFCURVE",
"429 512 CURVE SMOOTH",
"416 512 OFFCURVE",
"405 505 OFFCURVE",
"388 490 CURVE SMOOTH",
"135 267 LINE",
"403 0 LINE"
);
}
);
width = 570;
},
{
anchors = (
{
name = bottom;
position = "{290, 0}";
},
{
name = top;
position = "{300, 720}";
}
);
layerId = "569359BB-C357-4838-A4FF-29094E5B79C2";
paths = (
{
closed = 1;
nodes = (
"207 0 LINE",
"207 720 LINE",
"60 720 LINE",
"60 0 LINE"
);
},
{
closed = 1;
nodes = (
"564 0 LINE",
"289 330 LINE",
"301 218 LINE",
"477 371 LINE SMOOTH",
"504 395 OFFCURVE",
"518 419 OFFCURVE",
"518 446 CURVE SMOOTH",
"518 484 OFFCURVE",
"491 512 OFFCURVE",
"452 512 CURVE SMOOTH",
"424 512 OFFCURVE",
"398 498 OFFCURVE",
"370 469 CURVE SMOOTH",
"160 262 LINE",
"377 0 LINE"
);
}
);
width = 600;
}
);
leftMetricsKey = "=n";
},
{
color = 3;
glyphname = l.ss02;
lastChange = "2025-07-30 13:33:28 +0000";
layers = (
{
anchors = (
{
name = bottom;
position = "{181, 0}";
},
{
name = caron;
position = "{156, 500}";
},
{
name = center;
position = "{156, 350}";
},
{
name = top;
position = "{126, 720}";
}
);
layerId = "D8D2F0D2-8948-448B-99CD-378CDFD0E0AE";
paths = (
{
closed = 1;
nodes = (
"156 0 LINE",
"156 720 LINE",
"96 720 LINE",
"96 0 LINE"
);
}
);
width = 252;
},
{
associatedMasterId = "D8D2F0D2-8948-448B-99CD-378CDFD0E0AE";
layerId = "4CCB720F-D95D-4299-ADF9-9AF417344601";
name = "18 juin 25 à 19:52";
paths = (
{
closed = 1;
nodes = (
"160 0 LINE",
"160 720 LINE",
"100 720 LINE",
"100 0 LINE"
);
}
);
width = 260;
},
{
anchors = (
{
name = bottom;
position = "{158, 0}";
},
{
name = caron;
position = "{207, 500}";
},
{
name = center;
position = "{160, 361}";
},
{
name = top;
position = "{134, 720}";
}
);
layerId = "569359BB-C357-4838-A4FF-29094E5B79C2";
paths = (
{
closed = 1;
nodes = (
"207 0 LINE",
"207 720 LINE",
"60 720 LINE",
"60 0 LINE"
);
}
);
width = 268;
}
);
leftMetricsKey = "=n";
rightMetricsKey = "=|";
},
{
color = 9;
glyphname = f_f;
lastChange = "2025-07-30 13:33:28 +0000";
layers = (
{
components = (
{
name = f;
},
{
name = f;
transform = "{1, 0, 0, 1, 702, 0}";
}
);
layerId = "D8D2F0D2-8948-448B-99CD-378CDFD0E0AE";
width = 1404;
},
{
associatedMasterId = "D8D2F0D2-8948-448B-99CD-378CDFD0E0AE";
components = (
{
name = f;
transform = "{1, 0, 0, 1, 312, 0}";
}
);
layerId = "533A6FEC-45CB-4DE0-93EF-9D26557C1EA4";
name = "3 juil. 25 à 14:23";
paths = (
{
closed = 1;
nodes = (
"170 556 LINE SMOOTH",
"170 632 OFFCURVE",
"214 660 OFFCURVE",
"260 660 CURVE SMOOTH",
"291 660 OFFCURVE",
"309 647 OFFCURVE",
"326 647 CURVE SMOOTH",
"341 647 OFFCURVE",
"350 657 OFFCURVE",
"350 671 CURVE SMOOTH",
"350 696 OFFCURVE",
"321 712 OFFCURVE",
"269 712 CURVE SMOOTH",
"176 712 OFFCURVE",
"110 659 OFFCURVE",
"110 556 CURVE SMOOTH",
"110 -80 LINE SMOOTH",
"112 -146 OFFCURVE",
"80 -172 OFFCURVE",
"43 -173 CURVE SMOOTH",
"16 -174 OFFCURVE",
"3 -162 OFFCURVE",
"-15 -162 CURVE SMOOTH",
"-32 -163 OFFCURVE",
"-39 -175 OFFCURVE",
"-39 -187 CURVE SMOOTH",
"-38 -213 OFFCURVE",
"-4 -227 OFFCURVE",
"41 -225 CURVE SMOOTH",
"122 -223 OFFCURVE",
"173 -173 OFFCURVE",
"170 -80 CURVE"
);
},
{
closed = 1;
nodes = (
"110 446 LINE",
"110 512 LINE",
"61 498 LINE SMOOTH",
"37 491 OFFCURVE",
"30 480 OFFCURVE",
"30 469 CURVE SMOOTH",
"30 457 OFFCURVE",
"38 446 OFFCURVE",
"61 446 CURVE SMOOTH"
);
},
{
closed = 1;
nodes = (
"420 446 LINE",
"420 500 LINE",
"120 500 LINE",
"120 446 LINE"
);
}
);
width = 674;
},
{
components = (
{
name = f;
},
{
name = f;
transform = "{1, 0, 0, 1, 702, 0}";
}
);
layerId = "569359BB-C357-4838-A4FF-29094E5B79C2";
width = 1404;
}
);
leftMetricsKey = f;
rightMetricsKey = f;
},
{
glyphname = zero;
lastChange = "2025-07-30 13:33:28 +0000";
layers = (
{
layerId = "D8D2F0D2-8948-448B-99CD-378CDFD0E0AE";
paths = (
{
closed = 1;
nodes = (
"472 -12 OFFCURVE",
"572 127 OFFCURVE",
"572 341 CURVE SMOOTH",
"572 552 OFFCURVE",
"476 692 OFFCURVE",
"302 692 CURVE SMOOTH",
"128 692 OFFCURVE",
"28 553 OFFCURVE",
"28 339 CURVE SMOOTH",
"28 128 OFFCURVE",
"124 -12 OFFCURVE",
"298 -12 CURVE SMOOTH"
);
},
{
closed = 1;
nodes = (
"166 42 OFFCURVE",
"94 167 OFFCURVE",
"94 340 CURVE SMOOTH",
"94 519 OFFCURVE",
"171 638 OFFCURVE",
"301 638 CURVE SMOOTH",
"434 638 OFFCURVE",
"506 513 OFFCURVE",
"506 340 CURVE SMOOTH",
"506 161 OFFCURVE",
"429 42 OFFCURVE",
"299 42 CURVE SMOOTH"
);
}
);
width = 600;
},
{
layerId = "569359BB-C357-4838-A4FF-29094E5B79C2";
paths = (
{
closed = 1;
nodes = (
"504 -12 OFFCURVE",
"605 121 OFFCURVE",
"605 341 CURVE SMOOTH",
"605 559 OFFCURVE",
"506 692 OFFCURVE",
"316 692 CURVE SMOOTH",
"124 692 OFFCURVE",
"17 556 OFFCURVE",
"17 339 CURVE SMOOTH",
"17 123 OFFCURVE",
"122 -12 OFFCURVE",
"313 -12 CURVE SMOOTH"
);
},
{
closed = 1;
nodes = (
"227 131 OFFCURVE",
"183 212 OFFCURVE",
"183 339 CURVE SMOOTH",
"183 470 OFFCURVE",
"230 549 OFFCURVE",
"312 549 CURVE SMOOTH",
"396 549 OFFCURVE",
"439 468 OFFCURVE",
"439 341 CURVE SMOOTH",
"439 210 OFFCURVE",
"393 131 OFFCURVE",
"310 131 CURVE SMOOTH"
);
}
);
width = 623;
}
);
rightMetricsKey = "=|";
unicode = 0030;
},
{
glyphname = one;
lastChange = "2025-07-30 13:33:28 +0000";
layers = (
{
layerId = "D8D2F0D2-8948-448B-99CD-378CDFD0E0AE";
paths = (
{
closed = 1;
nodes = (
"314 0 LINE",
"314 680 LINE",
"250 640 LINE",
"250 0 LINE"
);
},
{
closed = 1;
nodes = (
"292 634 LINE",
"314 680 LINE",
"258 680 LINE",
"108 607 LINE SMOOTH",
"85 596 OFFCURVE",
"75 584 OFFCURVE",
"75 568 CURVE SMOOTH",
"75 544 OFFCURVE",
"98 533 OFFCURVE",
"135 552 CURVE SMOOTH"
);
}
);
width = 440;
},
{
layerId = "569359BB-C357-4838-A4FF-29094E5B79C2";
name = Black;
paths = (
{
closed = 1;
nodes = (
"400 0 LINE",
"400 680 LINE",
"240 581 LINE",
"240 0 LINE"
);
},
{
closed = 1;
nodes = (
"352 590 LINE",
"400 680 LINE",
"249 680 LINE",
"110 609 LINE SMOOTH",
"66 586 OFFCURVE",
"45 556 OFFCURVE",
"45 520 CURVE SMOOTH",
"45 448 OFFCURVE",
"120 419 OFFCURVE",
"196 479 CURVE SMOOTH"
);
}
);
width = 485;
}
);
unicode = 0031;
},
{
glyphname = two;
lastChange = "2025-07-30 13:33:28 +0000";
layers = (
{
layerId = "D8D2F0D2-8948-448B-99CD-378CDFD0E0AE";
paths = (
{
closed = 1;
nodes = (
"556 0 LINE",
"556 60 LINE",
"131 60 LINE",
"123 337 OFFCURVE",
"544 232 OFFCURVE",
"544 495 CURVE SMOOTH",
"544 613 OFFCURVE",
"459 692 OFFCURVE",
"318 692 CURVE SMOOTH",
"216 692 OFFCURVE",
"154 651 OFFCURVE",
"119 612 CURVE SMOOTH",
"105 597 OFFCURVE",
"94 581 OFFCURVE",
"94 566 CURVE SMOOTH",
"94 551 OFFCURVE",
"105 541 OFFCURVE",
"119 541 CURVE SMOOTH",
"162 541 OFFCURVE",
"182 638 OFFCURVE",
"316 638 CURVE SMOOTH",
"429 638 OFFCURVE",
"480 566 OFFCURVE",
"480 495 CURVE SMOOTH",
"480 291 OFFCURVE",
"67 371 OFFCURVE",
"67 61 CURVE SMOOTH",
"67 14 OFFCURVE",
"78 0 OFFCURVE",
"123 0 CURVE SMOOTH"
);
}
);
width = 600;
},
{
associatedMasterId = "D8D2F0D2-8948-448B-99CD-378CDFD0E0AE";
layerId = "24E6C80F-32C1-47B8-AF2C-0071E576D8FD";
name = "Sep 10 21, 23:45";
paths = (
{
closed = 1;
nodes = (
"172 678 OFFCURVE",
"243 730 OFFCURVE",
"329 730 CURVE SMOOTH",
"426 730 OFFCURVE",
"481 664 OFFCURVE",
"481 574 CURVE SMOOTH",
"481 334 OFFCURVE",
"64 387 OFFCURVE",
"64 0 CURVE",
"125 0 LINE",
"124 357 OFFCURVE",
"543 287 OFFCURVE",
"543 574 CURVE SMOOTH",
"543 700 OFFCURVE",
"463 790 OFFCURVE",
"331 790 CURVE SMOOTH",
"217 790 OFFCURVE",
"126 724 OFFCURVE",
"76 613 CURVE",
"133 588 LINE"
);
},
{
closed = 1;
nodes = (
"94 0 LINE",
"556 0 LINE",
"556 60 LINE",
"94 60 LINE"
);
}
);
width = 600;
},
{
associatedMasterId = "D8D2F0D2-8948-448B-99CD-378CDFD0E0AE";
layerId = "48EE8DB1-843B-4CED-A047-0251EEE024E1";
name = "17 juil. 25 à 10:11";
paths = (
{
closed = 1;
nodes = (
"556 0 LINE",
"556 60 LINE",
"131 60 LINE",
"123 337 OFFCURVE",
"544 232 OFFCURVE",
"544 495 CURVE SMOOTH",
"544 613 OFFCURVE",
"459 692 OFFCURVE",
"318 692 CURVE SMOOTH",
"192 692 OFFCURVE",
"89 628 OFFCURVE",
"89 568 CURVE SMOOTH",
"89 549 OFFCURVE",
"100 541 OFFCURVE",
"114 541 CURVE SMOOTH",
"161 541 OFFCURVE",
"179 638 OFFCURVE",
"315 638 CURVE SMOOTH",
"429 638 OFFCURVE",
"480 566 OFFCURVE",
"480 495 CURVE SMOOTH",
"480 291 OFFCURVE",
"67 371 OFFCURVE",
"67 61 CURVE SMOOTH",
"67 14 OFFCURVE",
"78 0 OFFCURVE",
"123 0 CURVE SMOOTH"
);
}
);
width = 600;
},
{
associatedMasterId = "D8D2F0D2-8948-448B-99CD-378CDFD0E0AE";
layerId = "B70C9F11-D8D5-49D7-B828-15EEF94858A0";
name = "17 juil. 25 à 10:13";
paths = (
{
closed = 1;
nodes = (
"556 0 LINE",
"556 60 LINE",
"131 60 LINE",
"123 337 OFFCURVE",
"544 232 OFFCURVE",
"544 495 CURVE SMOOTH",
"544 613 OFFCURVE",
"459 692 OFFCURVE",
"318 692 CURVE SMOOTH",
"228 692 OFFCURVE",
"160 659 OFFCURVE",
"118 619 CURVE SMOOTH",
"98 600 OFFCURVE",
"89 585 OFFCURVE",
"89 568 CURVE SMOOTH",
"89 549 OFFCURVE",
"100 541 OFFCURVE",
"114 541 CURVE SMOOTH",
"161 541 OFFCURVE",
"179 638 OFFCURVE",
"315 638 CURVE SMOOTH",
"429 638 OFFCURVE",
"480 566 OFFCURVE",
"480 495 CURVE SMOOTH",
"480 291 OFFCURVE",
"67 371 OFFCURVE",
"67 61 CURVE SMOOTH",
"67 14 OFFCURVE",
"78 0 OFFCURVE",
"123 0 CURVE SMOOTH"
);
}
);
width = 600;
},
{
layerId = "569359BB-C357-4838-A4FF-29094E5B79C2";
paths = (
{
closed = 1;
nodes = (
"584 0 LINE",
"584 144 LINE",
"221 144 LINE",
"218 280 OFFCURVE",
"577 227 OFFCURVE",
"577 482 CURVE SMOOTH",
"577 616 OFFCURVE",
"478 692 OFFCURVE",
"316 692 CURVE SMOOTH",
"213 692 OFFCURVE",
"147 661 OFFCURVE",
"105 625 CURVE SMOOTH",
"77 603 OFFCURVE",
"58 576 OFFCURVE",
"58 543 CURVE SMOOTH",
"58 503 OFFCURVE",
"85 475 OFFCURVE",
"127 475 CURVE SMOOTH",
"195 475 OFFCURVE",
"219 559 OFFCURVE",
"316 559 CURVE SMOOTH",
"381 559 OFFCURVE",
"412 521 OFFCURVE",
"412 480 CURVE SMOOTH",
"412 346 OFFCURVE",
"46 382 OFFCURVE",
"46 122 CURVE SMOOTH",
"46 52 OFFCURVE",
"82 0 OFFCURVE",
"182 0 CURVE SMOOTH"
);
}
);
width = 623;
}
);
unicode = 0032;
},
{
glyphname = three;
lastChange = "2025-07-30 13:33:28 +0000";
layers = (
{
layerId = "D8D2F0D2-8948-448B-99CD-378CDFD0E0AE";
paths = (
{
closed = 1;
nodes = (
"442 -12 OFFCURVE",
"558 47 OFFCURVE",
"558 181 CURVE SMOOTH",
"558 360 OFFCURVE",
"357 373 OFFCURVE",
"255 373 CURVE",
"255 326 LINE",
"382 326 OFFCURVE",
"494 288 OFFCURVE",
"494 180 CURVE SMOOTH",
"494 95 OFFCURVE",
"423 42 OFFCURVE",
"304 42 CURVE SMOOTH",
"222 42 OFFCURVE",
"157 67 OFFCURVE",
"94 97 CURVE",
"94 39 LINE",
"149 8 OFFCURVE",
"218 -12 OFFCURVE",
"301 -12 CURVE SMOOTH"
);
},
{
closed = 1;
nodes = (
"255 326 LINE",
"255 384 LINE",
"185 384 LINE",
"185 326 LINE"
);
},
{
closed = 1;
nodes = (
"414 343 OFFCURVE",
"539 373 OFFCURVE",
"539 505 CURVE SMOOTH",
"539 613 OFFCURVE",
"455 692 OFFCURVE",
"309 692 CURVE SMOOTH",
"206 692 OFFCURVE",
"141 652 OFFCURVE",
"107 611 CURVE SMOOTH",
"95 597 OFFCURVE",
"86 582 OFFCURVE",
"86 567 CURVE SMOOTH",
"86 551 OFFCURVE",
"97 541 OFFCURVE",
"111 541 CURVE SMOOTH",
"154 541 OFFCURVE",
"174 638 OFFCURVE",
"307 638 CURVE SMOOTH",
"408 638 OFFCURVE",
"475 583 OFFCURVE",
"475 505 CURVE SMOOTH",
"475 410 OFFCURVE",
"378 384 OFFCURVE",
"255 384 CURVE",
"255 343 LINE"
);
}
);
width = 600;
},
{
associatedMasterId = "D8D2F0D2-8948-448B-99CD-378CDFD0E0AE";
layerId = "FFA630A1-16CC-4EE5-8BC8-5692722E01EF";
name = "30 mai 25 à 17:26";
paths = (
{
closed = 1;
nodes = (
"414 390 OFFCURVE",
"539 443 OFFCURVE",
"539 585 CURVE SMOOTH",
"539 700 OFFCURVE",
"457 790 OFFCURVE",
"325 790 CURVE SMOOTH",
"211 790 OFFCURVE",
"120 724 OFFCURVE",
"70 643 CURVE",
"121 607 LINE",
"168 682 OFFCURVE",
"237 732 OFFCURVE",
"322 732 CURVE SMOOTH",
"420 732 OFFCURVE",
"475 664 OFFCURVE",
"475 580 CURVE SMOOTH",
"475 467 OFFCURVE",
"376 434 OFFCURVE",
"255 434 CURVE",
"255 390 LINE"
);
},
{
closed = 1;
nodes = (
"484 115 OFFCURVE",
"417 48 OFFCURVE",
"296 48 CURVE SMOOTH",
"215 48 OFFCURVE",
"157 79 OFFCURVE",
"103 163 CURVE",
"48 122 LINE",
"102 31 OFFCURVE",
"190 -10 OFFCURVE",
"293 -10 CURVE SMOOTH",
"436 -10 OFFCURVE",
"548 67 OFFCURVE",
"548 208 CURVE SMOOTH",
"548 396 OFFCURVE",
"357 425 OFFCURVE",
"255 425 CURVE",
"255 376 LINE",
"382 376 OFFCURVE",
"484 324 OFFCURVE",
"484 207 CURVE SMOOTH"
);
},
{
closed = 1;
nodes = (
"185 376 LINE",
"255 376 LINE",
"255 434 LINE",
"185 434 LINE"
);
}
);
width = 600;
},
{
associatedMasterId = "D8D2F0D2-8948-448B-99CD-378CDFD0E0AE";
layerId = "F7A01A4A-EB83-44D8-A863-F9EFDC454C12";
name = "17 juil. 25 à 10:16";
paths = (
{
closed = 1;
nodes = (
"442 -12 OFFCURVE",
"558 47 OFFCURVE",
"558 181 CURVE SMOOTH",
"558 360 OFFCURVE",
"357 373 OFFCURVE",
"255 373 CURVE",
"255 326 LINE",
"382 326 OFFCURVE",
"494 288 OFFCURVE",
"494 180 CURVE SMOOTH",
"494 95 OFFCURVE",
"423 42 OFFCURVE",
"304 42 CURVE SMOOTH",
"222 42 OFFCURVE",
"157 67 OFFCURVE",
"94 97 CURVE",
"94 39 LINE",
"149 8 OFFCURVE",
"218 -12 OFFCURVE",
"301 -12 CURVE SMOOTH"
);
},
{
closed = 1;
nodes = (
"255 326 LINE",
"255 384 LINE",
"185 384 LINE",
"185 326 LINE"
);
},
{
closed = 1;
nodes = (
"414 340 OFFCURVE",
"539 373 OFFCURVE",
"539 505 CURVE SMOOTH",
"539 613 OFFCURVE",
"455 692 OFFCURVE",
"314 692 CURVE SMOOTH",
"188 692 OFFCURVE",
"85 628 OFFCURVE",
"85 568 CURVE SMOOTH",
"85 549 OFFCURVE",
"96 541 OFFCURVE",
"110 541 CURVE SMOOTH",
"157 541 OFFCURVE",
"175 638 OFFCURVE",
"311 638 CURVE SMOOTH",
"408 638 OFFCURVE",
"475 580 OFFCURVE",
"475 502 CURVE SMOOTH",
"475 407 OFFCURVE",
"376 384 OFFCURVE",
"255 384 CURVE",
"255 340 LINE"
);
}
);
width = 600;
},
{
layerId = "569359BB-C357-4838-A4FF-29094E5B79C2";
paths = (
{
closed = 1;
nodes = (
"470 -12 OFFCURVE",
"591 53 OFFCURVE",
"591 191 CURVE SMOOTH",
"591 330 OFFCURVE",
"460 386 OFFCURVE",
"234 371 CURVE",
"234 274 LINE",
"342 274 OFFCURVE",
"419 255 OFFCURVE",
"419 194 CURVE SMOOTH",
"419 146 OFFCURVE",
"372 116 OFFCURVE",
"283 116 CURVE SMOOTH",
"211 116 OFFCURVE",
"142 134 OFFCURVE",
"71 160 CURVE",
"71 28 LINE",
"126 5 OFFCURVE",
"200 -12 OFFCURVE",
"289 -12 CURVE SMOOTH"
);
},
{
closed = 1;
nodes = (
"234 274 LINE",
"234 400 LINE",
"178 400 LINE",
"178 274 LINE"
);
},
{
closed = 1;
nodes = (
"469 320 OFFCURVE",
"571 372 OFFCURVE",
"571 494 CURVE SMOOTH",
"571 616 OFFCURVE",
"472 692 OFFCURVE",
"307 692 CURVE SMOOTH",
"204 692 OFFCURVE",
"135 661 OFFCURVE",
"95 626 CURVE SMOOTH",
"68 605 OFFCURVE",
"50 579 OFFCURVE",
"50 547 CURVE SMOOTH",
"50 508 OFFCURVE",
"77 480 OFFCURVE",
"119 480 CURVE SMOOTH",
"187 480 OFFCURVE",
"211 564 OFFCURVE",
"307 564 CURVE SMOOTH",
"367 564 OFFCURVE",
"405 534 OFFCURVE",
"405 488 CURVE SMOOTH",
"405 425 OFFCURVE",
"337 400 OFFCURVE",
"234 400 CURVE",
"234 317 LINE"
);
}
);
width = 623;
}
);
unicode = 0033;
},
{
glyphname = four;
lastChange = "2025-07-30 13:33:28 +0000";
layers = (
{
layerId = "D8D2F0D2-8948-448B-99CD-378CDFD0E0AE";
paths = (
{
closed = 1;
nodes = (
"568 184 LINE",
"568 242 LINE",
"36 242 LINE",
"52 214 LINE",
"450 680 LINE",
"386 680 LINE",
"41 276 LINE SMOOTH",
"22 254 OFFCURVE",
"18 238 OFFCURVE",
"18 225 CURVE SMOOTH",
"18 200 OFFCURVE",
"35 184 OFFCURVE",
"71 184 CURVE SMOOTH"
);
},
{
closed = 1;
nodes = (
"450 0 LINE",
"450 680 LINE",
"386 680 LINE",
"386 0 LINE"
);
}
);
width = 600;
},
{
layerId = "569359BB-C357-4838-A4FF-29094E5B79C2";
paths = (
{
closed = 1;
nodes = (
"604 148 LINE",
"604 291 LINE",
"114 291 LINE",
"133 265 LINE",
"514 680 LINE",
"353 680 LINE",
"59 357 LINE SMOOTH",
"25 321 OFFCURVE",
"10 288 OFFCURVE",
"10 251 CURVE SMOOTH",
"10 190 OFFCURVE",
"51 148 OFFCURVE",
"134 148 CURVE SMOOTH"
);
},
{
closed = 1;
nodes = (
"514 0 LINE",
"514 680 LINE",
"353 680 LINE",
"353 0 LINE"
);
}
);
width = 623;
}
);
unicode = 0034;
},
{
glyphname = five;
lastChange = "2025-07-30 13:33:28 +0000";
layers = (
{
layerId = "D8D2F0D2-8948-448B-99CD-378CDFD0E0AE";
paths = (
{
closed = 1;
nodes = (
"426 -12 OFFCURVE",
"542 55 OFFCURVE",
"542 194 CURVE SMOOTH",
"542 330 OFFCURVE",
"433 448 OFFCURVE",
"126 381 CURVE",
"147 346 LINE",
"185 680 LINE",
"127 680 LINE",
"94 392 LINE SMOOTH",
"89 350 OFFCURVE",
"103 332 OFFCURVE",
"141 332 CURVE SMOOTH",
"171 332 OFFCURVE",
"212 343 OFFCURVE",
"270 343 CURVE SMOOTH",
"406 343 OFFCURVE",
"478 282 OFFCURVE",
"478 193 CURVE SMOOTH",
"478 102 OFFCURVE",
"403 42 OFFCURVE",
"279 42 CURVE SMOOTH",
"199 42 OFFCURVE",
"134 67 OFFCURVE",
"71 97 CURVE",
"71 39 LINE",
"126 8 OFFCURVE",
"197 -12 OFFCURVE",
"277 -12 CURVE SMOOTH"
);
},
{
closed = 1;
nodes = (
"513 622 LINE",
"513 680 LINE",
"127 680 LINE",
"127 622 LINE"
);
}
);
width = 600;
},
{
associatedMasterId = "D8D2F0D2-8948-448B-99CD-378CDFD0E0AE";
layerId = "D5492EE8-4C95-4716-8D8F-FA40D71A2829";
name = "18 juin 25 à 15:23";
paths = (
{
closed = 1;
nodes = (
"495 115 OFFCURVE",
"417 48 OFFCURVE",
"296 48 CURVE SMOOTH",
"227 48 OFFCURVE",
"157 70 OFFCURVE",
"94 109 CURVE",
"94 41 LINE",
"149 10 OFFCURVE",
"222 -10 OFFCURVE",
"297 -10 CURVE SMOOTH",
"440 -10 OFFCURVE",
"565 67 OFFCURVE",
"565 217 CURVE SMOOTH",
"565 352 OFFCURVE",
"460 482 OFFCURVE",
"163 428 CURVE",
"105 363 LINE",
"423 426 OFFCURVE",
"495 312 OFFCURVE",
"495 215 CURVE SMOOTH"
);
},
{
closed = 1;
nodes = (
"145 682 LINE",
"531 682 LINE",
"531 740 LINE",
"145 740 LINE"
);
},
{
closed = 1;
nodes = (
"105 363 LINE",
"168 406 LINE",
"203 740 LINE",
"145 740 LINE"
);
}
);
width = 600;
},
{
layerId = "569359BB-C357-4838-A4FF-29094E5B79C2";
paths = (
{
closed = 1;
nodes = (
"456 -12 OFFCURVE",
"577 62 OFFCURVE",
"577 215 CURVE SMOOTH",
"577 348 OFFCURVE",
"485 465 OFFCURVE",
"189 414 CURVE",
"213 379 LINE",
"247 680 LINE",
"104 680 LINE",
"73 408 LINE SMOOTH",
"62 318 OFFCURVE",
"90 278 OFFCURVE",
"174 278 CURVE SMOOTH",
"207 278 OFFCURVE",
"245 285 OFFCURVE",
"286 285 CURVE SMOOTH",
"362 285 OFFCURVE",
"405 256 OFFCURVE",
"405 208 CURVE SMOOTH",
"405 155 OFFCURVE",
"349 123 OFFCURVE",
"262 123 CURVE SMOOTH",
"194 123 OFFCURVE",
"126 139 OFFCURVE",
"54 165 CURVE",
"54 28 LINE",
"109 5 OFFCURVE",
"184 -12 OFFCURVE",
"270 -12 CURVE SMOOTH"
);
},
{
closed = 1;
nodes = (
"546 543 LINE",
"546 680 LINE",
"104 680 LINE",
"104 543 LINE"
);
}
);
width = 623;
}
);
unicode = 0035;
},
{
glyphname = six;
lastChange = "2025-07-30 13:33:28 +0000";
layers = (
{
layerId = "D8D2F0D2-8948-448B-99CD-378CDFD0E0AE";
paths = (
{
closed = 1;
nodes = (
"461 -12 OFFCURVE",
"560 83 OFFCURVE",
"560 214 CURVE SMOOTH",
"560 339 OFFCURVE",
"469 414 OFFCURVE",
"341 414 CURVE SMOOTH",
"259 414 OFFCURVE",
"168 383 OFFCURVE",
"99 324 CURVE",
"102 268 LINE",
"181 330 OFFCURVE",
"258 356 OFFCURVE",
"331 356 CURVE SMOOTH",
"436 356 OFFCURVE",
"496 301 OFFCURVE",
"496 213 CURVE SMOOTH",
"496 115 OFFCURVE",
"423 42 OFFCURVE",
"315 42 CURVE SMOOTH",
"188 42 OFFCURVE",
"116 145 OFFCURVE",
"116 331 CURVE SMOOTH",
"116 495 OFFCURVE",
"174 636 OFFCURVE",
"330 636 CURVE SMOOTH",
"437 636 OFFCURVE",
"456 568 OFFCURVE",
"494 568 CURVE SMOOTH",
"510 568 OFFCURVE",
"520 580 OFFCURVE",
"520 595 CURVE SMOOTH",
"520 607 OFFCURVE",
"514 619 OFFCURVE",
"499 634 CURVE SMOOTH",
"473 659 OFFCURVE",
"422 692 OFFCURVE",
"333 692 CURVE SMOOTH",
"129 692 OFFCURVE",
"54 527 OFFCURVE",
"54 330 CURVE SMOOTH",
"54 111 OFFCURVE",
"146 -12 OFFCURVE",
"314 -12 CURVE SMOOTH"
);
}
);
width = 600;
},
{
associatedMasterId = "D8D2F0D2-8948-448B-99CD-378CDFD0E0AE";
layerId = "D28698A3-FBA8-4D76-95A0-9273F026368D";
name = "Sep 11 21, 15:19";
paths = (
{
closed = 1;
nodes = (
"496 108 OFFCURVE",
"406 50 OFFCURVE",
"316 50 CURVE SMOOTH",
"188 50 OFFCURVE",
"106 167 OFFCURVE",
"108 387 CURVE SMOOTH",
"110 595 OFFCURVE",
"184 730 OFFCURVE",
"324 730 CURVE SMOOTH",
"407 730 OFFCURVE",
"471 682 OFFCURVE",
"497 591 CURVE",
"560 612 LINE",
"516 736 OFFCURVE",
"430 790 OFFCURVE",
"327 790 CURVE SMOOTH",
"149 790 OFFCURVE",
"44 625 OFFCURVE",
"44 375 CURVE SMOOTH",
"44 131 OFFCURVE",
"146 -10 OFFCURVE",
"313 -10 CURVE SMOOTH",
"432 -10 OFFCURVE",
"560 62 OFFCURVE",
"560 235 CURVE SMOOTH",
"560 373 OFFCURVE",
"479 468 OFFCURVE",
"326 468 CURVE SMOOTH",
"241 468 OFFCURVE",
"169 439 OFFCURVE",
"89 386 CURVE",
"92 322 LINE",
"167 379 OFFCURVE",
"243 406 OFFCURVE",
"317 406 CURVE SMOOTH",
"427 406 OFFCURVE",
"496 346 OFFCURVE",
"496 234 CURVE SMOOTH"
);
}
);
width = 600;
},
{
associatedMasterId = "D8D2F0D2-8948-448B-99CD-378CDFD0E0AE";
layerId = "91CC52A8-2AAB-4E00-A26D-327302036448";
name = "9 juil. 25 à 09:47";
paths = (
{
closed = 1;
nodes = (
"460 -12 OFFCURVE",
"560 83 OFFCURVE",
"560 219 CURVE SMOOTH",
"560 349 OFFCURVE",
"473 424 OFFCURVE",
"343 424 CURVE SMOOTH",
"259 424 OFFCURVE",
"168 393 OFFCURVE",
"99 334 CURVE",
"102 278 LINE",
"181 340 OFFCURVE",
"258 366 OFFCURVE",
"331 366 CURVE SMOOTH",
"436 366 OFFCURVE",
"496 313 OFFCURVE",
"496 219 CURVE SMOOTH",
"496 115 OFFCURVE",
"423 46 OFFCURVE",
"317 46 CURVE SMOOTH",
"188 46 OFFCURVE",
"114 147 OFFCURVE",
"116 345 CURVE SMOOTH",
"118 517 OFFCURVE",
"174 652 OFFCURVE",
"330 652 CURVE SMOOTH",
"435 652 OFFCURVE",
"459 592 OFFCURVE",
"495 592 CURVE SMOOTH",
"510 592 OFFCURVE",
"520 602 OFFCURVE",
"520 618 CURVE SMOOTH",
"520 660 OFFCURVE",
"454 712 OFFCURVE",
"337 712 CURVE SMOOTH",
"129 712 OFFCURVE",
"54 547 OFFCURVE",
"54 343 CURVE SMOOTH",
"54 111 OFFCURVE",
"146 -12 OFFCURVE",
"314 -12 CURVE SMOOTH"
);
}
);
width = 600;
},
{
layerId = "569359BB-C357-4838-A4FF-29094E5B79C2";
paths = (
{
closed = 1;
nodes = (
"494 -12 OFFCURVE",
"599 79 OFFCURVE",
"599 222 CURVE SMOOTH",
"599 349 OFFCURVE",
"515 425 OFFCURVE",
"384 425 CURVE SMOOTH",
"309 425 OFFCURVE",
"234 399 OFFCURVE",
"178 352 CURVE",
"188 246 LINE",
"235 283 OFFCURVE",
"286 300 OFFCURVE",
"331 300 CURVE SMOOTH",
"398 300 OFFCURVE",
"435 266 OFFCURVE",
"435 213 CURVE SMOOTH",
"435 156 OFFCURVE",
"392 114 OFFCURVE",
"325 114 CURVE SMOOTH",
"242 114 OFFCURVE",
"197 178 OFFCURVE",
"197 326 CURVE SMOOTH",
"197 478 OFFCURVE",
"243 555 OFFCURVE",
"341 555 CURVE SMOOTH",
"422 555 OFFCURVE",
"444 502 OFFCURVE",
"501 502 CURVE SMOOTH",
"541 502 OFFCURVE",
"571 523 OFFCURVE",
"571 567 CURVE SMOOTH",
"571 590 OFFCURVE",
"562 609 OFFCURVE",
"545 626 CURVE SMOOTH",
"508 665 OFFCURVE",
"439 692 OFFCURVE",
"349 692 CURVE SMOOTH",
"109 692 OFFCURVE",
"31 532 OFFCURVE",
"31 329 CURVE SMOOTH",
"31 110 OFFCURVE",
"121 -12 OFFCURVE",
"321 -12 CURVE SMOOTH"
);
}
);
width = 623;
}
);
unicode = 0036;
},
{
glyphname = seven;
lastChange = "2025-07-30 13:33:28 +0000";
layers = (
{
layerId = "D8D2F0D2-8948-448B-99CD-378CDFD0E0AE";
paths = (
{
closed = 1;
nodes = (
"297 1 LINE",
"281 473 OFFCURVE",
"554 560 OFFCURVE",
"554 646 CURVE SMOOTH",
"554 668 OFFCURVE",
"536 680 OFFCURVE",
"506 680 CURVE SMOOTH",
"52 680 LINE",
"52 622 LINE",
"530 622 LINE",
"511 646 LINE",
"315 472 OFFCURVE",
"231 300 OFFCURVE",
"231 0 CURVE"
);
}
);
width = 600;
},
{
associatedMasterId = "D8D2F0D2-8948-448B-99CD-378CDFD0E0AE";
layerId = "5C317E4A-5FA3-45F3-B3B0-2D9A4A897634";
name = "19 juin 25 à 18:28";
paths = (
{
closed = 1;
nodes = (
"295 421 OFFCURVE",
"251 318 OFFCURVE",
"251 35 CURVE SMOOTH",
"251 10 OFFCURVE",
"264 -4 OFFCURVE",
"284 -4 CURVE SMOOTH",
"305 -4 OFFCURVE",
"317 11 OFFCURVE",
"317 36 CURVE SMOOTH",
"317 318 OFFCURVE",
"364 422 OFFCURVE",
"564 642 CURVE",
"495 642 LINE"
);
},
{
closed = 1;
nodes = (
"52 642 LINE",
"564 642 LINE",
"564 700 LINE",
"52 700 LINE"
);
}
);
width = 600;
},
{
layerId = "569359BB-C357-4838-A4FF-29094E5B79C2";
paths = (
{
closed = 1;
nodes = (
"353 1 LINE",
"346 433 OFFCURVE",
"590 460 OFFCURVE",
"590 590 CURVE SMOOTH",
"590 652 OFFCURVE",
"543 680 OFFCURVE",
"481 680 CURVE SMOOTH",
"43 680 LINE",
"43 537 LINE",
"462 537 LINE",
"439 567 LINE",
"260 422 OFFCURVE",
"187 261 OFFCURVE",
"187 0 CURVE"
);
}
);
width = 623;
}
);
unicode = 0037;
},
{
glyphname = eight;
lastChange = "2025-07-30 13:33:28 +0000";
layers = (
{
layerId = "D8D2F0D2-8948-448B-99CD-378CDFD0E0AE";
paths = (
{
closed = 1;
nodes = (
"40 60 OFFCURVE",
"139 -12 OFFCURVE",
"297 -12 CURVE SMOOTH",
"460 -12 OFFCURVE",
"560 66 OFFCURVE",
"560 187 CURVE SMOOTH",
"560 306 OFFCURVE",
"461 379 OFFCURVE",
"303 379 CURVE SMOOTH",
"140 379 OFFCURVE",
"40 300 OFFCURVE",
"40 179 CURVE SMOOTH"
);
},
{
closed = 1;
nodes = (
"104 268 OFFCURVE",
"179 326 OFFCURVE",
"303 326 CURVE SMOOTH",
"424 326 OFFCURVE",
"496 270 OFFCURVE",
"496 184 CURVE SMOOTH",
"496 97 OFFCURVE",
"421 46 OFFCURVE",
"297 46 CURVE SMOOTH",
"176 46 OFFCURVE",
"104 95 OFFCURVE",
"104 180 CURVE SMOOTH"
);
},
{
closed = 1;
nodes = (
"60 399 OFFCURVE",
"151 333 OFFCURVE",
"297 333 CURVE SMOOTH",
"448 333 OFFCURVE",
"540 405 OFFCURVE",
"540 516 CURVE SMOOTH",
"540 625 OFFCURVE",
"449 692 OFFCURVE",
"303 692 CURVE SMOOTH",
"152 692 OFFCURVE",
"60 619 OFFCURVE",
"60 508 CURVE SMOOTH"
);
},
{
closed = 1;
nodes = (
"124 587 OFFCURVE",
"192 634 OFFCURVE",
"303 634 CURVE SMOOTH",
"411 634 OFFCURVE",
"476 588 OFFCURVE",
"476 513 CURVE SMOOTH",
"476 435 OFFCURVE",
"408 386 OFFCURVE",
"297 386 CURVE SMOOTH",
"189 386 OFFCURVE",
"124 434 OFFCURVE",
"124 509 CURVE SMOOTH"
);
}
);
width = 600;
},
{
layerId = "569359BB-C357-4838-A4FF-29094E5B79C2";
paths = (
{
closed = 1;
nodes = (
"29 56 OFFCURVE",
"135 -12 OFFCURVE",
"310 -12 CURVE SMOOTH",
"493 -12 OFFCURVE",
"593 63 OFFCURVE",
"593 187 CURVE SMOOTH",
"593 316 OFFCURVE",
"489 379 OFFCURVE",
"313 379 CURVE SMOOTH",
"130 379 OFFCURVE",
"29 310 OFFCURVE",
"29 184 CURVE SMOOTH"
);
},
{
closed = 1;
nodes = (
"200 253 OFFCURVE",
"244 288 OFFCURVE",
"313 288 CURVE SMOOTH",
"380 288 OFFCURVE",
"422 255 OFFCURVE",
"422 199 CURVE SMOOTH",
"422 142 OFFCURVE",
"378 111 OFFCURVE",
"310 111 CURVE SMOOTH",
"243 111 OFFCURVE",
"200 141 OFFCURVE",
"200 196 CURVE SMOOTH"
);
},
{
closed = 1;
nodes = (
"45 371 OFFCURVE",
"144 307 OFFCURVE",
"310 307 CURVE SMOOTH",
"484 307 OFFCURVE",
"577 377 OFFCURVE",
"577 499 CURVE SMOOTH",
"577 623 OFFCURVE",
"479 692 OFFCURVE",
"313 692 CURVE SMOOTH",
"139 692 OFFCURVE",
"45 616 OFFCURVE",
"45 494 CURVE SMOOTH"
);
},
{
closed = 1;
nodes = (
"209 539 OFFCURVE",
"250 569 OFFCURVE",
"313 569 CURVE SMOOTH",
"374 569 OFFCURVE",
"413 540 OFFCURVE",
"413 489 CURVE SMOOTH",
"413 435 OFFCURVE",
"372 406 OFFCURVE",
"309 406 CURVE SMOOTH",
"248 406 OFFCURVE",
"209 435 OFFCURVE",
"209 486 CURVE SMOOTH"
);
}
);
width = 623;
}
);
unicode = 0038;
},
{
glyphname = zero.osf;
lastChange = "2025-07-30 13:33:28 +0000";
layers = (
{
layerId = "D8D2F0D2-8948-448B-99CD-378CDFD0E0AE";
paths = (
{
closed = 1;
nodes = (
"472 -12 OFFCURVE",
"576 127 OFFCURVE",
"576 311 CURVE SMOOTH",
"576 492 OFFCURVE",
"476 632 OFFCURVE",
"302 632 CURVE SMOOTH",
"128 632 OFFCURVE",
"24 493 OFFCURVE",
"24 309 CURVE SMOOTH",
"24 128 OFFCURVE",
"124 -12 OFFCURVE",
"298 -12 CURVE SMOOTH"
);
},
{
closed = 1;
nodes = (
"166 44 OFFCURVE",
"90 167 OFFCURVE",
"90 310 CURVE SMOOTH",
"90 459 OFFCURVE",
"171 576 OFFCURVE",
"301 576 CURVE SMOOTH",
"434 576 OFFCURVE",
"510 453 OFFCURVE",
"510 310 CURVE SMOOTH",
"510 161 OFFCURVE",
"429 44 OFFCURVE",
"299 44 CURVE SMOOTH"
);
}
);
width = 600;
},
{
layerId = "569359BB-C357-4838-A4FF-29094E5B79C2";
paths = (
{
closed = 1;
nodes = (
"504 -12 OFFCURVE",
"607 121 OFFCURVE",
"607 294 CURVE SMOOTH",
"607 465 OFFCURVE",
"506 599 OFFCURVE",
"316 599 CURVE SMOOTH",
"124 599 OFFCURVE",
"15 463 OFFCURVE",
"15 292 CURVE SMOOTH",
"15 123 OFFCURVE",
"122 -12 OFFCURVE",
"313 -12 CURVE SMOOTH"
);
},
{
closed = 1;
nodes = (
"227 133 OFFCURVE",
"182 203 OFFCURVE",
"182 292 CURVE SMOOTH",
"182 386 OFFCURVE",
"230 454 OFFCURVE",
"312 454 CURVE SMOOTH",
"396 454 OFFCURVE",
"441 384 OFFCURVE",
"441 294 CURVE SMOOTH",
"441 201 OFFCURVE",
"393 133 OFFCURVE",
"310 133 CURVE SMOOTH"
);
}
);
width = 623;
}
);
rightMetricsKey = "=|";
},
{
glyphname = one.osf;
lastChange = "2025-07-30 13:33:28 +0000";
layers = (
{
layerId = "D8D2F0D2-8948-448B-99CD-378CDFD0E0AE";
paths = (
{
closed = 1;
nodes = (
"314 0 LINE",
"314 560 LINE",
"250 520 LINE",
"250 0 LINE"
);
},
{
closed = 1;
nodes = (
"284 512 LINE",
"314 560 LINE",
"250 560 LINE",
"102 488 LINE SMOOTH",
"38 457 OFFCURVE",
"69 398 OFFCURVE",
"127 429 CURVE SMOOTH"
);
}
);
width = 440;
},
{
layerId = "569359BB-C357-4838-A4FF-29094E5B79C2";
name = Black;
paths = (
{
closed = 1;
nodes = (
"400 0 LINE",
"400 560 LINE",
"240 456 LINE",
"240 0 LINE"
);
},
{
closed = 1;
nodes = (
"348 465 LINE",
"400 560 LINE",
"240 560 LINE",
"92 483 LINE SMOOTH",
"-32 417 OFFCURVE",
"55 261 OFFCURVE",
"173 346 CURVE SMOOTH"
);
}
);
width = 485;
}
);
},
{
glyphname = two.osf;
lastChange = "2025-07-30 13:33:28 +0000";
layers = (
{
layerId = "D8D2F0D2-8948-448B-99CD-378CDFD0E0AE";
paths = (
{
closed = 1;
nodes = (
"556 0 LINE",
"556 60 LINE",
"131 60 LINE",
"127 257 OFFCURVE",
"532 172 OFFCURVE",
"532 403 CURVE SMOOTH",
"532 504 OFFCURVE",
"451 572 OFFCURVE",
"316 572 CURVE SMOOTH",
"213 572 OFFCURVE",
"148 533 OFFCURVE",
"115 493 CURVE SMOOTH",
"102 478 OFFCURVE",
"93 462 OFFCURVE",
"93 447 CURVE SMOOTH",
"93 431 OFFCURVE",
"104 421 OFFCURVE",
"118 421 CURVE SMOOTH",
"162 421 OFFCURVE",
"181 518 OFFCURVE",
"315 518 CURVE SMOOTH",
"407 518 OFFCURVE",
"468 472 OFFCURVE",
"468 405 CURVE SMOOTH",
"468 231 OFFCURVE",
"67 301 OFFCURVE",
"67 61 CURVE SMOOTH",
"67 20 OFFCURVE",
"78 0 OFFCURVE",
"123 0 CURVE SMOOTH"
);
}
);
width = 600;
},
{
associatedMasterId = "D8D2F0D2-8948-448B-99CD-378CDFD0E0AE";
layerId = "24E6C80F-32C1-47B8-AF2C-0071E576D8FD";
name = "Sep 10 21, 23:45";
paths = (
{
closed = 1;
nodes = (
"172 678 OFFCURVE",
"243 730 OFFCURVE",
"329 730 CURVE SMOOTH",
"426 730 OFFCURVE",
"481 664 OFFCURVE",
"481 574 CURVE SMOOTH",
"481 334 OFFCURVE",
"64 387 OFFCURVE",
"64 0 CURVE",
"125 0 LINE",
"124 357 OFFCURVE",
"543 287 OFFCURVE",
"543 574 CURVE SMOOTH",
"543 700 OFFCURVE",
"463 790 OFFCURVE",
"331 790 CURVE SMOOTH",
"217 790 OFFCURVE",
"126 724 OFFCURVE",
"76 613 CURVE",
"133 588 LINE"
);
},
{
closed = 1;
nodes = (
"94 0 LINE",
"556 0 LINE",
"556 60 LINE",
"94 60 LINE"
);
}
);
width = 600;
},
{
associatedMasterId = "D8D2F0D2-8948-448B-99CD-378CDFD0E0AE";
layerId = "43CE25F7-4FB4-44CE-92B3-46BD6BCED21F";
name = "17 juil. 25 à 14:50";
paths = (
{
closed = 1;
nodes = (
"556 0 LINE",
"556 60 LINE",
"131 60 LINE",
"127 257 OFFCURVE",
"532 172 OFFCURVE",
"532 403 CURVE SMOOTH",
"532 504 OFFCURVE",
"451 572 OFFCURVE",
"316 572 CURVE SMOOTH",
"184 572 OFFCURVE",
"89 508 OFFCURVE",
"89 448 CURVE SMOOTH",
"89 429 OFFCURVE",
"100 421 OFFCURVE",
"114 421 CURVE SMOOTH",
"163 421 OFFCURVE",
"179 518 OFFCURVE",
"315 518 CURVE SMOOTH",
"407 518 OFFCURVE",
"468 472 OFFCURVE",
"468 405 CURVE SMOOTH",
"468 231 OFFCURVE",
"67 301 OFFCURVE",
"67 61 CURVE SMOOTH",
"67 20 OFFCURVE",
"78 0 OFFCURVE",
"123 0 CURVE SMOOTH"
);
}
);
width = 600;
},
{
layerId = "569359BB-C357-4838-A4FF-29094E5B79C2";
paths = (
{
closed = 1;
nodes = (
"584 0 LINE",
"584 133 LINE",
"243 133 LINE",
"270 231 OFFCURVE",
"567 195 OFFCURVE",
"567 394 CURVE SMOOTH",
"567 506 OFFCURVE",
"474 577 OFFCURVE",
"316 577 CURVE SMOOTH",
"218 577 OFFCURVE",
"145 548 OFFCURVE",
"102 510 CURVE SMOOTH",
"76 489 OFFCURVE",
"58 463 OFFCURVE",
"58 430 CURVE SMOOTH",
"58 388 OFFCURVE",
"87 365 OFFCURVE",
"125 365 CURVE SMOOTH",
"195 365 OFFCURVE",
"219 453 OFFCURVE",
"315 453 CURVE SMOOTH",
"367 453 OFFCURVE",
"401 429 OFFCURVE",
"401 392 CURVE SMOOTH",
"401 275 OFFCURVE",
"46 312 OFFCURVE",
"46 100 CURVE SMOOTH",
"46 38 OFFCURVE",
"82 0 OFFCURVE",
"176 0 CURVE SMOOTH"
);
}
);
width = 623;
}
);
},
{
glyphname = three.osf;
lastChange = "2025-07-30 13:33:28 +0000";
layers = (
{
components = (
{
name = three;
transform = "{1, 0, 0, 1, 0, -120}";
}
);
layerId = "D8D2F0D2-8948-448B-99CD-378CDFD0E0AE";
width = 600;
},
{
associatedMasterId = "D8D2F0D2-8948-448B-99CD-378CDFD0E0AE";
layerId = "FFA630A1-16CC-4EE5-8BC8-5692722E01EF";
name = "30 mai 25 à 17:26";
paths = (
{
closed = 1;
nodes = (
"414 390 OFFCURVE",
"539 443 OFFCURVE",
"539 585 CURVE SMOOTH",
"539 700 OFFCURVE",
"457 790 OFFCURVE",
"325 790 CURVE SMOOTH",
"211 790 OFFCURVE",
"120 724 OFFCURVE",
"70 643 CURVE",
"121 607 LINE",
"168 682 OFFCURVE",
"237 732 OFFCURVE",
"322 732 CURVE SMOOTH",
"420 732 OFFCURVE",
"475 664 OFFCURVE",
"475 580 CURVE SMOOTH",
"475 467 OFFCURVE",
"376 434 OFFCURVE",
"255 434 CURVE",
"255 390 LINE"
);
},
{
closed = 1;
nodes = (
"484 115 OFFCURVE",
"417 48 OFFCURVE",
"296 48 CURVE SMOOTH",
"215 48 OFFCURVE",
"157 79 OFFCURVE",
"103 163 CURVE",
"48 122 LINE",
"102 31 OFFCURVE",
"190 -10 OFFCURVE",
"293 -10 CURVE SMOOTH",
"436 -10 OFFCURVE",
"548 67 OFFCURVE",
"548 208 CURVE SMOOTH",
"548 396 OFFCURVE",
"357 425 OFFCURVE",
"255 425 CURVE",
"255 376 LINE",
"382 376 OFFCURVE",
"484 324 OFFCURVE",
"484 207 CURVE SMOOTH"
);
},
{
closed = 1;
nodes = (
"185 376 LINE",
"255 376 LINE",
"255 434 LINE",
"185 434 LINE"
);
}
);
width = 600;
},
{
components = (
{
name = three;
transform = "{1, 0, 0, 1, 0, -120}";
}
);
layerId = "569359BB-C357-4838-A4FF-29094E5B79C2";
width = 623;
}
);
},
